<svg xmlns="http://www.w3.org/2000/svg" xmlns:xlink="http://www.w3.org/1999/xlink" width="108" height="108" viewBox="0 0 108 108">
  <defs>
    <filter id="Trazado_904820" x="0" y="0" width="108" height="108" filterUnits="userSpaceOnUse">
      <feOffset dy="3" input="SourceAlpha"/>
      <feGaussianBlur stdDeviation="3" result="blur"/>
      <feFlood flood-opacity="0.161"/>
      <feComposite operator="in" in2="blur"/>
      <feComposite in="SourceGraphic"/>
    </filter>
  </defs>
  <g id="Grupo_1143810" data-name="Grupo 1143810" transform="translate(-726 -875)">
    <g id="Grupo_1143809" data-name="Grupo 1143809">
      <g transform="matrix(1, 0, 0, 1, 726, 875)" filter="url(#Trazado_904820)">
        <g id="Trazado_904820-2" data-name="Trazado 904820" transform="translate(9 6)" fill="#ecf4fa">
          <path d="M 45 88.5 C 39.12687683105469 88.5 33.43022537231445 87.35007476806641 28.06830024719238 85.08217620849609 C 22.88852500915527 82.89131164550781 18.23629951477051 79.75458526611328 14.2408504486084 75.75914764404297 C 10.24541282653809 71.76370239257812 7.108687400817871 67.11147308349609 4.917825222015381 61.93170166015625 C 2.649924993515015 56.56977462768555 1.5 50.87312316894531 1.5 45 C 1.5 39.12687683105469 2.649924993515015 33.43022537231445 4.917825222015381 28.06830024719238 C 7.108687400817871 22.88852500915527 10.24541282653809 18.23629951477051 14.2408504486084 14.2408504486084 C 18.23629951477051 10.24541282653809 22.88852500915527 7.108687400817871 28.06830024719238 4.917825222015381 C 33.43022537231445 2.649924993515015 39.12687683105469 1.5 45 1.5 C 50.87312316894531 1.5 56.56977462768555 2.649924993515015 61.93170166015625 4.917825222015381 C 67.11147308349609 7.108687400817871 71.76370239257812 10.24541282653809 75.75914764404297 14.2408504486084 C 79.75458526611328 18.23629951477051 82.89131164550781 22.88852500915527 85.08217620849609 28.06830024719238 C 87.35007476806641 33.43022537231445 88.5 39.12687683105469 88.5 45 C 88.5 50.87312316894531 87.35007476806641 56.56977462768555 85.08217620849609 61.93170166015625 C 82.89131164550781 67.11147308349609 79.75458526611328 71.76370239257812 75.75914764404297 75.75914764404297 C 71.76370239257812 79.75458526611328 67.11147308349609 82.89131164550781 61.93170166015625 85.08217620849609 C 56.56977462768555 87.35007476806641 50.87312316894531 88.5 45 88.5 Z" stroke="none"/>
          <path d="M 45 3 C 39.32871246337891 3 33.82865524291992 4.110054016113281 28.65262985229492 6.299339294433594 C 23.65165710449219 8.414573669433594 19.15968322753906 11.44334411621094 15.301513671875 15.301513671875 C 11.44334411621094 19.15968322753906 8.414573669433594 23.65165710449219 6.299339294433594 28.65262985229492 C 4.110054016113281 33.82865524291992 3 39.32871246337891 3 45 C 3 50.67128753662109 4.110054016113281 56.17134475708008 6.299339294433594 61.34737396240234 C 8.414573669433594 66.34834289550781 11.44334411621094 70.84031677246094 15.301513671875 74.698486328125 C 19.15968322753906 78.55665588378906 23.65165710449219 81.58542633056641 28.65262985229492 83.70066070556641 C 33.82865524291992 85.88994598388672 39.32871246337891 87 45 87 C 50.67128753662109 87 56.17134475708008 85.88994598388672 61.34737396240234 83.70066070556641 C 66.34834289550781 81.58542633056641 70.84031677246094 78.55665588378906 74.698486328125 74.698486328125 C 78.55665588378906 70.84031677246094 81.58542633056641 66.34834289550781 83.70066070556641 61.34737396240234 C 85.88994598388672 56.17134475708008 87 50.67128753662109 87 45 C 87 39.32871246337891 85.88994598388672 33.82865524291992 83.70066070556641 28.65262985229492 C 81.58542633056641 23.65165710449219 78.55665588378906 19.15968322753906 74.698486328125 15.301513671875 C 70.84031677246094 11.44334411621094 66.34834289550781 8.414573669433594 61.34737396240234 6.299339294433594 C 56.17134475708008 4.110054016113281 50.67128753662109 3 45 3 M 45 0 C 69.85281372070312 0 90 20.14718627929688 90 45 C 90 69.85281372070312 69.85281372070312 90 45 90 C 20.14718627929688 90 0 69.85281372070312 0 45 C 0 20.14718627929688 20.14718627929688 0 45 0 Z" stroke="none" fill="#2a5673"/>
        </g>
      </g>
    </g>
    <g id="Grupo_1143808" data-name="Grupo 1143808" transform="translate(753.116 900.147)">
      <path id="Trazado_978895" data-name="Trazado 978895" d="M414.29,59.273l-6.49-6.49a1.87,1.87,0,1,0-2.645,2.645l6.49,6.49a1.87,1.87,0,0,0,2.645-2.645Zm0,0" transform="translate(-362.117 -46.749)" fill="#e1e3e9"/>
      <path id="Trazado_978896" data-name="Trazado 978896" d="M9.988,11.854V54a1.865,1.865,0,0,0,1.865,1.865H43.928A1.865,1.865,0,0,0,45.793,54V17.541L38.24,9.989H11.853a1.865,1.865,0,0,0-1.865,1.865Zm0,0" transform="translate(-8.94 -8.94)" fill="#fff"/>
      <path id="Trazado_978897" data-name="Trazado 978897" d="M311.9,465.653H289.66a4.2,4.2,0,0,1,4.2-4.2H307.7A4.2,4.2,0,0,1,311.9,465.653Zm0,0" transform="translate(-259.241 -412.995)" fill="#b5bcc9"/>
      <path id="Trazado_978898" data-name="Trazado 978898" d="M281.128,168.746l-3.521,3.521a9.863,9.863,0,0,1-13.948,13.948l-3.521,3.521a14.843,14.843,0,0,0,20.991-20.99Zm0,0" transform="translate(-232.819 -151.024)" fill="#b5bcc9"/>
      <path id="Trazado_978899" data-name="Trazado 978899" d="M352.625,357.578a5.035,5.035,0,0,0-5.035,5.035v5.874h10.07v-5.874A5.035,5.035,0,0,0,352.625,357.578Zm0,0" transform="translate(-311.087 -320.026)" fill="#eff3f3"/>
      <path id="Trazado_978900" data-name="Trazado 978900" d="M284.587,83.371l6.335,6.335L276.14,104.488,269.8,98.153Zm0,0" transform="translate(-241.471 -74.615)" fill="#eff3f3"/>
      <path id="Trazado_978901" data-name="Trazado 978901" d="M242.766,235.277l3.993,3.994-4.481,4.481-3.993-3.994Zm0,0" transform="translate(-213.262 -210.568)" fill="#d3d7df"/>
      <path id="Trazado_978902" data-name="Trazado 978902" d="M182.887,339.29h10.524a2.1,2.1,0,1,0,0-4.2H182.887a2.1,2.1,0,1,0,0,4.2Zm0,0" transform="translate(-161.804 -299.903)" fill="#eff3f3"/>
      <path id="Trazado_978903" data-name="Trazado 978903" d="M286.564,17.54l-7.552-7.552V15.77a1.77,1.77,0,0,0,1.77,1.77Zm0,0" transform="translate(-249.711 -8.939)" fill="#ffd89e"/>
      <path id="Trazado_978904" data-name="Trazado 978904" d="M352.625,357.578a5.035,5.035,0,0,0-5.035,5.035v5.874h10.07v-5.874A5.035,5.035,0,0,0,352.625,357.578Zm0,0" transform="translate(-311.087 -320.026)" fill="#e1e3e9"/>
      <path id="Trazado_978905" data-name="Trazado 978905" d="M284.587,83.371l6.335,6.335L276.14,104.488,269.8,98.153Zm0,0" transform="translate(-241.471 -74.615)" fill="#91def5"/>
      <path id="Trazado_978906" data-name="Trazado 978906" d="M182.887,339.29h10.524a2.1,2.1,0,1,0,0-4.2H182.887a2.1,2.1,0,1,0,0,4.2Zm0,0" transform="translate(-161.804 -299.903)" fill="#e1e3e9"/>
      <path id="Trazado_978907" data-name="Trazado 978907" d="M386.6,399.531a1.05,1.05,0,1,0,.741.307A1.056,1.056,0,0,0,386.6,399.531Zm0,0" transform="translate(-345.058 -357.573)"/>
      <path id="Trazado_978908" data-name="Trazado 978908" d="M53.705,28.217A15.786,15.786,0,0,0,49.051,16.98l0,0,.513-.513a2.919,2.919,0,0,0,3.354-4.682l-6.49-6.49a2.919,2.919,0,0,0-4.682,3.354L37.9,12.486V8.6h0a1.046,1.046,0,0,0-.3-.742L30.042.308A1.048,1.048,0,0,0,29.3,0a.005.005,0,0,1,0,0H2.913A2.917,2.917,0,0,0,0,2.914V45.059a2.917,2.917,0,0,0,2.914,2.914H13.541a1.049,1.049,0,0,0,0-2.1H2.913a.817.817,0,0,1-.816-.816V2.914A.817.817,0,0,1,2.913,2.1H28.251V6.831A2.822,2.822,0,0,0,31.07,9.651H35.8v4.934L27.592,22.8a1.049,1.049,0,0,0,0,1.483l.429.429-3.739,3.739a1.049,1.049,0,0,0,0,1.483l3.994,3.994a1.046,1.046,0,0,0,.318.217h-7.51a3.147,3.147,0,0,0,0,6.294h6.569a15.731,15.731,0,0,0,7.8,3.5v1.941H22.982a1.049,1.049,0,1,0,0,2.1H32.26a5.25,5.25,0,0,0-2.891,4.685,1.049,1.049,0,0,0,1.049,1.049H52.656a1.049,1.049,0,0,0,1.049-1.049,5.251,5.251,0,0,0-5.245-5.245h-.839V42.588a6.07,6.07,0,0,0-.238-1.682,16.084,16.084,0,0,0,1.668-1.452,15.786,15.786,0,0,0,4.654-11.237ZM31.071,7.553a.722.722,0,0,1-.721-.721V3.582L34.32,7.553ZM43.78,6.776a.821.821,0,0,1,1.161,0l6.49,6.49a.821.821,0,1,1-1.162,1.161l-.077-.078L43.857,8.014l-.077-.078a.822.822,0,0,1,0-1.161Zm-6.186,8.985h0l5.521-5.521,4.852,4.852-13.3,13.3-.429-.429-3.994-3.993-.429-.429Zm6.452,6.224a8.827,8.827,0,0,1-3.394,14.584,6.058,6.058,0,0,0-1.266.329,8.691,8.691,0,0,1-1.485.141V28.124l6.142-6.142,0,0ZM26.507,29.19l3-3,2.51,2.51-3,3Zm3.252,4.735L33.5,30.186l.429.429a1.049,1.049,0,0,0,1.483,0l.393-.393V36.8a8.911,8.911,0,0,1-1.167-.361,3.152,3.152,0,0,0-3.03-2.3H29.441a1.051,1.051,0,0,0,.318-.217Zm-9.724,3.363a1.05,1.05,0,0,1,1.049-1.049H31.608a1.049,1.049,0,0,1,0,2.1H21.083a1.05,1.05,0,0,1-1.049-1.049Zm11.573,3.147A3.15,3.15,0,0,0,34.465,38.6a10.966,10.966,0,0,0,1.995.447,1.044,1.044,0,0,0,.106.036A6.05,6.05,0,0,0,35.5,41.817a13.649,13.649,0,0,1-4.1-1.381h.208Zm19.82,11.173H31.647a3.152,3.152,0,0,1,2.967-2.1H48.46a3.152,3.152,0,0,1,2.967,2.1Zm-13.876-4.2V42.588a3.991,3.991,0,0,1,2.413-3.662,10.845,10.845,0,0,0,1.168-.3,3.988,3.988,0,0,1,4.391,3.966v4.825Zm8.884-8.429A6.126,6.126,0,0,0,44.158,37.1a11.082,11.082,0,0,0,1.372-1.165,10.912,10.912,0,0,0,0-15.432l0,0,2.038-2.038,0,0a13.809,13.809,0,0,1,0,19.507,14.076,14.076,0,0,1-1.132,1.014Zm0,0" transform="translate(0)"/>
      <path id="Trazado_978909" data-name="Trazado 978909" d="M74.994,121.957H95.268a1.049,1.049,0,1,0,0-2.1H74.994a1.049,1.049,0,1,0,0,2.1Zm0,0" transform="translate(-66.181 -107.272)"/>
      <path id="Trazado_978910" data-name="Trazado 978910" d="M74.994,169.9H93.5a1.049,1.049,0,1,0,0-2.1h-18.5a1.049,1.049,0,1,0,0,2.1Zm0,0" transform="translate(-66.181 -150.178)"/>
      <path id="Trazado_978911" data-name="Trazado 978911" d="M74.994,217.844H90.621a1.049,1.049,0,1,0,0-2.1H74.994a1.049,1.049,0,1,0,0,2.1Zm0,0" transform="translate(-66.181 -193.089)"/>
      <path id="Trazado_978912" data-name="Trazado 978912" d="M74.994,265.789H85.172a1.049,1.049,0,1,0,0-2.1H74.994a1.049,1.049,0,0,0,0,2.1Zm0,0" transform="translate(-66.181 -235.999)"/>
      <path id="Trazado_978913" data-name="Trazado 978913" d="M81.232,311.633H74.994a1.049,1.049,0,1,0,0,2.1h6.238a1.049,1.049,0,1,0,0-2.1Zm0,0" transform="translate(-66.181 -278.906)"/>
      <path id="Trazado_978914" data-name="Trazado 978914" d="M164.956,437.484a1.049,1.049,0,1,0,.742.307A1.057,1.057,0,0,0,164.956,437.484Zm0,0" transform="translate(-146.694 -391.54)"/>
    </g>
  </g>
</svg>
