<svg xmlns="http://www.w3.org/2000/svg" xmlns:xlink="http://www.w3.org/1999/xlink" width="108" height="108" viewBox="0 0 108 108">
  <defs>
    <filter id="Trazado_904820" x="0" y="0" width="108" height="108" filterUnits="userSpaceOnUse">
      <feOffset dy="3" input="SourceAlpha"/>
      <feGaussianBlur stdDeviation="3" result="blur"/>
      <feFlood flood-opacity="0.161"/>
      <feComposite operator="in" in2="blur"/>
      <feComposite in="SourceGraphic"/>
    </filter>
  </defs>
  <g id="Grupo_1143792" data-name="Grupo 1143792" transform="translate(-201 -374)">
    <g transform="matrix(1, 0, 0, 1, 201, 374)" filter="url(#Trazado_904820)">
      <g id="Trazado_904820-2" data-name="Trazado 904820" transform="translate(9 6)" fill="#ecf4fa">
        <path d="M 45 88.5 C 39.12687683105469 88.5 33.43022537231445 87.35007476806641 28.06830024719238 85.08217620849609 C 22.88852500915527 82.89131164550781 18.23629951477051 79.75458526611328 14.2408504486084 75.75914764404297 C 10.24541282653809 71.76370239257812 7.108687400817871 67.11147308349609 4.917825222015381 61.93170166015625 C 2.649924993515015 56.56977462768555 1.5 50.87312316894531 1.5 45 C 1.5 39.12687683105469 2.649924993515015 33.43022537231445 4.917825222015381 28.06830024719238 C 7.108687400817871 22.88852500915527 10.24541282653809 18.23629951477051 14.2408504486084 14.2408504486084 C 18.23629951477051 10.24541282653809 22.88852500915527 7.108687400817871 28.06830024719238 4.917825222015381 C 33.43022537231445 2.649924993515015 39.12687683105469 1.5 45 1.5 C 50.87312316894531 1.5 56.56977462768555 2.649924993515015 61.93170166015625 4.917825222015381 C 67.11147308349609 7.108687400817871 71.76370239257812 10.24541282653809 75.75914764404297 14.2408504486084 C 79.75458526611328 18.23629951477051 82.89131164550781 22.88852500915527 85.08217620849609 28.06830024719238 C 87.35007476806641 33.43022537231445 88.5 39.12687683105469 88.5 45 C 88.5 50.87312316894531 87.35007476806641 56.56977462768555 85.08217620849609 61.93170166015625 C 82.89131164550781 67.11147308349609 79.75458526611328 71.76370239257812 75.75914764404297 75.75914764404297 C 71.76370239257812 79.75458526611328 67.11147308349609 82.89131164550781 61.93170166015625 85.08217620849609 C 56.56977462768555 87.35007476806641 50.87312316894531 88.5 45 88.5 Z" stroke="none"/>
        <path d="M 45 3 C 39.32871246337891 3 33.82865524291992 4.110054016113281 28.65262985229492 6.299339294433594 C 23.65165710449219 8.414573669433594 19.15968322753906 11.44334411621094 15.301513671875 15.301513671875 C 11.44334411621094 19.15968322753906 8.414573669433594 23.65165710449219 6.299339294433594 28.65262985229492 C 4.110054016113281 33.82865524291992 3 39.32871246337891 3 45 C 3 50.67128753662109 4.110054016113281 56.17134475708008 6.299339294433594 61.34737396240234 C 8.414573669433594 66.34834289550781 11.44334411621094 70.84031677246094 15.301513671875 74.698486328125 C 19.15968322753906 78.55665588378906 23.65165710449219 81.58542633056641 28.65262985229492 83.70066070556641 C 33.82865524291992 85.88994598388672 39.32871246337891 87 45 87 C 50.67128753662109 87 56.17134475708008 85.88994598388672 61.34737396240234 83.70066070556641 C 66.34834289550781 81.58542633056641 70.84031677246094 78.55665588378906 74.698486328125 74.698486328125 C 78.55665588378906 70.84031677246094 81.58542633056641 66.34834289550781 83.70066070556641 61.34737396240234 C 85.88994598388672 56.17134475708008 87 50.67128753662109 87 45 C 87 39.32871246337891 85.88994598388672 33.82865524291992 83.70066070556641 28.65262985229492 C 81.58542633056641 23.65165710449219 78.55665588378906 19.15968322753906 74.698486328125 15.301513671875 C 70.84031677246094 11.44334411621094 66.34834289550781 8.414573669433594 61.34737396240234 6.299339294433594 C 56.17134475708008 4.110054016113281 50.67128753662109 3 45 3 M 45 0 C 69.85281372070312 0 90 20.14718627929688 90 45 C 90 69.85281372070312 69.85281372070312 90 45 90 C 20.14718627929688 90 0 69.85281372070312 0 45 C 0 20.14718627929688 20.14718627929688 0 45 0 Z" stroke="none" fill="#2a5673"/>
      </g>
    </g>
    <g id="Grupo_1143791" data-name="Grupo 1143791" transform="translate(225 395)">
      <g id="Grupo_1143790" data-name="Grupo 1143790" transform="translate(0.497 0.879)">
        <g id="Grupo_1143786" data-name="Grupo 1143786" transform="translate(0 9.035)">
          <circle id="Elipse_11551" data-name="Elipse 11551" cx="3.088" cy="3.088" r="3.088" transform="translate(6.58)" fill="#c3ddff"/>
          <path id="Trazado_978751" data-name="Trazado 978751" d="M27.578,272.642c-.538,0-1.049.3-1.572.268a7.857,7.857,0,0,1-6.282-7.7V265.2l7.854-.545,7.275.562C34.853,269.551,31.915,272.642,27.578,272.642Z" transform="translate(-17.91 -243.552)" fill="#dbe9ff"/>
          <path id="Trazado_978752" data-name="Trazado 978752" d="M82.755,265.195v.017a7.86,7.86,0,0,1-9.426,7.7,7.858,7.858,0,0,0,6.281-7.7v-.017l1.64-.545Z" transform="translate(-65.233 -243.55)" fill="#c3ddff"/>
          <path id="Trazado_978753" data-name="Trazado 978753" d="M22.957,247.892l-4.338.224H4.66a.419.419,0,0,1-.419-.419v-1.973a.419.419,0,0,1,.419-.419H18.618l4.264.215a.419.419,0,0,1,.419.419l.074,1.534A.419.419,0,0,1,22.957,247.892Z" transform="translate(-4.241 -226.471)" fill="#c3ddff"/>
          <path id="Trazado_978754" data-name="Trazado 978754" d="M131.887,245.722V247.7a.419.419,0,0,1-.419.419h-4.539V245.3h4.539A.419.419,0,0,1,131.887,245.722Z" transform="translate(-112.551 -226.47)" fill="#a4ccff"/>
        </g>
        <g id="Grupo_1143787" data-name="Grupo 1143787" transform="translate(39.67 9.035)">
          <circle id="Elipse_11552" data-name="Elipse 11552" cx="3.088" cy="3.088" r="3.088" transform="translate(6.579)" fill="#c3ddff"/>
          <path id="Trazado_978755" data-name="Trazado 978755" d="M366.094,272.642c-.538,0-1.049.3-1.572.268a7.857,7.857,0,0,1-6.282-7.7V265.2l7.854-.545,7.275.562C373.369,269.551,370.431,272.642,366.094,272.642Z" transform="translate(-356.426 -243.552)" fill="#dbe9ff"/>
          <path id="Trazado_978756" data-name="Trazado 978756" d="M421.271,265.195v.017a7.86,7.86,0,0,1-9.425,7.7,7.858,7.858,0,0,0,6.281-7.7v-.017l1.64-.545Z" transform="translate(-403.749 -243.55)" fill="#c3ddff"/>
          <path id="Trazado_978757" data-name="Trazado 978757" d="M361.474,247.892l-4.338.224H343.177a.419.419,0,0,1-.419-.419v-1.973a.419.419,0,0,1,.419-.419h13.958l4.264.215a.419.419,0,0,1,.419.419l.074,1.534A.419.419,0,0,1,361.474,247.892Z" transform="translate(-342.758 -226.471)" fill="#c3ddff"/>
          <path id="Trazado_978758" data-name="Trazado 978758" d="M470.4,245.722V247.7a.419.419,0,0,1-.419.419h-4.539V245.3h4.539A.419.419,0,0,1,470.4,245.722Z" transform="translate(-451.067 -226.47)" fill="#a4ccff"/>
        </g>
        <path id="Trazado_978759" data-name="Trazado 978759" d="M197.665,129.856a.353.353,0,0,1-.352-.364c.149-4.618,3.136-6.956,5.78-9.025,2.744-2.148,4.425-3.616,4.425-6.6s-1.682-4.449-4.425-6.6c-2.712-2.123-5.785-4.529-5.785-9.389s3.074-7.266,5.785-9.389c2.741-2.145,4.422-3.612,4.425-6.587a1.764,1.764,0,0,1,1.278-1.715c1.192-.323,1.5.566,1.5,1.706,0,4.86-2.676,7.077-5.022,9.388-2.744,2.148-4.425,3.615-4.425,6.6,0,2.8,1.488,4.27,3.949,6.222.155.123.389.377.552.5,2.571,2.4,5.245,4.388,5.245,9.248,0,3.828-1.824,6.014-3.576,7.989-.576.5-1.168.961-1.744,1.411-2.638,2.065-4.295,3.5-4.418,6.26a.352.352,0,0,1-.351.337h-2.845Z" transform="translate(-174.682 -71.615)" fill="#bbec6c"/>
        <path id="Trazado_978760" data-name="Trazado 978760" d="M275.159,81.9a1.776,1.776,0,0,0-2.268-1.705,1.686,1.686,0,0,0-.683.37,1.767,1.767,0,0,1,.607,1.335,13.021,13.021,0,0,1-2.9,8.487,2.138,2.138,0,0,0,.273.262C272.663,88.665,275.159,86.279,275.159,81.9Z" transform="translate(-238.778 -71.616)" fill="#a0e254"/>
        <path id="Trazado_978761" data-name="Trazado 978761" d="M207.86,129.858a.352.352,0,0,1-.35-.337c-.123-2.758-1.78-4.195-4.418-6.26-2.712-2.123-5.785-4.529-5.785-9.389s3.074-7.266,5.785-9.389c2.744-2.148,4.425-3.616,4.425-6.6s-1.682-4.449-4.425-6.6c-2.7-2.113-5.757-4.507-5.785-9.322a1.809,1.809,0,0,1,1.709-1.838,1.773,1.773,0,0,1,1.837,1.772c0,2.784,1.466,4.249,3.895,6.179.172.137.364.348.546.49,2.673,2.452,5.173,4.515,5.173,9.375s-2.846,7.048-5.188,9.331c-2.744,2.148-4.425,3.616-4.425,6.6s1.682,4.449,4.425,6.6c2.643,2.069,5.63,4.407,5.78,9.025a.353.353,0,0,1-.352.364H207.86Z" transform="translate(-174.681 -71.616)" fill="#fe7f86"/>
        <path id="Trazado_978762" data-name="Trazado 978762" d="M266.259,157.108c0,4.86-3.073,7.267-5.786,9.389l-.378.3a16.463,16.463,0,0,0,4.055-10.467c0-4.433-2.075-7.027-4.32-9.117.207.166.422.335.643.509C263.186,149.841,266.259,152.248,266.259,157.108Z" transform="translate(-229.878 -130.838)" fill="#f76d7b"/>
        <g id="Grupo_1143788" data-name="Grupo 1143788" transform="translate(26.686 31.995)">
          <path id="Trazado_978763" data-name="Trazado 978763" d="M234.778,285.056c-.342-.282-.708-.571-1.093-.873-.57-.445-1.155-.9-1.725-1.4l.229-2.267h2.589c.342.281.705.57,1.091.871.571.447,1.157.906,1.727,1.4l-.173,2.269Z" transform="translate(-231.96 -280.52)" fill="#bbec6c"/>
        </g>
        <path id="Trazado_978764" data-name="Trazado 978764" d="M210.4,16.768V15.135a6.211,6.211,0,0,0-5.765-6.459c-.4,0-1.172-.326-1.621-.319a6.879,6.879,0,0,0-5.706,6.777v1.452Z" transform="translate(-174.682 -8.257)" fill="#bbec6c"/>
        <path id="Trazado_978765" data-name="Trazado 978765" d="M254.05,14.378v1.634l-2.344-.03v-1.6A6.877,6.877,0,0,0,246,7.6a6.778,6.778,0,0,1,1.172-.1A6.878,6.878,0,0,1,254.05,14.378Z" transform="translate(-217.669 -7.5)" fill="#a0e254"/>
        <path id="Trazado_978766" data-name="Trazado 978766" d="M266.259,293.528c0,3.839-1.917,6.146-4.059,7.993,1.417-2.288,1.95-5.617,1.95-8.774,0-4.433-2.075-7.026-4.32-9.117.207.166.422.335.643.509C263.186,286.261,266.259,288.668,266.259,293.528Z" transform="translate(-229.878 -251.271)" fill="#a0e254"/>
        <circle id="Elipse_11553" data-name="Elipse 11553" cx="3.439" cy="3.439" r="3.439" transform="translate(26.064 3.439)" fill="#f2f2f2"/>
        <g id="Grupo_1143789" data-name="Grupo 1143789" transform="translate(3.43 7.137)">
          <path id="Trazado_978767" data-name="Trazado 978767" d="M84.01,72.33l-2.158.348H34.684a1.172,1.172,0,0,1-1.172-1.172V69.576A1.172,1.172,0,0,1,34.684,68.4H81.851l2.354.306a1.172,1.172,0,0,1,1.172,1.172l-.2,1.277A1.172,1.172,0,0,1,84.01,72.33Z" transform="translate(-33.512 -68.404)" fill="#807782"/>
          <path id="Trazado_978768" data-name="Trazado 978768" d="M449.814,69.572V71.5a1.172,1.172,0,0,1-1.172,1.172h-2.634V68.4h2.634A1.172,1.172,0,0,1,449.814,69.572Z" transform="translate(-397.669 -68.4)" fill="#6f6571"/>
        </g>
      </g>
      <path id="Trazado_978769" data-name="Trazado 978769" d="M58.652,28.031h-.908L51.252,16.785a3.915,3.915,0,0,0,2.552-3.6h1.1a2.053,2.053,0,0,0,2.051-2.051V9.055A2.053,2.053,0,0,0,54.9,7H37.72A7.756,7.756,0,0,0,22.28,7H11.55a.879.879,0,0,0,0,1.758H54.9a.293.293,0,0,1,.293.293v2.078a.293.293,0,0,1-.293.293H5.1a.293.293,0,0,1-.293-.293V9.055A.293.293,0,0,1,5.1,8.762H7.449A.879.879,0,1,0,7.449,7H5.1A2.053,2.053,0,0,0,3.048,9.055v2.078A2.053,2.053,0,0,0,5.1,13.184H6.306a3.914,3.914,0,0,0,2.508,3.585L2.214,28.2H1.348A1.349,1.349,0,0,0,0,29.548v2.109A1.349,1.349,0,0,0,1.348,33h.636a8.307,8.307,0,0,0,16.4,0h.691a1.349,1.349,0,0,0,1.348-1.348V29.548A1.349,1.349,0,0,0,19.078,28.2h-.92l-6.59-11.415a3.915,3.915,0,0,0,2.552-3.6h8.3a10.824,10.824,0,0,0,3.449,5.968,10.617,10.617,0,0,0,0,15.987,10.617,10.617,0,0,0,0,15.986,10.518,10.518,0,0,0-3.628,8,.879.879,0,1,0,1.758,0,8.836,8.836,0,0,1,3.2-6.831c.378.309.845.677,1.423,1.13a7.192,7.192,0,0,0-2.835,5.7.879.879,0,0,0,1.758,0,5.954,5.954,0,0,1,.064-.879h4.779a5.8,5.8,0,0,1,.064.88.879.879,0,0,0,1.758,0c0-3.321-1.8-4.969-4.763-7.289-2.679-2.1-5.448-4.265-5.448-8.7A8.842,8.842,0,0,1,27.2,36.3c.379.309.844.676,1.423,1.129a7.182,7.182,0,0,0-2.837,5.7c0,3.321,1.8,4.969,4.763,7.289,2.679,2.1,5.448,4.265,5.448,8.7a.879.879,0,0,0,1.758,0,10.505,10.505,0,0,0-3.631-7.992,13.24,13.24,0,0,0,1.886-2.175.879.879,0,0,0-1.454-.988,11.749,11.749,0,0,1-1.761,2c-.379-.309-.843-.675-1.423-1.129a7.185,7.185,0,0,0,2.837-5.7c0-3.321-1.8-4.969-4.763-7.289C26.771,33.748,24,31.58,24,27.148a8.85,8.85,0,0,1,3.2-6.831c.379.31.845.677,1.423,1.129a7.166,7.166,0,0,0-2.835,5.7c0,3.321,1.8,4.969,4.763,7.289C33.23,36.534,36,38.7,36,43.134a9.667,9.667,0,0,1-.094,1.365.879.879,0,1,0,1.74.249,11.451,11.451,0,0,0,.112-1.614,10.5,10.5,0,0,0-3.628-7.989,10.618,10.618,0,0,0,0-15.986,10.812,10.812,0,0,0,3.45-5.974h8.411A3.914,3.914,0,0,0,48.5,16.769l-6.5,11.263H41.14a1.349,1.349,0,0,0-1.348,1.348v2.109a1.349,1.349,0,0,0,1.348,1.348h.618A8.248,8.248,0,0,0,47.6,39.412a.879.879,0,0,0,.484-1.69,6.484,6.484,0,0,1-4.541-4.886H56.193a6.492,6.492,0,0,1-4.5,4.874.879.879,0,1,0,.5,1.687,8.258,8.258,0,0,0,5.79-6.56h.671A1.349,1.349,0,0,0,60,31.489V29.379a1.349,1.349,0,0,0-1.348-1.348ZM30,1.758A6.007,6.007,0,0,1,35.95,7h-1.7a4.317,4.317,0,0,0-8.5,0h-1.7A6.007,6.007,0,0,1,30,1.758ZM32.447,7H27.553a2.56,2.56,0,0,1,4.894,0Zm-4.2,49.479A8.679,8.679,0,0,1,30,54.546a8.649,8.649,0,0,1,1.746,1.937Zm3.5-15.984h-3.5A8.679,8.679,0,0,1,30,38.559,8.638,8.638,0,0,1,31.748,40.5Zm-4.2,2.637a6,6,0,0,1,.064-.879h4.78a5.8,5.8,0,0,1,.064.877,5.977,5.977,0,0,1-.064.881H27.61a5.8,5.8,0,0,1-.064-.879Zm.707,2.637h3.5A8.685,8.685,0,0,1,30,47.709,8.641,8.641,0,0,1,28.253,45.772ZM55.715,28.031H50.748v-8.6ZM30,15.735a7.4,7.4,0,0,1-2.071-2.552h4.14A7.286,7.286,0,0,1,30,15.735ZM9.307,19.429V28.2H4.243Zm9.361,11.818h-3.1a.879.879,0,1,0,0,1.758H16.6A6.549,6.549,0,0,1,3.77,33h7.694a.879.879,0,0,0,0-1.758H1.758V29.958h16.91Zm-7.6-3.047V19.429L16.129,28.2Zm-.852-12.93a2.152,2.152,0,0,1-2.148-2.087h4.3a2.152,2.152,0,0,1-2.148,2.087Zm21.534,9.242h-3.5A8.663,8.663,0,0,1,30,22.573,8.645,8.645,0,0,1,31.747,24.512ZM30,31.723a8.647,8.647,0,0,1-1.746-1.937h3.5A8.68,8.68,0,0,1,30,31.723Zm2.454-4.574a5.954,5.954,0,0,1-.064.879H27.611a5.966,5.966,0,0,1,0-1.758H32.39A5.8,5.8,0,0,1,32.454,27.149Zm3.545,0a8.842,8.842,0,0,1-3.2,6.831c-.378-.309-.845-.677-1.424-1.13a7.191,7.191,0,0,0,2.835-5.7c0-3.322-1.8-4.97-4.763-7.29-2.233-1.748-4.534-3.551-5.233-6.676h1.846c.614,2.1,2.207,3.482,4.489,5.268,2.679,2.1,5.449,4.265,5.449,8.7Zm-3.2-9.155c-.378-.309-.845-.676-1.423-1.13a7.886,7.886,0,0,0,2.56-3.681h1.847A9.249,9.249,0,0,1,32.8,17.994Zm14.949-4.811h4.3a2.149,2.149,0,0,1-4.3,0Zm1.242,6.246v8.6H44.024Zm9.252,11.649H41.55V29.789H58.242Z" transform="translate(0 0)"/>
    </g>
  </g>
</svg>
