<svg xmlns="http://www.w3.org/2000/svg" xmlns:xlink="http://www.w3.org/1999/xlink" width="108" height="108" viewBox="0 0 108 108">
  <defs>
    <filter id="Trazado_904820" x="0" y="0" width="108" height="108" filterUnits="userSpaceOnUse">
      <feOffset dy="3" input="SourceAlpha"/>
      <feGaussianBlur stdDeviation="3" result="blur"/>
      <feFlood flood-opacity="0.161"/>
      <feComposite operator="in" in2="blur"/>
      <feComposite in="SourceGraphic"/>
    </filter>
  </defs>
  <g id="Grupo_1143785" data-name="Grupo 1143785" transform="translate(-306 -3871)">
    <g transform="matrix(1, 0, 0, 1, 306, 3871)" filter="url(#Trazado_904820)">
      <g id="Trazado_904820-2" data-name="Trazado 904820" transform="translate(9 6)" fill="#ecf4fa">
        <path d="M 45 88.5 C 39.12687683105469 88.5 33.43022537231445 87.35007476806641 28.06830024719238 85.08217620849609 C 22.88852500915527 82.89131164550781 18.23629951477051 79.75458526611328 14.2408504486084 75.75914764404297 C 10.24541282653809 71.76370239257812 7.108687400817871 67.11147308349609 4.917825222015381 61.93170166015625 C 2.649924993515015 56.56977462768555 1.5 50.87312316894531 1.5 45 C 1.5 39.12687683105469 2.649924993515015 33.43022537231445 4.917825222015381 28.06830024719238 C 7.108687400817871 22.88852500915527 10.24541282653809 18.23629951477051 14.2408504486084 14.2408504486084 C 18.23629951477051 10.24541282653809 22.88852500915527 7.108687400817871 28.06830024719238 4.917825222015381 C 33.43022537231445 2.649924993515015 39.12687683105469 1.5 45 1.5 C 50.87312316894531 1.5 56.56977462768555 2.649924993515015 61.93170166015625 4.917825222015381 C 67.11147308349609 7.108687400817871 71.76370239257812 10.24541282653809 75.75914764404297 14.2408504486084 C 79.75458526611328 18.23629951477051 82.89131164550781 22.88852500915527 85.08217620849609 28.06830024719238 C 87.35007476806641 33.43022537231445 88.5 39.12687683105469 88.5 45 C 88.5 50.87312316894531 87.35007476806641 56.56977462768555 85.08217620849609 61.93170166015625 C 82.89131164550781 67.11147308349609 79.75458526611328 71.76370239257812 75.75914764404297 75.75914764404297 C 71.76370239257812 79.75458526611328 67.11147308349609 82.89131164550781 61.93170166015625 85.08217620849609 C 56.56977462768555 87.35007476806641 50.87312316894531 88.5 45 88.5 Z" stroke="none"/>
        <path d="M 45 3 C 39.32871246337891 3 33.82865524291992 4.110054016113281 28.65262985229492 6.299339294433594 C 23.65165710449219 8.414573669433594 19.15968322753906 11.44334411621094 15.301513671875 15.301513671875 C 11.44334411621094 19.15968322753906 8.414573669433594 23.65165710449219 6.299339294433594 28.65262985229492 C 4.110054016113281 33.82865524291992 3 39.32871246337891 3 45 C 3 50.67128753662109 4.110054016113281 56.17134475708008 6.299339294433594 61.34737396240234 C 8.414573669433594 66.34834289550781 11.44334411621094 70.84031677246094 15.301513671875 74.698486328125 C 19.15968322753906 78.55665588378906 23.65165710449219 81.58542633056641 28.65262985229492 83.70066070556641 C 33.82865524291992 85.88994598388672 39.32871246337891 87 45 87 C 50.67128753662109 87 56.17134475708008 85.88994598388672 61.34737396240234 83.70066070556641 C 66.34834289550781 81.58542633056641 70.84031677246094 78.55665588378906 74.698486328125 74.698486328125 C 78.55665588378906 70.84031677246094 81.58542633056641 66.34834289550781 83.70066070556641 61.34737396240234 C 85.88994598388672 56.17134475708008 87 50.67128753662109 87 45 C 87 39.32871246337891 85.88994598388672 33.82865524291992 83.70066070556641 28.65262985229492 C 81.58542633056641 23.65165710449219 78.55665588378906 19.15968322753906 74.698486328125 15.301513671875 C 70.84031677246094 11.44334411621094 66.34834289550781 8.414573669433594 61.34737396240234 6.299339294433594 C 56.17134475708008 4.110054016113281 50.67128753662109 3 45 3 M 45 0 C 69.85281372070312 0 90 20.14718627929688 90 45 C 90 69.85281372070312 69.85281372070312 90 45 90 C 20.14718627929688 90 0 69.85281372070312 0 45 C 0 20.14718627929688 20.14718627929688 0 45 0 Z" stroke="none" fill="#2a5673"/>
      </g>
    </g>
    <g id="Grupo_1143784" data-name="Grupo 1143784" transform="translate(334 3894)">
      <path id="Trazado_978720" data-name="Trazado 978720" d="M56.511,72H9.866A1.866,1.866,0,0,0,8,73.866v27.987H58.377V73.866A1.866,1.866,0,0,0,56.511,72Zm0,0" transform="translate(-7.067 -63.604)" fill="#75c1ff"/>
      <path id="Trazado_978721" data-name="Trazado 978721" d="M58.377,328H8v7.463a1.866,1.866,0,0,0,1.866,1.866H56.511a1.866,1.866,0,0,0,1.866-1.866Zm0,0" transform="translate(-7.067 -289.751)" fill="#efefef"/>
      <path id="Trazado_978722" data-name="Trazado 978722" d="M187.195,408H176v7.463h11.195Zm0,0" transform="translate(-155.476 -360.422)" fill="#bcbcbc"/>
      <path id="Trazado_978723" data-name="Trazado 978723" d="M80.256,8H57.866A1.866,1.866,0,0,0,56,9.866V39.719a1.866,1.866,0,0,0,1.866,1.866h22.39a1.866,1.866,0,0,0,1.866-1.866V9.866A1.866,1.866,0,0,0,80.256,8Zm0,0" transform="translate(-36.409 -7.067)" fill="#efefef"/>
      <path id="Trazado_978724" data-name="Trazado 978724" d="M293.061,32H281.866A1.866,1.866,0,0,0,280,33.866V54.39a1.866,1.866,0,0,0,1.866,1.866h11.195Zm0,0" transform="translate(-273.47 -28.268)" fill="#d6d6d6"/>
      <path id="Trazado_978725" data-name="Trazado 978725" d="M125.061,51.732h-3.732V48h-5.6v3.732H112v5.6h3.732v3.732h5.6V57.329h3.732Zm0,0" transform="translate(-85.879 -42.403)" fill="#e65d52"/>
      <path id="Trazado_978726" data-name="Trazado 978726" d="M218.8,192h-1.866a.933.933,0,0,0-.933.933V194.8a.933.933,0,0,0,.933.933H218.8a.933.933,0,0,0,.933-.933v-1.866A.933.933,0,0,0,218.8,192Zm0,0" transform="translate(-192.677 -169.61)" fill="#ffd04a"/>
      <path id="Trazado_978727" data-name="Trazado 978727" d="M315.732,64h-1.866A1.866,1.866,0,0,0,312,65.866v1.866a1.866,1.866,0,0,0,1.866,1.866h1.866a1.866,1.866,0,0,0,1.866-1.866V65.866A1.866,1.866,0,0,0,315.732,64Zm0,0" transform="translate(-301.738 -56.537)" fill="#73c97c"/>
      <path id="Trazado_978728" data-name="Trazado 978728" d="M2.8,64h.933v1.866H2.8a.934.934,0,0,0-.933.933V93.853H50.377V66.8a.934.934,0,0,0-.933-.933h-.933V64h.933a2.8,2.8,0,0,1,2.8,2.8v35.488a2.8,2.8,0,0,1-2.8,2.8H2.8a2.8,2.8,0,0,1-2.8-2.8V66.8A2.8,2.8,0,0,1,2.8,64Zm0,39.22H49.444a.934.934,0,0,0,.933-.933V95.719H1.866v6.568A.934.934,0,0,0,2.8,103.22Zm0,0" transform="translate(0 -56.537)"/>
      <path id="Trazado_978729" data-name="Trazado 978729" d="M146.8,432h1.866v3.732h9.329V432h1.866v3.732h2.8V437.6H144v-1.866h2.8Zm0,0" transform="translate(-127.208 -381.623)"/>
      <path id="Trazado_978730" data-name="Trazado 978730" d="M208,353.866A1.866,1.866,0,1,0,209.866,352,1.866,1.866,0,0,0,208,353.866Zm0,0" transform="translate(-183.744 -310.952)"/>
      <path id="Trazado_978731" data-name="Trazado 978731" d="M73.189,35.451H50.8a2.8,2.8,0,0,1-2.8-2.8V2.8A2.8,2.8,0,0,1,50.8,0h22.39a2.8,2.8,0,0,1,2.8,2.8V32.652A2.8,2.8,0,0,1,73.189,35.451ZM74.121,2.8a.934.934,0,0,0-.933-.933H50.8a.934.934,0,0,0-.933.933V32.652a.934.934,0,0,0,.933.933h22.39a.934.934,0,0,0,.933-.933Zm0,0" transform="translate(-29.342)"/>
      <path id="Trazado_978732" data-name="Trazado 978732" d="M304,47.323V26.8a2.8,2.8,0,0,1,2.8-2.8h8.4v1.866h-8.4a.934.934,0,0,0-.933.933V47.323a.934.934,0,0,0,.933.933h8.4v1.866h-8.4A2.8,2.8,0,0,1,304,47.323Zm0,0" transform="translate(-298.403 -21.201)"/>
      <path id="Trazado_978733" data-name="Trazado 978733" d="M213.6,185.866v1.866a1.868,1.868,0,0,1-1.866,1.866h-1.866A1.868,1.868,0,0,1,208,187.732v-1.866A1.868,1.868,0,0,1,209.866,184h1.866A1.868,1.868,0,0,1,213.6,185.866Zm-3.733,1.866h1.867v-1.866h-1.866Zm0,0" transform="translate(-185.61 -162.543)"/>
      <path id="Trazado_978734" data-name="Trazado 978734" d="M81.866,184H80v1.866h1.866Zm0,0" transform="translate(-38.952 -162.543)"/>
      <path id="Trazado_978735" data-name="Trazado 978735" d="M117.6,184H112v1.866h5.6Zm0,0" transform="translate(-78.415 -162.543)"/>
      <path id="Trazado_978736" data-name="Trazado 978736" d="M177.866,184H176v1.866h1.866Zm0,0" transform="translate(-146.147 -162.543)"/>
      <path id="Trazado_978737" data-name="Trazado 978737" d="M81.866,216H80v1.866h1.866Zm0,0" transform="translate(-38.952 -190.811)"/>
      <path id="Trazado_978738" data-name="Trazado 978738" d="M117.6,216H112v1.866h5.6Zm0,0" transform="translate(-78.415 -190.811)"/>
      <path id="Trazado_978739" data-name="Trazado 978739" d="M177.866,216H176v1.866h1.866Zm0,0" transform="translate(-146.147 -190.811)"/>
      <path id="Trazado_978740" data-name="Trazado 978740" d="M81.866,248H80v1.866h1.866Zm0,0" transform="translate(-38.952 -219.08)"/>
      <path id="Trazado_978741" data-name="Trazado 978741" d="M125.061,248H112v1.866h13.061Zm0,0" transform="translate(-85.879 -219.08)"/>
      <path id="Trazado_978742" data-name="Trazado 978742" d="M241.866,248H240v1.866h1.866Zm0,0" transform="translate(-217.61 -219.08)"/>
      <path id="Trazado_978743" data-name="Trazado 978743" d="M115.195,54.927h-7.463V51.195H104V43.732h3.732V40h7.463v3.732h3.732v7.463h-3.732Zm1.866-5.6V45.6h-3.732V41.866H109.6V45.6h-3.732v3.732H109.6v3.732h3.732V49.329Zm0,0" transform="translate(-78.811 -35.335)"/>
      <path id="Trazado_978744" data-name="Trazado 978744" d="M308.665,63.463H306.8a2.8,2.8,0,0,1-2.8-2.8V58.8a2.8,2.8,0,0,1,2.8-2.8h1.866a2.8,2.8,0,0,1,2.8,2.8v1.866A2.8,2.8,0,0,1,308.665,63.463ZM309.6,58.8a.934.934,0,0,0-.933-.933H306.8a.934.934,0,0,0-.933.933v1.866a.934.934,0,0,0,.933.933h1.866a.934.934,0,0,0,.933-.933Zm0,0" transform="translate(-294.671 -49.47)"/>
      <path id="Trazado_978745" data-name="Trazado 978745" d="M305.866,136H304v1.866h1.866Zm0,0" transform="translate(-289.073 -120.141)"/>
      <path id="Trazado_978746" data-name="Trazado 978746" d="M339.732,136H336v1.866h3.732Zm0,0" transform="translate(-326.671 -120.141)"/>
      <path id="Trazado_978747" data-name="Trazado 978747" d="M305.866,168H304v1.866h1.866Zm0,0" transform="translate(-289.073 -148.409)"/>
      <path id="Trazado_978748" data-name="Trazado 978748" d="M339.732,168H336v1.866h3.732Zm0,0" transform="translate(-326.671 -148.409)"/>
      <path id="Trazado_978749" data-name="Trazado 978749" d="M305.866,200H304v1.866h1.866Zm0,0" transform="translate(-289.073 -176.677)"/>
      <path id="Trazado_978750" data-name="Trazado 978750" d="M339.732,200H336v1.866h3.732Zm0,0" transform="translate(-326.671 -176.677)"/>
    </g>
  </g>
</svg>
