<svg xmlns="http://www.w3.org/2000/svg" xmlns:xlink="http://www.w3.org/1999/xlink" width="108" height="108" viewBox="0 0 108 108">
  <defs>
    <filter id="Fondo" x="0" y="0" width="108" height="108" filterUnits="userSpaceOnUse">
      <feOffset dy="3" input="SourceAlpha"/>
      <feGaussianBlur stdDeviation="3" result="blur"/>
      <feFlood flood-opacity="0.161"/>
      <feComposite operator="in" in2="blur"/>
      <feComposite in="SourceGraphic"/>
    </filter>
  </defs>
  <g id="_14" data-name="14" transform="translate(-326 -1493)">
    <g transform="matrix(1, 0, 0, 1, 326, 1493)" filter="url(#Fondo)">
      <g id="Fondo-2" data-name="Fondo" transform="translate(9 6)" fill="#fffbe8" stroke="#bca724" stroke-width="3">
        <circle cx="45" cy="45" r="45" stroke="none"/>
        <circle cx="45" cy="45" r="43.5" fill="none"/>
      </g>
    </g>
    <g id="Grupo_1143728" data-name="Grupo 1143728" transform="translate(355.69 1514.732)">
      <g id="Grupo_1143711" data-name="Grupo 1143711" transform="translate(40.64 0.796)">
        <path id="Trazado_978657" data-name="Trazado 978657" d="M389.234,12.383l-.958-3.677A1.6,1.6,0,0,0,385.6,7.98L381.5,12.089a1.6,1.6,0,0,0-.41,1.553l1.492,5.4Z" transform="translate(-381.028 -7.512)" fill="#5a5a5a"/>
      </g>
      <g id="Grupo_1143712" data-name="Grupo 1143712" transform="translate(42.189 5.667)">
        <path id="Trazado_978658" data-name="Trazado 978658" d="M402.311,53.493l3.677.958a1.6,1.6,0,0,1,.726,2.671l-4.109,4.109a1.6,1.6,0,0,1-1.553.41l-5.4-1.492Z" transform="translate(-395.655 -53.493)" fill="#5a5a5a"/>
      </g>
      <g id="Grupo_1143713" data-name="Grupo 1143713" transform="translate(45.483 6.258)">
        <path id="Trazado_978659" data-name="Trazado 978659" d="M434.516,62.111l-4.109,4.109a1.6,1.6,0,0,1-1.553.41l-2.1-.58a1.661,1.661,0,0,0,1.228-.485l4.279-4.277a1.662,1.662,0,0,0,.123-2.214l1.41.368A1.594,1.594,0,0,1,434.516,62.111Z" transform="translate(-426.751 -59.073)" fill="#444"/>
      </g>
      <g id="Grupo_1143714" data-name="Grupo 1143714" transform="translate(1.104 7.911)">
        <circle id="Elipse_11552" data-name="Elipse 11552" cx="22.781" cy="22.781" r="22.781" fill="#ee6161"/>
      </g>
      <g id="Grupo_1143715" data-name="Grupo 1143715" transform="translate(9.516 11.792)">
        <path id="Trazado_978660" data-name="Trazado 978660" d="M124.372,130.213a22.781,22.781,0,0,1-37.151,17.678,22.782,22.782,0,0,0,27.093-36.578,22.759,22.759,0,0,1,10.058,18.9Z" transform="translate(-87.221 -111.313)" fill="#e94444"/>
      </g>
      <g id="Grupo_1143716" data-name="Grupo 1143716" transform="translate(7.174 13.981)">
        <circle id="Elipse_11553" data-name="Elipse 11553" cx="16.711" cy="16.711" r="16.711" fill="#f9f7f8"/>
      </g>
      <g id="Grupo_1143717" data-name="Grupo 1143717" transform="translate(13.601 16.355)">
        <path id="Trazado_978661" data-name="Trazado 978661" d="M152.777,168.73a16.712,16.712,0,0,1-27,13.172,16.713,16.713,0,0,0,18.877-27.509A16.706,16.706,0,0,1,152.777,168.73Z" transform="translate(-125.781 -154.393)" fill="#efedef"/>
      </g>
      <g id="Grupo_1143718" data-name="Grupo 1143718" transform="translate(13.275 20.081)">
        <circle id="Elipse_11554" data-name="Elipse 11554" cx="10.611" cy="10.611" r="10.611" fill="#ee6161"/>
      </g>
      <g id="Grupo_1143719" data-name="Grupo 1143719" transform="translate(17.009 21.288)">
        <path id="Trazado_978662" data-name="Trazado 978662" d="M175.438,210.366a10.61,10.61,0,0,1-17.487,8.08,10.611,10.611,0,0,0,11.794-17.484A10.605,10.605,0,0,1,175.438,210.366Z" transform="translate(-157.951 -200.963)" fill="#e94444"/>
      </g>
      <g id="Grupo_1143720" data-name="Grupo 1143720" transform="translate(19.068 25.875)">
        <circle id="Elipse_11555" data-name="Elipse 11555" cx="4.817" cy="4.817" r="4.817" fill="#f9f7f8"/>
      </g>
      <g id="Grupo_1143721" data-name="Grupo 1143721" transform="translate(20.116 26.331)">
        <path id="Trazado_978663" data-name="Trazado 978663" d="M195.868,252.924a4.817,4.817,0,0,1-8.587,3,4.817,4.817,0,0,0,5.816-7.36A4.816,4.816,0,0,1,195.868,252.924Z" transform="translate(-187.281 -248.563)" fill="#efedef"/>
      </g>
      <g id="Grupo_1143722" data-name="Grupo 1143722" transform="translate(1.104 38.548)">
        <circle id="Elipse_11556" data-name="Elipse 11556" cx="7.463" cy="7.463" r="7.463" transform="translate(0)" fill="#57be92"/>
      </g>
      <g id="Grupo_1143723" data-name="Grupo 1143723" transform="translate(3.804 39.205)">
        <path id="Trazado_978664" data-name="Trazado 978664" d="M45.517,376.908a7.464,7.464,0,0,1-12.226,5.746A7.464,7.464,0,0,0,41.123,370.1,7.464,7.464,0,0,1,45.517,376.908Z" transform="translate(-33.291 -370.103)" fill="#09a76d"/>
      </g>
      <g id="Grupo_1143727" data-name="Grupo 1143727" transform="translate(0.31 0)">
        <g id="Grupo_1143724" data-name="Grupo 1143724" transform="translate(3.931 42.605)">
          <path id="Trazado_978665" data-name="Trazado 978665" d="M45.609,402.583a1.439,1.439,0,0,0-2.034.082l-2.48,2.688a.27.27,0,0,1-.4,0l-.776-.841a1.443,1.443,0,0,0-2.126,1.952l1.816,1.988a1.72,1.72,0,0,0,2.534.006l3.543-3.841A1.439,1.439,0,0,0,45.609,402.583Z" transform="translate(-37.42 -402.202)" fill="#f9f7f8"/>
        </g>
        <g id="Grupo_1143725" data-name="Grupo 1143725" transform="translate(6.011 42.606)">
          <path id="Trazado_978666" data-name="Trazado 978666" d="M63.243,404.621,59.7,408.462a1.72,1.72,0,0,1-2.534-.006l-.114-.125a1.711,1.711,0,0,0,1.255-.554l3.543-3.841a1.438,1.438,0,0,0,.174-1.72,1.439,1.439,0,0,1,1.219,2.406Z" transform="translate(-57.051 -402.206)" fill="#efedef"/>
        </g>
        <g id="Grupo_1143726" data-name="Grupo 1143726" transform="translate(0 0)">
          <path id="Trazado_978667" data-name="Trazado 978667" d="M54.426,7.542a2.364,2.364,0,0,0-1.7-1.686L49.5,5.016,48.656,1.79a2.39,2.39,0,0,0-4-1.087L40.545,4.811a2.393,2.393,0,0,0-.614,2.326l1.365,4.94-1.355,1.355a23.62,23.62,0,0,0-5.447-3.8.794.794,0,1,0-.716,1.418,22.031,22.031,0,0,1,5.039,3.5l-3.176,3.176A17.5,17.5,0,0,0,7.882,37.784a8.21,8.21,0,0,0-4.2,1.575A22,22,0,0,1,30.424,9.694.794.794,0,1,0,30.9,8.176,23.6,23.6,0,0,0,2.432,40.491,8.256,8.256,0,0,0,.746,48.664a.794.794,0,0,0,1.5-.51,6.675,6.675,0,1,1,1.808,2.77.794.794,0,0,0-1.075,1.171,8.248,8.248,0,0,0,11.1.052A23.575,23.575,0,0,0,41.068,14.553l1.344-1.344,4.963,1.372a2.392,2.392,0,0,0,2.326-.614L53.81,9.858a2.364,2.364,0,0,0,.616-2.316ZM9.66,37.828A15.91,15.91,0,0,1,34.517,18.857l-3.195,3.195a11.425,11.425,0,1,0,1.129,1.118l3.194-3.194a15.91,15.91,0,0,1-18.9,24.94,8.272,8.272,0,0,0-7.09-7.088Zm13.526-6.516a.794.794,0,0,0,1.123,0L27.2,28.419a4.031,4.031,0,1,1-1.14-1.107l-2.877,2.877a.8.8,0,0,0,0,1.124ZM27.2,26.17a5.623,5.623,0,1,0,1.135,1.112L31.325,24.3a9.833,9.833,0,1,1-1.13-1.117Zm15.313-7.158A21.985,21.985,0,0,1,15.219,50.9a8.211,8.211,0,0,0,1.575-4.2A17.5,17.5,0,0,0,36.769,18.853l3.176-3.176A22.1,22.1,0,0,1,42.517,19.012Zm-1.054-12.3a.8.8,0,0,1,.206-.779l4.109-4.109a.77.77,0,0,1,.558-.235.843.843,0,0,1,.219.029.786.786,0,0,1,.565.571l.844,3.236L45.912,7.476a.794.794,0,0,0-.093.079l-3.231,3.231ZM52.686,8.735l-4.109,4.109a.8.8,0,0,1-.779.206l-4.083-1.128,5.37-5.37,3.236.844a.8.8,0,0,1,.364,1.341Z" transform="translate(-0.31 0)"/>
          <path id="Trazado_978668" data-name="Trazado 978668" d="M32.337,402.292a2.521,2.521,0,0,0,1.85.819h.006a2.521,2.521,0,0,0,1.848-.809l3.543-3.841a2.234,2.234,0,1,0-3.284-3.029l-2.094,2.27-.39-.423a2.237,2.237,0,0,0-3.3,3.026Zm-.6-3.974a.649.649,0,0,1,.916.037l.776.841a1.064,1.064,0,0,0,1.564,0l2.479-2.688a.645.645,0,1,1,.948.875l-3.543,3.841a.915.915,0,0,1-.68.3h0a.915.915,0,0,1-.681-.3l-1.816-1.988a.65.65,0,0,1,.039-.914Z" transform="translate(-26.799 -352.901)"/>
        </g>
      </g>
    </g>
  </g>
</svg>
