<svg xmlns="http://www.w3.org/2000/svg" width="857.59" height="662.374" viewBox="0 0 857.59 662.374">
  <g id="_16" data-name="16" transform="translate(-370.776 -2547.813)">
    <g id="Trazado_978991" data-name="Trazado 978991" transform="translate(365 2769)" fill="#fff2ee">
      <path d="M 163.7041320800781 219.5 L 68.29589080810547 219.5 C 64.93821716308594 219.5 61.62465286254883 218.9694671630859 58.44727325439453 217.9231719970703 C 55.34206771850586 216.9006500244141 52.42415618896484 215.4056091308594 49.77462387084961 213.4796752929688 C 47.12509536743164 211.5536956787109 44.80268478393555 209.2395324707031 42.87186050415039 206.6013488769531 C 40.89618301391602 203.9018859863281 39.36909484863281 200.9136962890625 38.3330078125 197.7198791503906 L 8.815389633178711 106.7279357910156 C 7.780801773071289 103.5386734008789 7.262978076934814 100.2277908325195 7.276272296905518 96.88726043701172 C 7.289301872253418 93.62246704101562 7.808184146881104 90.38955688476562 8.81856632232666 87.27840423583984 C 9.828948974609375 84.16722869873047 11.30853748321533 81.24632263183594 13.21624279022217 78.59681701660156 C 15.16818428039551 75.88591003417969 17.53250694274902 73.51102447509766 20.24356651306152 71.53816986083984 L 97.46530151367188 15.34305477142334 C 100.1825637817383 13.36564350128174 103.1767120361328 11.84402561187744 106.3645401000977 10.82043743133545 C 109.4798583984375 9.820114135742188 112.7216873168945 9.312936782836914 116.0000076293945 9.312936782836914 C 119.2783050537109 9.312936782836914 122.5201263427734 9.820114135742188 125.6354522705078 10.82043743133545 C 128.8232727050781 11.84402561187744 131.8174133300781 13.36564350128174 134.5346832275391 15.34305477142334 L 211.7564544677734 71.53816986083984 C 214.4675140380859 73.51102447509766 216.8318328857422 75.88587951660156 218.7837677001953 78.59681701660156 C 220.6914825439453 81.24632263183594 222.1710662841797 84.16719818115234 223.1814422607422 87.27838134765625 C 224.1918334960938 90.38955688476562 224.7107086181641 93.62246704101562 224.7237396240234 96.88726043701172 C 224.7370300292969 100.2277908325195 224.2192077636719 103.5386734008789 223.1846313476562 106.7279357910156 L 193.6669769287109 197.7198791503906 C 192.6309204101562 200.9136962890625 191.1038360595703 203.9018859863281 189.1281280517578 206.6013488769531 C 187.1973266601562 209.2395324707031 184.8748931884766 211.5536956787109 182.2253570556641 213.4796752929688 C 179.5758361816406 215.4056091308594 176.6579437255859 216.9006195068359 173.5527496337891 217.9231719970703 C 170.3753356933594 218.9694671630859 167.0617980957031 219.5 163.7041320800781 219.5 Z" stroke="none"/>
      <path d="M 116.0000076293945 10.81292724609375 C 112.877571105957 10.81292724609375 109.7900085449219 11.29595947265625 106.8231353759766 12.24861145019531 C 103.7874450683594 13.22332763671875 100.9359436035156 14.67251586914062 98.34788513183594 16.55589294433594 L 21.12615966796875 72.75105285644531 C 18.54403686523438 74.63005065917969 16.29231262207031 76.89176940917969 14.43353271484375 79.47329711914062 C 12.61669921875 81.99658203125 11.20753479003906 84.77845764160156 10.24519348144531 87.74171447753906 C 9.282882690429688 90.7049560546875 8.78863525390625 93.78399658203125 8.776260375976562 96.89326477050781 C 8.763565063476562 100.074333190918 9.256790161132812 103.2274932861328 10.24215698242188 106.2650833129883 L 39.75979614257812 197.2570495605469 C 40.74659729003906 200.2989959716797 42.20088195800781 203.1448059082031 44.08229064941406 205.7154541015625 C 45.92109680175781 208.2279357910156 48.13304138183594 210.4319610595703 50.65657043457031 212.2663269042969 C 53.18013000488281 214.1007080078125 55.95913696289062 215.5245819091797 58.91641235351562 216.4984283447266 C 61.94216918945312 217.4947967529297 65.09788513183594 217.9999847412109 68.29588317871094 217.9999847412109 L 163.7041320800781 217.9999847412109 C 166.9021301269531 217.9999847412109 170.0578155517578 217.4947967529297 173.0835723876953 216.4984283447266 C 176.0408477783203 215.5245819091797 178.8198547363281 214.1007080078125 181.3434143066406 212.2663269042969 C 183.866943359375 210.4319610595703 186.0788879394531 208.2279357910156 187.9176940917969 205.7154541015625 C 189.7991027832031 203.1448059082031 191.2533874511719 200.2989959716797 192.2402038574219 197.2570190429688 L 221.7578125 106.2650833129883 C 222.7431945800781 103.2274627685547 223.2364196777344 100.074333190918 223.2237548828125 96.89323425292969 C 223.2113494873047 93.78396606445312 222.7171325683594 90.70492553710938 221.7547912597656 87.74171447753906 C 220.79248046875 84.77845764160156 219.3833160400391 81.99655151367188 217.5664825439453 79.47329711914062 C 215.7077026367188 76.89173889160156 213.4559478759766 74.63005065917969 210.8738250732422 72.75099182128906 L 133.652099609375 16.55589294433594 C 131.0640411376953 14.67251586914062 128.2125396728516 13.22335815429688 125.1768493652344 12.24861145019531 C 122.2099761962891 11.29595947265625 119.122444152832 10.81292724609375 116.0000076293945 10.81292724609375 M 116 7.812942504882812 C 122.8149948120117 7.812942504882812 129.6299743652344 9.918701171875 135.4173278808594 14.13020324707031 L 212.6390380859375 70.32530212402344 C 224.1865692138672 78.72854614257812 229.0182189941406 93.60624694824219 224.6114196777344 107.190803527832 L 195.0937805175781 198.1827392578125 C 190.6806030273438 211.7870483398438 178.0063171386719 220.9999847412109 163.7041320800781 220.9999847412109 L 68.29588317871094 220.9999847412109 C 53.99366760253906 220.9999847412109 41.31938171386719 211.7870483398438 36.90618896484375 198.1827392578125 L 7.388565063476562 107.190803527832 C 2.981796264648438 93.60627746582031 7.813446044921875 78.72854614257812 19.36094665527344 70.32533264160156 L 96.58265686035156 14.13020324707031 C 102.3700256347656 9.918701171875 109.1850128173828 7.812942504882812 116 7.812942504882812 Z" stroke="none" fill="#ff8a60"/>
    </g>
    <g id="Trazado_978992" data-name="Trazado 978992" transform="translate(1002 2769)" fill="#fff2ee">
      <path d="M 163.7039489746094 219.5 L 68.29582977294922 219.5 C 64.93814849853516 219.5 61.6246223449707 218.9694671630859 58.44720840454102 217.9231719970703 C 55.34200286865234 216.9006195068359 52.42412185668945 215.4056091308594 49.77458953857422 213.4796752929688 C 47.12503433227539 211.5536956787109 44.80261993408203 209.2395324707031 42.87179565429688 206.6013488769531 C 40.89612197875977 203.90185546875 39.36903381347656 200.9136962890625 38.33294296264648 197.7198791503906 L 8.815356254577637 106.7279357910156 C 7.780767917633057 103.5386734008789 7.262944221496582 100.2277908325195 7.276268005371094 96.88726043701172 C 7.289268016815186 93.62246704101562 7.80817985534668 90.38955688476562 8.818561553955078 87.27840423583984 C 9.828944206237793 84.16722869873047 11.30853271484375 81.24632263183594 13.2162389755249 78.59681701660156 C 15.16817951202393 75.88591003417969 17.53250312805176 73.51102447509766 20.24353218078613 71.53816986083984 L 97.46517944335938 15.34308433532715 C 100.1824417114258 13.36567211151123 103.1765899658203 11.84405517578125 106.3644409179688 10.82043743133545 C 109.479736328125 9.82014274597168 112.721565246582 9.312936782836914 115.999885559082 9.312936782836914 C 119.2781829833984 9.312936782836914 122.5200347900391 9.82014274597168 125.6353302001953 10.82043743133545 C 128.8231506347656 11.84405517578125 131.8173217773438 13.36567211151123 134.5345916748047 15.34308433532715 L 211.7562408447266 71.53816986083984 C 214.4673004150391 73.51102447509766 216.8316192626953 75.88587951660156 218.7835693359375 78.59681701660156 C 220.6912689208984 81.24632263183594 222.1708526611328 84.16719818115234 223.1812438964844 87.27838134765625 C 224.1916198730469 90.38955688476562 224.7105102539062 93.6224365234375 224.7235260009766 96.88726043701172 C 224.7368316650391 100.2277603149414 224.2190093994141 103.5386428833008 223.1844177246094 106.7279052734375 L 193.6668243408203 197.7198791503906 C 192.6307678222656 200.9136962890625 191.1036834716797 203.90185546875 189.1279754638672 206.6013488769531 C 187.1971740722656 209.2395324707031 184.8747406005859 211.5536956787109 182.2252044677734 213.4796752929688 C 179.57568359375 215.4056091308594 176.6577606201172 216.9006195068359 173.5525665283203 217.9231719970703 C 170.3751525878906 218.9694671630859 167.0616149902344 219.5 163.7039489746094 219.5 Z" stroke="none"/>
      <path d="M 115.999885559082 10.81292724609375 C 112.8774490356445 10.81292724609375 109.7898864746094 11.29595947265625 106.8230133056641 12.24861145019531 C 103.7873229980469 13.22332763671875 100.9358215332031 14.67251586914062 98.34776306152344 16.55589294433594 L 21.12612915039062 72.75105285644531 C 18.54400634765625 74.63005065917969 16.29229736328125 76.89176940917969 14.43351745605469 79.47329711914062 C 12.61666870117188 81.99655151367188 11.20753479003906 84.77845764160156 10.24519348144531 87.74168395996094 C 9.282852172851562 90.70492553710938 8.78863525390625 93.78396606445312 8.776260375976562 96.89323425292969 C 8.763580322265625 100.0743026733398 9.256790161132812 103.2274627685547 10.24217224121094 106.2650527954102 L 39.759765625 197.2570495605469 C 40.74656677246094 200.2989959716797 42.20085144042969 203.1448059082031 44.08226013183594 205.7154541015625 C 45.92106628417969 208.2279357910156 48.13298034667969 210.4319610595703 50.65653991699219 212.2663269042969 C 53.18006896972656 214.1007080078125 55.9591064453125 215.5245819091797 58.9163818359375 216.4984283447266 C 61.94210815429688 217.4947967529297 65.09782409667969 217.9999847412109 68.29582214355469 217.9999847412109 L 163.7039489746094 217.9999847412109 C 166.9019470214844 217.9999847412109 170.0576324462891 217.4947967529297 173.0833892822266 216.4984283447266 C 176.0406646728516 215.5245819091797 178.8196716308594 214.1007080078125 181.3432312011719 212.2663269042969 C 183.8667907714844 210.4319610595703 186.0787048339844 208.2279357910156 187.9175109863281 205.7154541015625 C 189.7989196777344 203.1448059082031 191.2532348632812 200.2989959716797 192.2400512695312 197.2570495605469 L 221.7575988769531 106.2650833129883 C 222.7429809570312 103.2274627685547 223.2362060546875 100.0743026733398 223.2235107421875 96.89323425292969 C 223.2111358642578 93.78396606445312 222.7168884277344 90.70492553710938 221.7545776367188 87.74168395996094 C 220.792236328125 84.77845764160156 219.3830718994141 81.99655151367188 217.5662231445312 79.47329711914062 C 215.7074432373047 76.89173889160156 213.4557342529297 74.63005065917969 210.8735961914062 72.75099182128906 L 133.6519775390625 16.55589294433594 C 131.0639190673828 14.67251586914062 128.2124176025391 13.22335815429688 125.1767272949219 12.24861145019531 C 122.2098541259766 11.29595947265625 119.1223220825195 10.81292724609375 115.999885559082 10.81292724609375 M 115.9998779296875 7.812942504882812 C 122.8148727416992 7.812942504882812 129.6298522949219 9.918701171875 135.4172058105469 14.13020324707031 L 212.6388244628906 70.32530212402344 C 224.1863250732422 78.72854614257812 229.0179748535156 93.60624694824219 224.6111907958984 107.1907730102539 L 195.0936279296875 198.1827392578125 C 190.680419921875 211.7870483398438 178.0061340332031 220.9999847412109 163.7039489746094 220.9999847412109 L 68.29582214355469 220.9999847412109 C 53.99360656738281 220.9999847412109 41.31935119628906 211.7870483398438 36.90617370605469 198.1827392578125 L 7.388580322265625 107.1907730102539 C 2.981796264648438 93.60624694824219 7.81341552734375 78.72854614257812 19.36091613769531 70.32533264160156 L 96.58253479003906 14.13020324707031 C 102.3699035644531 9.918701171875 109.1848907470703 7.812942504882812 115.9998779296875 7.812942504882812 Z" stroke="none" fill="#ff8a60"/>
    </g>
    <g id="Trazado_978993" data-name="Trazado 978993" transform="translate(684 2540)" fill="#eaf8fd">
      <path d="M 163.7041320800781 219.5 L 68.29589080810547 219.5 C 64.93821716308594 219.5 61.62465286254883 218.9694671630859 58.44727325439453 217.9231719970703 C 55.34206771850586 216.9006500244141 52.42415618896484 215.4056091308594 49.77462387084961 213.4796752929688 C 47.12509536743164 211.5536956787109 44.80268478393555 209.2395324707031 42.87186050415039 206.6013488769531 C 40.89618301391602 203.9018859863281 39.36909484863281 200.9136962890625 38.3330078125 197.7198791503906 L 8.815389633178711 106.7279357910156 C 7.780801773071289 103.5386734008789 7.262978076934814 100.2277908325195 7.276272296905518 96.88726043701172 C 7.289301872253418 93.62246704101562 7.808184146881104 90.38955688476562 8.81856632232666 87.27840423583984 C 9.828948974609375 84.16722869873047 11.30853748321533 81.24632263183594 13.21624279022217 78.59681701660156 C 15.16818428039551 75.88591003417969 17.53250694274902 73.51102447509766 20.24356651306152 71.53816986083984 L 97.46530151367188 15.34305477142334 C 100.1825637817383 13.36564350128174 103.1767120361328 11.84402561187744 106.3645401000977 10.82043743133545 C 109.4798583984375 9.820114135742188 112.7216873168945 9.312936782836914 116.0000076293945 9.312936782836914 C 119.2783050537109 9.312936782836914 122.5201263427734 9.820114135742188 125.6354522705078 10.82043743133545 C 128.8232727050781 11.84402561187744 131.8174133300781 13.36564350128174 134.5346832275391 15.34305477142334 L 211.7564544677734 71.53816986083984 C 214.4675140380859 73.51102447509766 216.8318328857422 75.88587951660156 218.7837677001953 78.59681701660156 C 220.6914825439453 81.24632263183594 222.1710662841797 84.16719818115234 223.1814422607422 87.27838134765625 C 224.1918334960938 90.38955688476562 224.7107086181641 93.62246704101562 224.7237396240234 96.88726043701172 C 224.7370300292969 100.2277908325195 224.2192077636719 103.5386734008789 223.1846313476562 106.7279357910156 L 193.6669769287109 197.7198791503906 C 192.6309204101562 200.9136962890625 191.1038360595703 203.9018859863281 189.1281280517578 206.6013488769531 C 187.1973266601562 209.2395324707031 184.8748931884766 211.5536956787109 182.2253570556641 213.4796752929688 C 179.5758361816406 215.4056091308594 176.6579437255859 216.9006195068359 173.5527496337891 217.9231719970703 C 170.3753356933594 218.9694671630859 167.0617980957031 219.5 163.7041320800781 219.5 Z" stroke="none"/>
      <path d="M 116.0000076293945 10.81292724609375 C 112.877571105957 10.81292724609375 109.7900085449219 11.29595947265625 106.8231353759766 12.24861145019531 C 103.7874450683594 13.22332763671875 100.9359436035156 14.67251586914062 98.34788513183594 16.55589294433594 L 21.12615966796875 72.75105285644531 C 18.54403686523438 74.63005065917969 16.29231262207031 76.89176940917969 14.43353271484375 79.47329711914062 C 12.61669921875 81.99658203125 11.20753479003906 84.77845764160156 10.24519348144531 87.74171447753906 C 9.282882690429688 90.7049560546875 8.78863525390625 93.78399658203125 8.776260375976562 96.89326477050781 C 8.763565063476562 100.074333190918 9.256790161132812 103.2274932861328 10.24215698242188 106.2650833129883 L 39.75979614257812 197.2570495605469 C 40.74659729003906 200.2989959716797 42.20088195800781 203.1448059082031 44.08229064941406 205.7154541015625 C 45.92109680175781 208.2279357910156 48.13304138183594 210.4319610595703 50.65657043457031 212.2663269042969 C 53.18013000488281 214.1007080078125 55.95913696289062 215.5245819091797 58.91641235351562 216.4984283447266 C 61.94216918945312 217.4947967529297 65.09788513183594 217.9999847412109 68.29588317871094 217.9999847412109 L 163.7041320800781 217.9999847412109 C 166.9021301269531 217.9999847412109 170.0578155517578 217.4947967529297 173.0835723876953 216.4984283447266 C 176.0408477783203 215.5245819091797 178.8198547363281 214.1007080078125 181.3434143066406 212.2663269042969 C 183.866943359375 210.4319610595703 186.0788879394531 208.2279357910156 187.9176940917969 205.7154541015625 C 189.7991027832031 203.1448059082031 191.2533874511719 200.2989959716797 192.2402038574219 197.2570190429688 L 221.7578125 106.2650833129883 C 222.7431945800781 103.2274627685547 223.2364196777344 100.074333190918 223.2237548828125 96.89323425292969 C 223.2113494873047 93.78396606445312 222.7171325683594 90.70492553710938 221.7547912597656 87.74171447753906 C 220.79248046875 84.77845764160156 219.3833160400391 81.99655151367188 217.5664825439453 79.47329711914062 C 215.7077026367188 76.89173889160156 213.4559478759766 74.63005065917969 210.8738250732422 72.75099182128906 L 133.652099609375 16.55589294433594 C 131.0640411376953 14.67251586914062 128.2125396728516 13.22335815429688 125.1768493652344 12.24861145019531 C 122.2099761962891 11.29595947265625 119.122444152832 10.81292724609375 116.0000076293945 10.81292724609375 M 116 7.812942504882812 C 122.8149948120117 7.812942504882812 129.6299743652344 9.918701171875 135.4173278808594 14.13020324707031 L 212.6390380859375 70.32530212402344 C 224.1865692138672 78.72854614257812 229.0182189941406 93.60624694824219 224.6114196777344 107.190803527832 L 195.0937805175781 198.1827392578125 C 190.6806030273438 211.7870483398438 178.0063171386719 220.9999847412109 163.7041320800781 220.9999847412109 L 68.29588317871094 220.9999847412109 C 53.99366760253906 220.9999847412109 41.31938171386719 211.7870483398438 36.90618896484375 198.1827392578125 L 7.388565063476562 107.190803527832 C 2.981796264648438 93.60627746582031 7.813446044921875 78.72854614257812 19.36094665527344 70.32533264160156 L 96.58265686035156 14.13020324707031 C 102.3700256347656 9.918701171875 109.1850128173828 7.812942504882812 116 7.812942504882812 Z" stroke="none" fill="#3bc0f2"/>
    </g>
    <g id="Trazado_978994" data-name="Trazado 978994" transform="matrix(0.799, -0.602, 0.602, 0.799, 438, 2699.062)" fill="#fffbe8">
      <path d="M 163.7041320800781 219.5 L 68.29589080810547 219.5 C 64.93821716308594 219.5 61.62465286254883 218.9694671630859 58.44727325439453 217.9231719970703 C 55.34206771850586 216.9006500244141 52.42415618896484 215.4056091308594 49.77462387084961 213.4796752929688 C 47.12509536743164 211.5536956787109 44.80268478393555 209.2395324707031 42.87186050415039 206.6013488769531 C 40.89618301391602 203.9018859863281 39.36909484863281 200.9136962890625 38.3330078125 197.7198791503906 L 8.815389633178711 106.7279357910156 C 7.780801773071289 103.5386734008789 7.262978076934814 100.2277908325195 7.276272296905518 96.88726043701172 C 7.289301872253418 93.62246704101562 7.808184146881104 90.38955688476562 8.81856632232666 87.27840423583984 C 9.828948974609375 84.16722869873047 11.30853748321533 81.24632263183594 13.21624279022217 78.59681701660156 C 15.16818428039551 75.88591003417969 17.53250694274902 73.51102447509766 20.24356651306152 71.53816986083984 L 97.46530151367188 15.34305477142334 C 100.1825637817383 13.36564350128174 103.1767120361328 11.84402561187744 106.3645401000977 10.82043743133545 C 109.4798583984375 9.820114135742188 112.7216873168945 9.312936782836914 116.0000076293945 9.312936782836914 C 119.2783050537109 9.312936782836914 122.5201263427734 9.820114135742188 125.6354522705078 10.82043743133545 C 128.8232727050781 11.84402561187744 131.8174133300781 13.36564350128174 134.5346832275391 15.34305477142334 L 211.7564544677734 71.53816986083984 C 214.4675140380859 73.51102447509766 216.8318328857422 75.88587951660156 218.7837677001953 78.59681701660156 C 220.6914825439453 81.24632263183594 222.1710662841797 84.16719818115234 223.1814422607422 87.27838134765625 C 224.1918334960938 90.38955688476562 224.7107086181641 93.62246704101562 224.7237396240234 96.88726043701172 C 224.7370300292969 100.2277908325195 224.2192077636719 103.5386734008789 223.1846313476562 106.7279357910156 L 193.6669769287109 197.7198791503906 C 192.6309204101562 200.9136962890625 191.1038360595703 203.9018859863281 189.1281280517578 206.6013488769531 C 187.1973266601562 209.2395324707031 184.8748931884766 211.5536956787109 182.2253570556641 213.4796752929688 C 179.5758361816406 215.4056091308594 176.6579437255859 216.9006195068359 173.5527496337891 217.9231719970703 C 170.3753356933594 218.9694671630859 167.0617980957031 219.5 163.7041320800781 219.5 Z" stroke="none"/>
      <path d="M 116.0000076293945 10.81292724609375 C 112.877571105957 10.81292724609375 109.7900085449219 11.29595947265625 106.8231353759766 12.24861145019531 C 103.7874450683594 13.22332763671875 100.9359436035156 14.67251586914062 98.34788513183594 16.55589294433594 L 21.12615966796875 72.75105285644531 C 18.54403686523438 74.63005065917969 16.29231262207031 76.89176940917969 14.43353271484375 79.47329711914062 C 12.61669921875 81.99658203125 11.20753479003906 84.77845764160156 10.24519348144531 87.74171447753906 C 9.282882690429688 90.7049560546875 8.78863525390625 93.78399658203125 8.776260375976562 96.89326477050781 C 8.763565063476562 100.074333190918 9.256790161132812 103.2274932861328 10.24215698242188 106.2650833129883 L 39.75979614257812 197.2570495605469 C 40.74659729003906 200.2989959716797 42.20088195800781 203.1448059082031 44.08229064941406 205.7154541015625 C 45.92109680175781 208.2279357910156 48.13304138183594 210.4319610595703 50.65657043457031 212.2663269042969 C 53.18013000488281 214.1007080078125 55.95913696289062 215.5245819091797 58.91641235351562 216.4984283447266 C 61.94216918945312 217.4947967529297 65.09788513183594 217.9999847412109 68.29588317871094 217.9999847412109 L 163.7041320800781 217.9999847412109 C 166.9021301269531 217.9999847412109 170.0578155517578 217.4947967529297 173.0835723876953 216.4984283447266 C 176.0408477783203 215.5245819091797 178.8198547363281 214.1007080078125 181.3434143066406 212.2663269042969 C 183.866943359375 210.4319610595703 186.0788879394531 208.2279357910156 187.9176940917969 205.7154541015625 C 189.7991027832031 203.1448059082031 191.2533874511719 200.2989959716797 192.2402038574219 197.2570190429688 L 221.7578125 106.2650833129883 C 222.7431945800781 103.2274627685547 223.2364196777344 100.074333190918 223.2237548828125 96.89323425292969 C 223.2113494873047 93.78396606445312 222.7171325683594 90.70492553710938 221.7547912597656 87.74171447753906 C 220.79248046875 84.77845764160156 219.3833160400391 81.99655151367188 217.5664825439453 79.47329711914062 C 215.7077026367188 76.89173889160156 213.4559478759766 74.63005065917969 210.8738250732422 72.75099182128906 L 133.652099609375 16.55589294433594 C 131.0640411376953 14.67251586914062 128.2125396728516 13.22335815429688 125.1768493652344 12.24861145019531 C 122.2099761962891 11.29595947265625 119.122444152832 10.81292724609375 116.0000076293945 10.81292724609375 M 116 7.812942504882812 C 122.8149948120117 7.812942504882812 129.6299743652344 9.918701171875 135.4173278808594 14.13020324707031 L 212.6390380859375 70.32530212402344 C 224.1865692138672 78.72854614257812 229.0182189941406 93.60624694824219 224.6114196777344 107.190803527832 L 195.0937805175781 198.1827392578125 C 190.6806030273438 211.7870483398438 178.0063171386719 220.9999847412109 163.7041320800781 220.9999847412109 L 68.29588317871094 220.9999847412109 C 53.99366760253906 220.9999847412109 41.31938171386719 211.7870483398438 36.90618896484375 198.1827392578125 L 7.388565063476562 107.190803527832 C 2.981796264648438 93.60627746582031 7.813446044921875 78.72854614257812 19.36094665527344 70.32533264160156 L 96.58265686035156 14.13020324707031 C 102.3700256347656 9.918701171875 109.1850128173828 7.812942504882812 116 7.812942504882812 Z" stroke="none" fill="#ffdd32"/>
    </g>
    <g id="Trazado_978995" data-name="Trazado 978995" transform="matrix(0.799, 0.602, -0.602, 0.799, 976.001, 2559.441)" fill="#fffbe7">
      <path d="M 163.7039337158203 219.4998168945312 L 68.29582214355469 219.4998168945312 C 64.93817138671875 219.4998168945312 61.62461471557617 218.9692840576172 58.44720077514648 217.9229888916016 C 55.34199523925781 216.9004364013672 52.42411422729492 215.4054412841797 49.77458190917969 213.4794616699219 C 47.12502670288086 211.5535278320312 44.8026123046875 209.2393188476562 42.87178802490234 206.6011657714844 C 40.89611434936523 203.9016723632812 39.36902618408203 200.9135284423828 38.33293533325195 197.7196960449219 L 8.815378189086914 106.7278442382812 C 7.780789852142334 103.5385818481445 7.262966156005859 100.2276992797852 7.276260375976562 96.88719940185547 C 7.289289474487305 93.62237548828125 7.808172225952148 90.38949584960938 8.818553924560547 87.27831268310547 C 9.828936576843262 84.16713714599609 11.30852508544922 81.24625396728516 13.21623134613037 78.59675598144531 C 15.16817188262939 75.88581848144531 17.53249549865723 73.51096343994141 20.24355506896973 71.53810882568359 L 97.46517181396484 15.34305191040039 C 100.1824340820312 13.36563968658447 103.1765823364258 11.84402179718018 106.3644332885742 10.82043361663818 C 109.4797286987305 9.820110321044922 112.7215576171875 9.312933921813965 115.9998779296875 9.312933921813965 C 119.2781982421875 9.312933921813965 122.5200271606445 9.820110321044922 125.6353225708008 10.82043361663818 C 128.8231658935547 11.84402179718018 131.8173217773438 13.36563968658447 134.5345764160156 15.34305191040039 L 211.7561950683594 71.53810882568359 C 214.4672546386719 73.51096343994141 216.8315887451172 75.88581848144531 218.7835235595703 78.59675598144531 C 220.6912384033203 81.24625396728516 222.1708221435547 84.16713714599609 223.1811981201172 87.27831268310547 C 224.1915893554688 90.38946533203125 224.7104644775391 93.62237548828125 224.7234954833984 96.88716888427734 C 224.7367858886719 100.2276992797852 224.2189636230469 103.5385818481445 223.1843719482422 106.7278442382812 L 193.6668243408203 197.7196960449219 C 192.6307373046875 200.9135284423828 191.1036376953125 203.9016723632812 189.1279602050781 206.6011657714844 C 187.1971435546875 209.2393188476562 184.8747253417969 211.5535278320312 182.2251739501953 213.4794616699219 C 179.5756378173828 215.4054412841797 176.6577606201172 216.9004364013672 173.5525512695312 217.9229888916016 C 170.3751373291016 218.9692840576172 167.0615844726562 219.4998168945312 163.7039337158203 219.4998168945312 Z" stroke="none"/>
      <path d="M 115.9998779296875 10.81292724609375 C 112.87744140625 10.81292724609375 109.7898788452148 11.29595947265625 106.8230056762695 12.24861145019531 C 103.7873229980469 13.22334289550781 100.9358215332031 14.67253112792969 98.34774780273438 16.55589294433594 L 21.12615966796875 72.75093078613281 C 18.54403686523438 74.62998962402344 16.29231262207031 76.89167785644531 14.43353271484375 79.47323608398438 C 12.61668395996094 81.99649047851562 11.20753479003906 84.77839660644531 10.24519348144531 87.74162292480469 C 9.282882690429688 90.70486450195312 8.78863525390625 93.78390502929688 8.776260375976562 96.89317321777344 C 8.763565063476562 100.0742416381836 9.256790161132812 103.2274017333984 10.24215698242188 106.2649917602539 L 39.75975036621094 197.2568359375 C 40.74656677246094 200.2987670898438 42.20085144042969 203.1445922851562 44.08226013183594 205.7152404785156 C 45.92109680175781 208.2277069091797 48.13299560546875 210.4317779541016 50.65653991699219 212.2661437988281 C 53.18009948730469 214.1005249023438 55.95909118652344 215.5243988037109 58.9163818359375 216.4982452392578 C 61.94212341308594 217.4946136474609 65.09780883789062 217.9998016357422 68.29582214355469 217.9998016357422 L 163.7039489746094 217.9998016357422 C 166.9019470214844 217.9998016357422 170.0576629638672 217.4946136474609 173.0833740234375 216.4982452392578 C 176.0406646728516 215.5243988037109 178.8196868896484 214.1005249023438 181.3432312011719 212.2661437988281 C 183.8667907714844 210.4317779541016 186.0786895751953 208.2277374267578 187.9175109863281 205.7152404785156 C 189.7989044189453 203.1445922851562 191.2531890869141 200.2987670898438 192.2400054931641 197.2568054199219 L 221.757568359375 106.265022277832 C 222.7429351806641 103.2274017333984 223.2361602783203 100.0742416381836 223.2234649658203 96.89317321777344 C 223.2110900878906 93.78390502929688 222.7168731689453 90.70486450195312 221.7545318603516 87.74162292480469 C 220.7921905517578 84.77839660644531 219.3830718994141 81.99649047851562 217.5662231445312 79.47323608398438 C 215.7074432373047 76.89167785644531 213.4557189941406 74.62998962402344 210.8735961914062 72.75093078613281 L 133.6519775390625 16.55589294433594 C 131.0639038085938 14.67253112792969 128.21240234375 13.22337341308594 125.1767196655273 12.24861145019531 C 122.209846496582 11.29595947265625 119.122314453125 10.81292724609375 115.9998779296875 10.81292724609375 M 115.999870300293 7.812942504882812 C 122.8148651123047 7.812942504882812 129.6298522949219 9.918701171875 135.4171905517578 14.13021850585938 L 212.6388092041016 70.32524108886719 C 224.1863098144531 78.72850036621094 229.0179443359375 93.60618591308594 224.6111602783203 107.1907119750977 L 195.0935974121094 198.1825256347656 C 190.6804046630859 211.7868347167969 178.0061645507812 220.9998016357422 163.7039489746094 220.9998016357422 L 68.29582214355469 220.9998016357422 C 53.99362182617188 220.9998016357422 41.31935119628906 211.7868347167969 36.90615844726562 198.1825256347656 L 7.388565063476562 107.1907119750977 C 2.981781005859375 93.60618591308594 7.813446044921875 78.72850036621094 19.36094665527344 70.32524108886719 L 96.58253479003906 14.13021850585938 C 102.3698883056641 9.918701171875 109.1848831176758 7.812942504882812 115.999870300293 7.812942504882812 Z" stroke="none" fill="#ffdd32"/>
    </g>
    <g id="Trazado_978996" data-name="Trazado 978996" transform="translate(597 3218) rotate(180)" fill="#ededf6">
      <path d="M 163.7041320800781 219.5 L 68.29589080810547 219.5 C 64.93821716308594 219.5 61.62465286254883 218.9694671630859 58.44727325439453 217.9231719970703 C 55.34206771850586 216.9006500244141 52.42415618896484 215.4056091308594 49.77462387084961 213.4796752929688 C 47.12509536743164 211.5536956787109 44.80268478393555 209.2395324707031 42.87186050415039 206.6013488769531 C 40.89618301391602 203.9018859863281 39.36909484863281 200.9136962890625 38.3330078125 197.7198791503906 L 8.815389633178711 106.7279357910156 C 7.780801773071289 103.5386734008789 7.262978076934814 100.2277908325195 7.276272296905518 96.88726043701172 C 7.289301872253418 93.62246704101562 7.808184146881104 90.38955688476562 8.81856632232666 87.27840423583984 C 9.828948974609375 84.16722869873047 11.30853748321533 81.24632263183594 13.21624279022217 78.59681701660156 C 15.16818428039551 75.88591003417969 17.53250694274902 73.51102447509766 20.24356651306152 71.53816986083984 L 97.46530151367188 15.34305477142334 C 100.1825637817383 13.36564350128174 103.1767120361328 11.84402561187744 106.3645401000977 10.82043743133545 C 109.4798583984375 9.820114135742188 112.7216873168945 9.312936782836914 116.0000076293945 9.312936782836914 C 119.2783050537109 9.312936782836914 122.5201263427734 9.820114135742188 125.6354522705078 10.82043743133545 C 128.8232727050781 11.84402561187744 131.8174133300781 13.36564350128174 134.5346832275391 15.34305477142334 L 211.7564544677734 71.53816986083984 C 214.4675140380859 73.51102447509766 216.8318328857422 75.88587951660156 218.7837677001953 78.59681701660156 C 220.6914825439453 81.24632263183594 222.1710662841797 84.16719818115234 223.1814422607422 87.27838134765625 C 224.1918334960938 90.38955688476562 224.7107086181641 93.62246704101562 224.7237396240234 96.88726043701172 C 224.7370300292969 100.2277908325195 224.2192077636719 103.5386734008789 223.1846313476562 106.7279357910156 L 193.6669769287109 197.7198791503906 C 192.6309204101562 200.9136962890625 191.1038360595703 203.9018859863281 189.1281280517578 206.6013488769531 C 187.1973266601562 209.2395324707031 184.8748931884766 211.5536956787109 182.2253570556641 213.4796752929688 C 179.5758361816406 215.4056091308594 176.6579437255859 216.9006195068359 173.5527496337891 217.9231719970703 C 170.3753356933594 218.9694671630859 167.0617980957031 219.5 163.7041320800781 219.5 Z" stroke="none"/>
      <path d="M 116.0000076293945 10.81292724609375 C 112.877571105957 10.81292724609375 109.7900085449219 11.29595947265625 106.8231353759766 12.24861145019531 C 103.7874450683594 13.22332763671875 100.9359436035156 14.67251586914062 98.34788513183594 16.55589294433594 L 21.12615966796875 72.75105285644531 C 18.54403686523438 74.63005065917969 16.29231262207031 76.89176940917969 14.43353271484375 79.47329711914062 C 12.61669921875 81.99658203125 11.20753479003906 84.77845764160156 10.24519348144531 87.74171447753906 C 9.282882690429688 90.7049560546875 8.78863525390625 93.78399658203125 8.776260375976562 96.89326477050781 C 8.763565063476562 100.074333190918 9.256790161132812 103.2274932861328 10.24215698242188 106.2650833129883 L 39.75979614257812 197.2570495605469 C 40.74659729003906 200.2989959716797 42.20088195800781 203.1448059082031 44.08229064941406 205.7154541015625 C 45.92109680175781 208.2279357910156 48.13304138183594 210.4319610595703 50.65657043457031 212.2663269042969 C 53.18013000488281 214.1007080078125 55.95913696289062 215.5245819091797 58.91641235351562 216.4984283447266 C 61.94216918945312 217.4947967529297 65.09788513183594 217.9999847412109 68.29588317871094 217.9999847412109 L 163.7041320800781 217.9999847412109 C 166.9021301269531 217.9999847412109 170.0578155517578 217.4947967529297 173.0835723876953 216.4984283447266 C 176.0408477783203 215.5245819091797 178.8198547363281 214.1007080078125 181.3434143066406 212.2663269042969 C 183.866943359375 210.4319610595703 186.0788879394531 208.2279357910156 187.9176940917969 205.7154541015625 C 189.7991027832031 203.1448059082031 191.2533874511719 200.2989959716797 192.2402038574219 197.2570190429688 L 221.7578125 106.2650833129883 C 222.7431945800781 103.2274627685547 223.2364196777344 100.074333190918 223.2237548828125 96.89323425292969 C 223.2113494873047 93.78396606445312 222.7171325683594 90.70492553710938 221.7547912597656 87.74171447753906 C 220.79248046875 84.77845764160156 219.3833160400391 81.99655151367188 217.5664825439453 79.47329711914062 C 215.7077026367188 76.89173889160156 213.4559478759766 74.63005065917969 210.8738250732422 72.75099182128906 L 133.652099609375 16.55589294433594 C 131.0640411376953 14.67251586914062 128.2125396728516 13.22335815429688 125.1768493652344 12.24861145019531 C 122.2099761962891 11.29595947265625 119.122444152832 10.81292724609375 116.0000076293945 10.81292724609375 M 116 7.812942504882812 C 122.8149948120117 7.812942504882812 129.6299743652344 9.918701171875 135.4173278808594 14.13020324707031 L 212.6390380859375 70.32530212402344 C 224.1865692138672 78.72854614257812 229.0182189941406 93.60624694824219 224.6114196777344 107.190803527832 L 195.0937805175781 198.1827392578125 C 190.6806030273438 211.7870483398438 178.0063171386719 220.9999847412109 163.7041320800781 220.9999847412109 L 68.29588317871094 220.9999847412109 C 53.99366760253906 220.9999847412109 41.31938171386719 211.7870483398438 36.90618896484375 198.1827392578125 L 7.388565063476562 107.190803527832 C 2.981796264648438 93.60627746582031 7.813446044921875 78.72854614257812 19.36094665527344 70.32533264160156 L 96.58265686035156 14.13020324707031 C 102.3700256347656 9.918701171875 109.1850128173828 7.812942504882812 116 7.812942504882812 Z" stroke="none" fill="#5d5aad"/>
    </g>
    <g id="Trazado_978997" data-name="Trazado 978997" transform="translate(1234.142 3218) rotate(180)" fill="#ededf6">
      <path d="M 163.7039489746094 219.5 L 68.29582977294922 219.5 C 64.93814849853516 219.5 61.6246223449707 218.9694671630859 58.44720840454102 217.9231719970703 C 55.34200286865234 216.9006195068359 52.42412185668945 215.4056091308594 49.77458953857422 213.4796752929688 C 47.12503433227539 211.5536956787109 44.80261993408203 209.2395324707031 42.87179565429688 206.6013488769531 C 40.89612197875977 203.90185546875 39.36903381347656 200.9136962890625 38.33294296264648 197.7198791503906 L 8.815356254577637 106.7279357910156 C 7.780767917633057 103.5386734008789 7.262944221496582 100.2277908325195 7.276268005371094 96.88726043701172 C 7.289268016815186 93.62246704101562 7.80817985534668 90.38955688476562 8.818561553955078 87.27840423583984 C 9.828944206237793 84.16722869873047 11.30853271484375 81.24632263183594 13.2162389755249 78.59681701660156 C 15.16817951202393 75.88591003417969 17.53250312805176 73.51102447509766 20.24353218078613 71.53816986083984 L 97.46517944335938 15.34308433532715 C 100.1824417114258 13.36567211151123 103.1765899658203 11.84405517578125 106.3644409179688 10.82043743133545 C 109.479736328125 9.82014274597168 112.721565246582 9.312936782836914 115.999885559082 9.312936782836914 C 119.2781829833984 9.312936782836914 122.5200347900391 9.82014274597168 125.6353302001953 10.82043743133545 C 128.8231506347656 11.84405517578125 131.8173217773438 13.36567211151123 134.5345916748047 15.34308433532715 L 211.7562408447266 71.53816986083984 C 214.4673004150391 73.51102447509766 216.8316192626953 75.88587951660156 218.7835693359375 78.59681701660156 C 220.6912689208984 81.24632263183594 222.1708526611328 84.16719818115234 223.1812438964844 87.27838134765625 C 224.1916198730469 90.38955688476562 224.7105102539062 93.6224365234375 224.7235260009766 96.88726043701172 C 224.7368316650391 100.2277603149414 224.2190093994141 103.5386428833008 223.1844177246094 106.7279052734375 L 193.6668243408203 197.7198791503906 C 192.6307678222656 200.9136962890625 191.1036834716797 203.90185546875 189.1279754638672 206.6013488769531 C 187.1971740722656 209.2395324707031 184.8747406005859 211.5536956787109 182.2252044677734 213.4796752929688 C 179.57568359375 215.4056091308594 176.6577606201172 216.9006195068359 173.5525665283203 217.9231719970703 C 170.3751525878906 218.9694671630859 167.0616149902344 219.5 163.7039489746094 219.5 Z" stroke="none"/>
      <path d="M 115.999885559082 10.81292724609375 C 112.8774490356445 10.81292724609375 109.7898864746094 11.29595947265625 106.8230133056641 12.24861145019531 C 103.7873229980469 13.22332763671875 100.9358215332031 14.67251586914062 98.34776306152344 16.55589294433594 L 21.12612915039062 72.75105285644531 C 18.54400634765625 74.63005065917969 16.29229736328125 76.89176940917969 14.43351745605469 79.47329711914062 C 12.61666870117188 81.99655151367188 11.20753479003906 84.77845764160156 10.24519348144531 87.74168395996094 C 9.282852172851562 90.70492553710938 8.78863525390625 93.78396606445312 8.776260375976562 96.89323425292969 C 8.763580322265625 100.0743026733398 9.256790161132812 103.2274627685547 10.24217224121094 106.2650527954102 L 39.759765625 197.2570495605469 C 40.74656677246094 200.2989959716797 42.20085144042969 203.1448059082031 44.08226013183594 205.7154541015625 C 45.92106628417969 208.2279357910156 48.13298034667969 210.4319610595703 50.65653991699219 212.2663269042969 C 53.18006896972656 214.1007080078125 55.9591064453125 215.5245819091797 58.9163818359375 216.4984283447266 C 61.94210815429688 217.4947967529297 65.09782409667969 217.9999847412109 68.29582214355469 217.9999847412109 L 163.7039489746094 217.9999847412109 C 166.9019470214844 217.9999847412109 170.0576324462891 217.4947967529297 173.0833892822266 216.4984283447266 C 176.0406646728516 215.5245819091797 178.8196716308594 214.1007080078125 181.3432312011719 212.2663269042969 C 183.8667907714844 210.4319610595703 186.0787048339844 208.2279357910156 187.9175109863281 205.7154541015625 C 189.7989196777344 203.1448059082031 191.2532348632812 200.2989959716797 192.2400512695312 197.2570495605469 L 221.7575988769531 106.2650833129883 C 222.7429809570312 103.2274627685547 223.2362060546875 100.0743026733398 223.2235107421875 96.89323425292969 C 223.2111358642578 93.78396606445312 222.7168884277344 90.70492553710938 221.7545776367188 87.74168395996094 C 220.792236328125 84.77845764160156 219.3830718994141 81.99655151367188 217.5662231445312 79.47329711914062 C 215.7074432373047 76.89173889160156 213.4557342529297 74.63005065917969 210.8735961914062 72.75099182128906 L 133.6519775390625 16.55589294433594 C 131.0639190673828 14.67251586914062 128.2124176025391 13.22335815429688 125.1767272949219 12.24861145019531 C 122.2098541259766 11.29595947265625 119.1223220825195 10.81292724609375 115.999885559082 10.81292724609375 M 115.9998779296875 7.812942504882812 C 122.8148727416992 7.812942504882812 129.6298522949219 9.918701171875 135.4172058105469 14.13020324707031 L 212.6388244628906 70.32530212402344 C 224.1863250732422 78.72854614257812 229.0179748535156 93.60624694824219 224.6111907958984 107.1907730102539 L 195.0936279296875 198.1827392578125 C 190.680419921875 211.7870483398438 178.0061340332031 220.9999847412109 163.7039489746094 220.9999847412109 L 68.29582214355469 220.9999847412109 C 53.99360656738281 220.9999847412109 41.31935119628906 211.7870483398438 36.90617370605469 198.1827392578125 L 7.388580322265625 107.1907730102539 C 2.981796264648438 93.60624694824219 7.81341552734375 78.72854614257812 19.36091613769531 70.32533264160156 L 96.58253479003906 14.13020324707031 C 102.3699035644531 9.918701171875 109.1848907470703 7.812942504882812 115.9998779296875 7.812942504882812 Z" stroke="none" fill="#5d5aad"/>
    </g>
    <path id="Trazado_978998" data-name="Trazado 978998" d="M.861-.483V-3.3a5.4,5.4,0,0,0,1.661.962,5.34,5.34,0,0,0,1.811.321,4.015,4.015,0,0,0,.936-.1,2.193,2.193,0,0,0,.668-.268,1.169,1.169,0,0,0,.4-.4,1.009,1.009,0,0,0,.132-.505,1.092,1.092,0,0,0-.211-.659,2.27,2.27,0,0,0-.576-.536,6.015,6.015,0,0,0-.866-.475q-.5-.229-1.081-.466a5.517,5.517,0,0,1-2.2-1.5A3.281,3.281,0,0,1,.809-9.07a3.416,3.416,0,0,1,.4-1.692,3.359,3.359,0,0,1,1.077-1.165A4.828,4.828,0,0,1,3.858-12.6a8.106,8.106,0,0,1,1.9-.215A11.418,11.418,0,0,1,7.5-12.7a6.861,6.861,0,0,1,1.4.365V-9.7a4.239,4.239,0,0,0-.69-.387,5.466,5.466,0,0,0-.769-.277,5.866,5.866,0,0,0-.787-.163,5.567,5.567,0,0,0-.743-.053,3.873,3.873,0,0,0-.879.092,2.254,2.254,0,0,0-.668.259,1.29,1.29,0,0,0-.422.4.948.948,0,0,0-.149.523,1,1,0,0,0,.167.567,1.916,1.916,0,0,0,.475.475,5.037,5.037,0,0,0,.747.439q.439.215.993.444a11.067,11.067,0,0,1,1.358.672,4.827,4.827,0,0,1,1.033.8,3.133,3.133,0,0,1,.659,1.024,3.618,3.618,0,0,1,.229,1.34,3.59,3.59,0,0,1-.4,1.771A3.247,3.247,0,0,1,7.972-.611a4.707,4.707,0,0,1-1.6.637A9.219,9.219,0,0,1,4.456.22,10.678,10.678,0,0,1,2.483.044,5.956,5.956,0,0,1,.861-.483Zm16,.7a5.867,5.867,0,0,1-4.412-1.762,6.327,6.327,0,0,1-1.705-4.592,6.779,6.779,0,0,1,1.731-4.834,6,6,0,0,1,4.588-1.846,5.721,5.721,0,0,1,4.364,1.767A6.513,6.513,0,0,1,23.091-6.39,6.671,6.671,0,0,1,21.364-1.6,5.928,5.928,0,0,1,16.859.22Zm.123-10.591A2.858,2.858,0,0,0,14.609-9.25a4.672,4.672,0,0,0-.879,2.966,4.586,4.586,0,0,0,.879,2.962,2.816,2.816,0,0,0,2.3,1.09,2.844,2.844,0,0,0,2.329-1.059,4.536,4.536,0,0,0,.861-2.94,4.915,4.915,0,0,0-.835-3.05A2.722,2.722,0,0,0,16.982-10.371ZM24.6-.483V-3.3a5.4,5.4,0,0,0,1.661.962,5.34,5.34,0,0,0,1.811.321,4.015,4.015,0,0,0,.936-.1,2.193,2.193,0,0,0,.668-.268,1.169,1.169,0,0,0,.4-.4,1.009,1.009,0,0,0,.132-.505A1.092,1.092,0,0,0,30-3.946a2.27,2.27,0,0,0-.576-.536,6.015,6.015,0,0,0-.866-.475q-.5-.229-1.081-.466a5.517,5.517,0,0,1-2.2-1.5,3.281,3.281,0,0,1-.725-2.145,3.416,3.416,0,0,1,.4-1.692,3.359,3.359,0,0,1,1.077-1.165A4.828,4.828,0,0,1,27.6-12.6a8.106,8.106,0,0,1,1.9-.215,11.418,11.418,0,0,1,1.745.119,6.861,6.861,0,0,1,1.4.365V-9.7a4.239,4.239,0,0,0-.69-.387,5.466,5.466,0,0,0-.769-.277,5.866,5.866,0,0,0-.787-.163,5.567,5.567,0,0,0-.743-.053,3.873,3.873,0,0,0-.879.092,2.254,2.254,0,0,0-.668.259,1.29,1.29,0,0,0-.422.4.948.948,0,0,0-.149.523,1,1,0,0,0,.167.567,1.916,1.916,0,0,0,.475.475,5.037,5.037,0,0,0,.747.439q.439.215.993.444a11.067,11.067,0,0,1,1.358.672,4.828,4.828,0,0,1,1.033.8,3.133,3.133,0,0,1,.659,1.024,3.618,3.618,0,0,1,.229,1.34,3.59,3.59,0,0,1-.4,1.771,3.247,3.247,0,0,1-1.085,1.16,4.707,4.707,0,0,1-1.6.637A9.219,9.219,0,0,1,28.2.22,10.678,10.678,0,0,1,26.226.044,5.956,5.956,0,0,1,24.6-.483Zm19.522-9.809H40.532V0H37.684V-10.292H34.107V-12.6h10.02ZM53.383,0H45.825V-12.6h7.269v2.312h-4.43v2.8h4.122v2.3H48.663V-2.3h4.72ZM66.744,0H63.879L58.685-7.919a11.451,11.451,0,0,1-.633-1.046h-.035q.07.668.07,2.039V0H55.406V-12.6h3.059l5,7.673q.343.519.633,1.028h.035a13.476,13.476,0,0,1-.07-1.731V-12.6h2.681Zm5.723,0H69.629V-12.6h2.839Zm2.867,0V-12.6h4.588a5.729,5.729,0,0,1,3.243.773A2.488,2.488,0,0,1,84.3-9.65a2.58,2.58,0,0,1-.69,1.784A3.625,3.625,0,0,1,81.848-6.8v.035A3.493,3.493,0,0,1,84-5.774a2.778,2.778,0,0,1,.8,2.013,3.364,3.364,0,0,1-1.239,2.747A5.186,5.186,0,0,1,80.178,0Zm2.839-10.512v2.988h1.248a2.08,2.08,0,0,0,1.384-.426,1.453,1.453,0,0,0,.505-1.173q0-1.389-2.074-1.389Zm0,5.1v3.322h1.538a2.367,2.367,0,0,0,1.542-.457A1.527,1.527,0,0,0,81.812-3.8a1.425,1.425,0,0,0-.549-1.187,2.43,2.43,0,0,0-1.534-.431ZM89.716,0H86.877V-12.6h2.839Zm10.373,0H92.583V-12.6h2.839V-2.3h4.667Zm4.537,0h-2.839V-12.6h2.839Zm2.867,0V-12.6h4.465q6.715,0,6.715,6.144a6.212,6.212,0,0,1-1.833,4.7A6.757,6.757,0,0,1,111.957,0Zm2.839-10.292V-2.3h1.406a3.8,3.8,0,0,0,2.9-1.107,4.2,4.2,0,0,0,1.05-3.015,3.812,3.812,0,0,0-1.042-2.834,3.971,3.971,0,0,0-2.922-1.033ZM131.576,0h-3.094l-.9-2.8H123.1L122.216,0H119.14l4.588-12.6h3.366Zm-4.641-4.983L125.582-9.22a5.521,5.521,0,0,1-.211-1.134h-.07a4.807,4.807,0,0,1-.22,1.1L123.71-4.983ZM133.151,0V-12.6h4.465q6.715,0,6.715,6.144a6.212,6.212,0,0,1-1.833,4.7A6.757,6.757,0,0,1,137.616,0Zm2.839-10.292V-2.3H137.4a3.8,3.8,0,0,0,2.9-1.107,4.2,4.2,0,0,0,1.05-3.015A3.812,3.812,0,0,0,140.3-9.259a3.971,3.971,0,0,0-2.922-1.033Z" transform="translate(406 3103)" fill="#212429"/>
    <path id="Trazado_978999" data-name="Trazado 978999" d="M9,0H1.441V-12.6H8.71v2.312H4.28v2.8H8.4v2.3H4.28V-2.3H9ZM8.209-16.611,5.458-13.772h-2l2.285-2.839Zm11.665,6.319H16.279V0H13.431V-10.292H9.854V-12.6h10.02ZM24.411,0H21.572V-12.6h2.839Zm11.9-.448a8.311,8.311,0,0,1-3.6.668,6.074,6.074,0,0,1-4.562-1.705,6.233,6.233,0,0,1-1.661-4.544,6.659,6.659,0,0,1,1.868-4.9A6.533,6.533,0,0,1,33.2-12.814a9.065,9.065,0,0,1,3.111.466v2.733a5.513,5.513,0,0,0-2.883-.756,3.824,3.824,0,0,0-2.865,1.116,4.142,4.142,0,0,0-1.09,3.023A4.062,4.062,0,0,0,30.5-3.318a3.633,3.633,0,0,0,2.769,1.085,5.905,5.905,0,0,0,3.041-.809ZM49.6,0H46.5l-.9-2.8H41.122L40.235,0H37.159l4.588-12.6h3.366ZM44.954-4.983,43.6-9.22a5.521,5.521,0,0,1-.211-1.134h-.07a4.807,4.807,0,0,1-.22,1.1L41.729-4.983Z" transform="translate(456 2901)" fill="#212429"/>
    <path id="Trazado_979000" data-name="Trazado 979000" d="M4.28,0H1.441V-12.6H4.28Zm14.2,0H15.62L10.426-7.919a11.451,11.451,0,0,1-.633-1.046H9.758q.07.668.07,2.039V0H7.147V-12.6h3.059l5,7.673q.343.519.633,1.028h.035a13.476,13.476,0,0,1-.07-1.731V-12.6h2.681ZM32.708,0H29.842L24.648-7.919a11.451,11.451,0,0,1-.633-1.046H23.98q.07.668.07,2.039V0H21.37V-12.6h3.059l5,7.673q.343.519.633,1.028H30.1a13.476,13.476,0,0,1-.07-1.731V-12.6h2.681Zm8.211.22a5.867,5.867,0,0,1-4.412-1.762A6.327,6.327,0,0,1,34.8-6.135a6.779,6.779,0,0,1,1.731-4.834,6,6,0,0,1,4.588-1.846,5.721,5.721,0,0,1,4.364,1.767A6.513,6.513,0,0,1,47.15-6.39,6.671,6.671,0,0,1,45.423-1.6,5.928,5.928,0,0,1,40.918.22Zm.123-10.591A2.858,2.858,0,0,0,38.668-9.25a4.672,4.672,0,0,0-.879,2.966,4.586,4.586,0,0,0,.879,2.962,2.816,2.816,0,0,0,2.3,1.09A2.844,2.844,0,0,0,43.3-3.292a4.536,4.536,0,0,0,.861-2.94,4.915,4.915,0,0,0-.835-3.05A2.722,2.722,0,0,0,41.042-10.371Zm18.7-2.232L55.4,0H52.179L47.89-12.6h3.059l2.628,8.771a6.282,6.282,0,0,1,.255,1.257h.053a7.1,7.1,0,0,1,.272-1.292l2.61-8.736ZM71.4,0H68.309l-.9-2.8H62.93L62.042,0H58.966l4.588-12.6H66.92ZM66.762-4.983,65.408-9.22a5.52,5.52,0,0,1-.211-1.134h-.07a4.808,4.808,0,0,1-.22,1.1L63.536-4.983ZM81.74-.448a8.311,8.311,0,0,1-3.6.668,6.074,6.074,0,0,1-4.562-1.705,6.233,6.233,0,0,1-1.661-4.544,6.659,6.659,0,0,1,1.868-4.9,6.533,6.533,0,0,1,4.847-1.881,9.065,9.065,0,0,1,3.111.466v2.733a5.513,5.513,0,0,0-2.883-.756,3.824,3.824,0,0,0-2.865,1.116A4.142,4.142,0,0,0,74.9-6.231a4.062,4.062,0,0,0,1.028,2.914A3.633,3.633,0,0,0,78.7-2.232a5.905,5.905,0,0,0,3.041-.809ZM86.778,0H83.939V-12.6h2.839Zm8.193.22a5.867,5.867,0,0,1-4.412-1.762,6.327,6.327,0,0,1-1.705-4.592,6.779,6.779,0,0,1,1.731-4.834,6,6,0,0,1,4.588-1.846,5.721,5.721,0,0,1,4.364,1.767A6.513,6.513,0,0,1,101.2-6.39,6.671,6.671,0,0,1,99.476-1.6,5.928,5.928,0,0,1,94.971.22Zm.123-10.591A2.858,2.858,0,0,0,92.721-9.25a4.672,4.672,0,0,0-.879,2.966,4.586,4.586,0,0,0,.879,2.962,2.816,2.816,0,0,0,2.3,1.09,2.844,2.844,0,0,0,2.329-1.059,4.536,4.536,0,0,0,.861-2.94,4.915,4.915,0,0,0-.835-3.05A2.722,2.722,0,0,0,95.094-10.371Zm2.865-6.24-2.751,2.839h-2l2.285-2.839ZM114.626,0H111.76l-5.194-7.919a11.451,11.451,0,0,1-.633-1.046H105.9q.07.668.07,2.039V0h-2.681V-12.6h3.059l5,7.673q.343.519.633,1.028h.035a13.476,13.476,0,0,1-.07-1.731V-12.6h2.681Z" transform="translate(550 2736)" fill="#212429"/>
    <path id="Trazado_979001" data-name="Trazado 979001" d="M-48.256,0V-12.6h4.588a5.729,5.729,0,0,1,3.243.773,2.488,2.488,0,0,1,1.134,2.18,2.58,2.58,0,0,1-.69,1.784A3.625,3.625,0,0,1-41.743-6.8v.035a3.493,3.493,0,0,1,2.149.993,2.778,2.778,0,0,1,.8,2.013,3.364,3.364,0,0,1-1.239,2.747A5.186,5.186,0,0,1-43.413,0Zm2.839-10.512v2.988h1.248a2.08,2.08,0,0,0,1.384-.426,1.453,1.453,0,0,0,.505-1.173q0-1.389-2.074-1.389Zm0,5.1v3.322h1.538a2.367,2.367,0,0,0,1.542-.457A1.527,1.527,0,0,0-41.778-3.8a1.425,1.425,0,0,0-.549-1.187,2.43,2.43,0,0,0-1.534-.431ZM-33.875,0h-2.839V-12.6h2.839Zm10.426,0h-7.559V-12.6h7.269v2.312h-4.43v2.8h4.122v2.3h-4.122V-2.3h4.72Zm13.361,0h-2.865l-5.194-7.919a11.451,11.451,0,0,1-.633-1.046h-.035q.07.668.07,2.039V0h-2.681V-12.6h3.059l5,7.673q.343.519.633,1.028h.035a13.476,13.476,0,0,1-.07-1.731V-12.6h2.681ZM.355,0H-7.2V-12.6H.065v2.312h-4.43v2.8H-.243v2.3H-4.365V-2.3H.355ZM1.8-.483V-3.3a5.4,5.4,0,0,0,1.661.962,5.34,5.34,0,0,0,1.811.321,4.015,4.015,0,0,0,.936-.1,2.193,2.193,0,0,0,.668-.268,1.169,1.169,0,0,0,.4-.4,1.009,1.009,0,0,0,.132-.505,1.092,1.092,0,0,0-.211-.659,2.27,2.27,0,0,0-.576-.536,6.015,6.015,0,0,0-.866-.475q-.5-.229-1.081-.466a5.517,5.517,0,0,1-2.2-1.5A3.281,3.281,0,0,1,1.746-9.07a3.416,3.416,0,0,1,.4-1.692,3.359,3.359,0,0,1,1.077-1.165A4.828,4.828,0,0,1,4.8-12.6a8.106,8.106,0,0,1,1.9-.215,11.418,11.418,0,0,1,1.745.119,6.861,6.861,0,0,1,1.4.365V-9.7a4.239,4.239,0,0,0-.69-.387,5.466,5.466,0,0,0-.769-.277,5.866,5.866,0,0,0-.787-.163,5.567,5.567,0,0,0-.743-.053,3.873,3.873,0,0,0-.879.092,2.254,2.254,0,0,0-.668.259,1.29,1.29,0,0,0-.422.4.948.948,0,0,0-.149.523,1,1,0,0,0,.167.567,1.916,1.916,0,0,0,.475.475,5.037,5.037,0,0,0,.747.439q.439.215.993.444a11.067,11.067,0,0,1,1.358.672,4.827,4.827,0,0,1,1.033.8,3.133,3.133,0,0,1,.659,1.024,3.618,3.618,0,0,1,.229,1.34,3.59,3.59,0,0,1-.4,1.771A3.247,3.247,0,0,1,8.909-.611a4.707,4.707,0,0,1-1.6.637A9.219,9.219,0,0,1,5.393.22,10.678,10.678,0,0,1,3.42.044,5.956,5.956,0,0,1,1.8-.483Zm19.522-9.809H17.726V0H14.878V-10.292H11.3V-12.6h10.02ZM32.845,0H29.751l-.9-2.8H24.372L23.484,0H20.408L25-12.6h3.366ZM28.2-4.983,26.851-9.22a5.521,5.521,0,0,1-.211-1.134h-.07a4.807,4.807,0,0,1-.22,1.1L24.979-4.983ZM44.993,0H41.732l-1.96-3.243q-.22-.369-.422-.659a3.662,3.662,0,0,0-.409-.5,1.625,1.625,0,0,0-.431-.316,1.093,1.093,0,0,0-.488-.11h-.765V0H34.42V-12.6h4.5q4.588,0,4.588,3.428a3.55,3.55,0,0,1-.2,1.217,3.382,3.382,0,0,1-.571,1.006,3.621,3.621,0,0,1-.892.773,4.6,4.6,0,0,1-1.165.51v.035a1.806,1.806,0,0,1,.545.286,3.9,3.9,0,0,1,.51.461,6.438,6.438,0,0,1,.47.567q.224.3.409.593ZM37.259-10.477V-6.97h1.23A2.04,2.04,0,0,0,39.957-7.5a1.76,1.76,0,0,0,.563-1.327q0-1.652-1.978-1.652ZM-30.41,26.517V23.7a5.4,5.4,0,0,0,1.661.962,5.34,5.34,0,0,0,1.811.321,4.015,4.015,0,0,0,.936-.1,2.193,2.193,0,0,0,.668-.268,1.169,1.169,0,0,0,.4-.4,1.009,1.009,0,0,0,.132-.505,1.092,1.092,0,0,0-.211-.659,2.27,2.27,0,0,0-.576-.536,6.015,6.015,0,0,0-.866-.475q-.5-.229-1.081-.466a5.517,5.517,0,0,1-2.2-1.5,3.281,3.281,0,0,1-.725-2.145,3.416,3.416,0,0,1,.4-1.692,3.359,3.359,0,0,1,1.077-1.165,4.828,4.828,0,0,1,1.578-.672,8.106,8.106,0,0,1,1.9-.215,11.418,11.418,0,0,1,1.745.119,6.861,6.861,0,0,1,1.4.365V17.3a4.239,4.239,0,0,0-.69-.387,5.466,5.466,0,0,0-.769-.277,5.866,5.866,0,0,0-.787-.163,5.567,5.567,0,0,0-.743-.053,3.873,3.873,0,0,0-.879.092,2.254,2.254,0,0,0-.668.259,1.29,1.29,0,0,0-.422.4.948.948,0,0,0-.149.523,1,1,0,0,0,.167.567,1.916,1.916,0,0,0,.475.475,5.037,5.037,0,0,0,.747.439q.439.215.993.444a11.067,11.067,0,0,1,1.358.672,4.827,4.827,0,0,1,1.033.8,3.133,3.133,0,0,1,.659,1.024,3.618,3.618,0,0,1,.229,1.34,3.59,3.59,0,0,1-.4,1.771,3.247,3.247,0,0,1-1.085,1.16,4.707,4.707,0,0,1-1.6.637,9.219,9.219,0,0,1-1.92.193,10.678,10.678,0,0,1-1.973-.176A5.956,5.956,0,0,1-30.41,26.517Zm16,.7a5.867,5.867,0,0,1-4.412-1.762,6.327,6.327,0,0,1-1.705-4.592A6.779,6.779,0,0,1-18.8,16.031a6,6,0,0,1,4.588-1.846,5.721,5.721,0,0,1,4.364,1.767A6.513,6.513,0,0,1-8.181,20.61,6.671,6.671,0,0,1-9.908,25.4,5.928,5.928,0,0,1-14.412,27.22Zm.123-10.591a2.858,2.858,0,0,0-2.373,1.121,4.672,4.672,0,0,0-.879,2.966,4.586,4.586,0,0,0,.879,2.962,2.816,2.816,0,0,0,2.3,1.09,2.844,2.844,0,0,0,2.329-1.059,4.536,4.536,0,0,0,.861-2.94A4.915,4.915,0,0,0-12,17.719,2.722,2.722,0,0,0-14.289,16.629ZM2.948,26.552a8.311,8.311,0,0,1-3.6.668,6.074,6.074,0,0,1-4.562-1.705,6.233,6.233,0,0,1-1.661-4.544,6.659,6.659,0,0,1,1.868-4.9A6.533,6.533,0,0,1-.163,14.186a9.065,9.065,0,0,1,3.111.466v2.733a5.513,5.513,0,0,0-2.883-.756A3.824,3.824,0,0,0-2.8,17.745a4.142,4.142,0,0,0-1.09,3.023,4.062,4.062,0,0,0,1.028,2.914A3.633,3.633,0,0,0-.093,24.768a5.905,5.905,0,0,0,3.041-.809ZM7.986,27H5.147V14.4H7.986Zm13.95,0H18.842l-.9-2.8H13.463L12.575,27H9.5l4.588-12.6h3.366ZM17.3,22.017,15.942,17.78a5.521,5.521,0,0,1-.211-1.134h-.07a4.807,4.807,0,0,1-.22,1.1L14.07,22.017ZM31.017,27H23.511V14.4H26.35V24.7h4.667Z" transform="translate(1002 2723)" fill="#212429"/>
    <path id="Trazado_979002" data-name="Trazado 979002" d="M-35.373-.448a8.311,8.311,0,0,1-3.6.668,6.074,6.074,0,0,1-4.562-1.705A6.233,6.233,0,0,1-45.2-6.029a6.659,6.659,0,0,1,1.868-4.9,6.533,6.533,0,0,1,4.847-1.881,9.065,9.065,0,0,1,3.111.466v2.733a5.513,5.513,0,0,0-2.883-.756,3.824,3.824,0,0,0-2.865,1.116,4.142,4.142,0,0,0-1.09,3.023,4.062,4.062,0,0,0,1.028,2.914,3.633,3.633,0,0,0,2.769,1.085,5.905,5.905,0,0,0,3.041-.809Zm7.306.668A5.867,5.867,0,0,1-32.48-1.542a6.327,6.327,0,0,1-1.705-4.592,6.779,6.779,0,0,1,1.731-4.834,6,6,0,0,1,4.588-1.846A5.721,5.721,0,0,1-23.5-11.048,6.513,6.513,0,0,1-21.837-6.39,6.671,6.671,0,0,1-23.564-1.6,5.928,5.928,0,0,1-28.068.22Zm.123-10.591A2.858,2.858,0,0,0-30.318-9.25,4.672,4.672,0,0,0-31.2-6.284a4.586,4.586,0,0,0,.879,2.962,2.816,2.816,0,0,0,2.3,1.09,2.844,2.844,0,0,0,2.329-1.059,4.536,4.536,0,0,0,.861-2.94,4.915,4.915,0,0,0-.835-3.05A2.722,2.722,0,0,0-27.945-10.371ZM-8.836,0h-2.848V-5.133H-16.9V0h-2.839V-12.6H-16.9v5.027h5.221V-12.6h2.848ZM1.607,0H-5.951V-12.6H1.317v2.312h-4.43v2.8H1.01v2.3H-3.112V-2.3h4.72ZM3.051-.483V-3.3a5.4,5.4,0,0,0,1.661.962,5.34,5.34,0,0,0,1.811.321,4.015,4.015,0,0,0,.936-.1,2.193,2.193,0,0,0,.668-.268,1.169,1.169,0,0,0,.4-.4,1.009,1.009,0,0,0,.132-.505,1.092,1.092,0,0,0-.211-.659,2.27,2.27,0,0,0-.576-.536,6.015,6.015,0,0,0-.866-.475q-.5-.229-1.081-.466a5.517,5.517,0,0,1-2.2-1.5A3.281,3.281,0,0,1,3-9.07a3.416,3.416,0,0,1,.4-1.692A3.359,3.359,0,0,1,4.47-11.927,4.828,4.828,0,0,1,6.048-12.6a8.106,8.106,0,0,1,1.9-.215,11.418,11.418,0,0,1,1.745.119,6.861,6.861,0,0,1,1.4.365V-9.7a4.239,4.239,0,0,0-.69-.387,5.466,5.466,0,0,0-.769-.277,5.866,5.866,0,0,0-.787-.163,5.567,5.567,0,0,0-.743-.053,3.873,3.873,0,0,0-.879.092,2.254,2.254,0,0,0-.668.259,1.29,1.29,0,0,0-.422.4.948.948,0,0,0-.149.523,1,1,0,0,0,.167.567,1.916,1.916,0,0,0,.475.475,5.037,5.037,0,0,0,.747.439q.439.215.993.444a11.067,11.067,0,0,1,1.358.672,4.827,4.827,0,0,1,1.033.8,3.133,3.133,0,0,1,.659,1.024,3.618,3.618,0,0,1,.229,1.34,3.59,3.59,0,0,1-.4,1.771,3.247,3.247,0,0,1-1.085,1.16,4.707,4.707,0,0,1-1.6.637A9.219,9.219,0,0,1,6.645.22,10.678,10.678,0,0,1,4.672.044,5.956,5.956,0,0,1,3.051-.483ZM16.561,0H13.722V-12.6h2.839Zm8.193.22a5.867,5.867,0,0,1-4.412-1.762,6.327,6.327,0,0,1-1.705-4.592,6.779,6.779,0,0,1,1.731-4.834,6,6,0,0,1,4.588-1.846,5.721,5.721,0,0,1,4.364,1.767A6.513,6.513,0,0,1,30.986-6.39,6.671,6.671,0,0,1,29.259-1.6,5.928,5.928,0,0,1,24.754.22Zm.123-10.591A2.858,2.858,0,0,0,22.5-9.25a4.672,4.672,0,0,0-.879,2.966A4.586,4.586,0,0,0,22.5-3.322a2.816,2.816,0,0,0,2.3,1.09,2.844,2.844,0,0,0,2.329-1.059A4.536,4.536,0,0,0,28-6.231a4.915,4.915,0,0,0-.835-3.05A2.722,2.722,0,0,0,24.878-10.371Zm2.865-6.24-2.751,2.839h-2l2.285-2.839ZM44.409,0H41.543L36.349-7.919a11.451,11.451,0,0,1-.633-1.046h-.035q.07.668.07,2.039V0H33.071V-12.6h3.059l5,7.673q.343.519.633,1.028H41.8a13.476,13.476,0,0,1-.07-1.731V-12.6h2.681ZM-30.41,26.517V23.7a5.4,5.4,0,0,0,1.661.962,5.34,5.34,0,0,0,1.811.321,4.015,4.015,0,0,0,.936-.1,2.193,2.193,0,0,0,.668-.268,1.169,1.169,0,0,0,.4-.4,1.009,1.009,0,0,0,.132-.505,1.092,1.092,0,0,0-.211-.659,2.27,2.27,0,0,0-.576-.536,6.015,6.015,0,0,0-.866-.475q-.5-.229-1.081-.466a5.517,5.517,0,0,1-2.2-1.5,3.281,3.281,0,0,1-.725-2.145,3.416,3.416,0,0,1,.4-1.692,3.359,3.359,0,0,1,1.077-1.165,4.828,4.828,0,0,1,1.578-.672,8.106,8.106,0,0,1,1.9-.215,11.418,11.418,0,0,1,1.745.119,6.861,6.861,0,0,1,1.4.365V17.3a4.239,4.239,0,0,0-.69-.387,5.466,5.466,0,0,0-.769-.277,5.866,5.866,0,0,0-.787-.163,5.567,5.567,0,0,0-.743-.053,3.873,3.873,0,0,0-.879.092,2.254,2.254,0,0,0-.668.259,1.29,1.29,0,0,0-.422.4.948.948,0,0,0-.149.523,1,1,0,0,0,.167.567,1.916,1.916,0,0,0,.475.475,5.037,5.037,0,0,0,.747.439q.439.215.993.444a11.067,11.067,0,0,1,1.358.672,4.827,4.827,0,0,1,1.033.8,3.133,3.133,0,0,1,.659,1.024,3.618,3.618,0,0,1,.229,1.34,3.59,3.59,0,0,1-.4,1.771,3.247,3.247,0,0,1-1.085,1.16,4.707,4.707,0,0,1-1.6.637,9.219,9.219,0,0,1-1.92.193,10.678,10.678,0,0,1-1.973-.176A5.956,5.956,0,0,1-30.41,26.517Zm16,.7a5.867,5.867,0,0,1-4.412-1.762,6.327,6.327,0,0,1-1.705-4.592A6.779,6.779,0,0,1-18.8,16.031a6,6,0,0,1,4.588-1.846,5.721,5.721,0,0,1,4.364,1.767A6.513,6.513,0,0,1-8.181,20.61,6.671,6.671,0,0,1-9.908,25.4,5.928,5.928,0,0,1-14.412,27.22Zm.123-10.591a2.858,2.858,0,0,0-2.373,1.121,4.672,4.672,0,0,0-.879,2.966,4.586,4.586,0,0,0,.879,2.962,2.816,2.816,0,0,0,2.3,1.09,2.844,2.844,0,0,0,2.329-1.059,4.536,4.536,0,0,0,.861-2.94A4.915,4.915,0,0,0-12,17.719,2.722,2.722,0,0,0-14.289,16.629ZM2.948,26.552a8.311,8.311,0,0,1-3.6.668,6.074,6.074,0,0,1-4.562-1.705,6.233,6.233,0,0,1-1.661-4.544,6.659,6.659,0,0,1,1.868-4.9A6.533,6.533,0,0,1-.163,14.186a9.065,9.065,0,0,1,3.111.466v2.733a5.513,5.513,0,0,0-2.883-.756A3.824,3.824,0,0,0-2.8,17.745a4.142,4.142,0,0,0-1.09,3.023,4.062,4.062,0,0,0,1.028,2.914A3.633,3.633,0,0,0-.093,24.768a5.905,5.905,0,0,0,3.041-.809ZM7.986,27H5.147V14.4H7.986Zm13.95,0H18.842l-.9-2.8H13.463L12.575,27H9.5l4.588-12.6h3.366ZM17.3,22.017,15.942,17.78a5.521,5.521,0,0,1-.211-1.134h-.07a4.807,4.807,0,0,1-.22,1.1L14.07,22.017ZM31.017,27H23.511V14.4H26.35V24.7h4.667Z" transform="translate(1118 2888)" fill="#212429"/>
    <path id="Trazado_979003" data-name="Trazado 979003" d="M10.477-.448a8.311,8.311,0,0,1-3.6.668A6.074,6.074,0,0,1,2.312-1.485,6.233,6.233,0,0,1,.65-6.029a6.659,6.659,0,0,1,1.868-4.9,6.533,6.533,0,0,1,4.847-1.881,9.065,9.065,0,0,1,3.111.466v2.733a5.513,5.513,0,0,0-2.883-.756A3.824,3.824,0,0,0,4.729-9.255a4.142,4.142,0,0,0-1.09,3.023A4.062,4.062,0,0,0,4.667-3.318,3.633,3.633,0,0,0,7.436-2.232a5.905,5.905,0,0,0,3.041-.809ZM17.782.22A5.867,5.867,0,0,1,13.37-1.542a6.327,6.327,0,0,1-1.705-4.592A6.779,6.779,0,0,1,13.4-10.969a6,6,0,0,1,4.588-1.846,5.721,5.721,0,0,1,4.364,1.767A6.513,6.513,0,0,1,24.014-6.39,6.671,6.671,0,0,1,22.286-1.6,5.928,5.928,0,0,1,17.782.22Zm.123-10.591A2.858,2.858,0,0,0,15.532-9.25a4.672,4.672,0,0,0-.879,2.966,4.586,4.586,0,0,0,.879,2.962,2.816,2.816,0,0,0,2.3,1.09,2.844,2.844,0,0,0,2.329-1.059,4.536,4.536,0,0,0,.861-2.94,4.915,4.915,0,0,0-.835-3.05A2.722,2.722,0,0,0,17.905-10.371ZM40.468,0h-2.8V-7.541q0-1.222.105-2.7H37.7a13.278,13.278,0,0,1-.4,1.67L34.351,0h-2.32L29.025-8.481a16.5,16.5,0,0,1-.4-1.758H28.55q.114,1.863.114,3.27V0H26.107V-12.6h4.157L32.84-5.133a10.519,10.519,0,0,1,.448,1.8h.053a18.141,18.141,0,0,1,.5-1.819L36.417-12.6h4.052Zm5.706-4.342V0H43.335V-12.6h4.447q4.764,0,4.764,4.017A3.854,3.854,0,0,1,51.18-5.515a5.414,5.414,0,0,1-3.652,1.173Zm0-6.082V-6.5h1.116q2.268,0,2.268-1.986,0-1.942-2.268-1.942ZM64.967,0H61.706l-1.96-3.243q-.22-.369-.422-.659a3.662,3.662,0,0,0-.409-.5,1.625,1.625,0,0,0-.431-.316A1.093,1.093,0,0,0,58-4.825h-.765V0H54.394V-12.6h4.5q4.588,0,4.588,3.428a3.55,3.55,0,0,1-.2,1.217,3.382,3.382,0,0,1-.571,1.006,3.621,3.621,0,0,1-.892.773,4.6,4.6,0,0,1-1.165.51v.035a1.806,1.806,0,0,1,.545.286,3.9,3.9,0,0,1,.51.461,6.438,6.438,0,0,1,.47.567q.224.3.409.593ZM57.233-10.477V-6.97h1.23A2.04,2.04,0,0,0,59.931-7.5a1.76,1.76,0,0,0,.563-1.327q0-1.652-1.978-1.652ZM71.3.22a5.867,5.867,0,0,1-4.412-1.762A6.327,6.327,0,0,1,65.18-6.135a6.779,6.779,0,0,1,1.731-4.834A6,6,0,0,1,71.5-12.814a5.721,5.721,0,0,1,4.364,1.767A6.513,6.513,0,0,1,77.529-6.39,6.671,6.671,0,0,1,75.8-1.6,5.928,5.928,0,0,1,71.3.22Zm.123-10.591A2.858,2.858,0,0,0,69.047-9.25a4.672,4.672,0,0,0-.879,2.966,4.586,4.586,0,0,0,.879,2.962,2.816,2.816,0,0,0,2.3,1.09,2.844,2.844,0,0,0,2.329-1.059,4.536,4.536,0,0,0,.861-2.94,4.915,4.915,0,0,0-.835-3.05A2.722,2.722,0,0,0,71.42-10.371ZM93.983,0h-2.8V-7.541q0-1.222.105-2.7h-.07a13.277,13.277,0,0,1-.4,1.67L87.866,0h-2.32L82.54-8.481a16.5,16.5,0,0,1-.4-1.758h-.079q.114,1.863.114,3.27V0H79.622V-12.6h4.157l2.575,7.471a10.519,10.519,0,0,1,.448,1.8h.053a18.143,18.143,0,0,1,.5-1.819L89.932-12.6h4.052Zm5.706,0H96.85V-12.6h2.839Zm2.287-.483V-3.3a5.4,5.4,0,0,0,1.661.962,5.34,5.34,0,0,0,1.811.321,4.015,4.015,0,0,0,.936-.1,2.193,2.193,0,0,0,.668-.268,1.169,1.169,0,0,0,.4-.4,1.009,1.009,0,0,0,.132-.505,1.092,1.092,0,0,0-.211-.659,2.27,2.27,0,0,0-.576-.536,6.015,6.015,0,0,0-.866-.475q-.5-.229-1.081-.466a5.517,5.517,0,0,1-2.2-1.5,3.281,3.281,0,0,1-.725-2.145,3.416,3.416,0,0,1,.4-1.692,3.359,3.359,0,0,1,1.077-1.165,4.828,4.828,0,0,1,1.578-.672,8.106,8.106,0,0,1,1.9-.215,11.418,11.418,0,0,1,1.745.119,6.861,6.861,0,0,1,1.4.365V-9.7a4.239,4.239,0,0,0-.69-.387,5.466,5.466,0,0,0-.769-.277,5.866,5.866,0,0,0-.787-.163,5.567,5.567,0,0,0-.743-.053,3.873,3.873,0,0,0-.879.092,2.254,2.254,0,0,0-.668.259,1.29,1.29,0,0,0-.422.4.948.948,0,0,0-.149.523,1,1,0,0,0,.167.567,1.916,1.916,0,0,0,.475.475,5.037,5.037,0,0,0,.747.439q.439.215.993.444a11.067,11.067,0,0,1,1.358.672,4.827,4.827,0,0,1,1.033.8,3.133,3.133,0,0,1,.659,1.024,3.618,3.618,0,0,1,.229,1.34,3.59,3.59,0,0,1-.4,1.771,3.247,3.247,0,0,1-1.085,1.16,4.707,4.707,0,0,1-1.6.637,9.219,9.219,0,0,1-1.92.193A10.678,10.678,0,0,1,103.6.044,5.956,5.956,0,0,1,101.976-.483Zm16,.7a5.867,5.867,0,0,1-4.412-1.762,6.327,6.327,0,0,1-1.705-4.592,6.779,6.779,0,0,1,1.731-4.834,6,6,0,0,1,4.588-1.846,5.721,5.721,0,0,1,4.364,1.767,6.513,6.513,0,0,1,1.666,4.658,6.671,6.671,0,0,1-1.727,4.79A5.928,5.928,0,0,1,117.974.22Zm.123-10.591a2.858,2.858,0,0,0-2.373,1.121,4.672,4.672,0,0,0-.879,2.966,4.586,4.586,0,0,0,.879,2.962,2.816,2.816,0,0,0,2.3,1.09,2.844,2.844,0,0,0,2.329-1.059,4.536,4.536,0,0,0,.861-2.94,4.915,4.915,0,0,0-.835-3.05A2.722,2.722,0,0,0,118.1-10.371Z" transform="translate(1055 3103)" fill="#212429"/>
    <path id="Trazado_979004" data-name="Trazado 979004" d="M-19.494-12.6-23.836,0h-3.217l-4.289-12.6h3.059l2.628,8.771A6.282,6.282,0,0,1-25.4-2.575h.053a7.1,7.1,0,0,1,.272-1.292l2.61-8.736ZM-7.829,0h-3.094l-.9-2.8H-16.3L-17.19,0h-3.076l4.588-12.6h3.366ZM-12.47-4.983-13.824-9.22a5.521,5.521,0,0,1-.211-1.134h-.07a4.807,4.807,0,0,1-.22,1.1L-15.7-4.983ZM1.252,0H-6.254V-12.6h2.839V-2.3H1.252ZM7.828.22A5.867,5.867,0,0,1,3.415-1.542,6.327,6.327,0,0,1,1.71-6.135a6.779,6.779,0,0,1,1.731-4.834A6,6,0,0,1,8.03-12.814a5.721,5.721,0,0,1,4.364,1.767A6.513,6.513,0,0,1,14.059-6.39,6.671,6.671,0,0,1,12.332-1.6,5.928,5.928,0,0,1,7.828.22Zm.123-10.591A2.858,2.858,0,0,0,5.578-9.25,4.672,4.672,0,0,0,4.7-6.284a4.586,4.586,0,0,0,.879,2.962,2.816,2.816,0,0,0,2.3,1.09,2.844,2.844,0,0,0,2.329-1.059,4.536,4.536,0,0,0,.861-2.94,4.915,4.915,0,0,0-.835-3.05A2.722,2.722,0,0,0,7.951-10.371ZM26.726,0H23.465l-1.96-3.243q-.22-.369-.422-.659a3.662,3.662,0,0,0-.409-.5,1.625,1.625,0,0,0-.431-.316,1.093,1.093,0,0,0-.488-.11h-.765V0H16.153V-12.6h4.5q4.588,0,4.588,3.428a3.55,3.55,0,0,1-.2,1.217,3.382,3.382,0,0,1-.571,1.006,3.621,3.621,0,0,1-.892.773,4.6,4.6,0,0,1-1.165.51v.035a1.806,1.806,0,0,1,.545.286,3.9,3.9,0,0,1,.51.461,6.438,6.438,0,0,1,.47.567q.224.3.409.593ZM18.991-10.477V-6.97h1.23A2.04,2.04,0,0,0,21.69-7.5a1.76,1.76,0,0,0,.563-1.327q0-1.652-1.978-1.652ZM-49.082,26.552a8.311,8.311,0,0,1-3.6.668,6.074,6.074,0,0,1-4.562-1.705,6.233,6.233,0,0,1-1.661-4.544,6.659,6.659,0,0,1,1.868-4.9,6.533,6.533,0,0,1,4.847-1.881,9.065,9.065,0,0,1,3.111.466v2.733a5.513,5.513,0,0,0-2.883-.756,3.824,3.824,0,0,0-2.865,1.116,4.142,4.142,0,0,0-1.09,3.023,4.062,4.062,0,0,0,1.028,2.914,3.633,3.633,0,0,0,2.769,1.085,5.905,5.905,0,0,0,3.041-.809Zm7.306.668a5.867,5.867,0,0,1-4.412-1.762,6.327,6.327,0,0,1-1.705-4.592,6.779,6.779,0,0,1,1.731-4.834,6,6,0,0,1,4.588-1.846,5.721,5.721,0,0,1,4.364,1.767,6.513,6.513,0,0,1,1.666,4.658,6.671,6.671,0,0,1-1.727,4.79A5.928,5.928,0,0,1-41.776,27.22Zm.123-10.591a2.858,2.858,0,0,0-2.373,1.121,4.672,4.672,0,0,0-.879,2.966,4.586,4.586,0,0,0,.879,2.962,2.816,2.816,0,0,0,2.3,1.09,2.844,2.844,0,0,0,2.329-1.059,4.536,4.536,0,0,0,.861-2.94,4.915,4.915,0,0,0-.835-3.05A2.722,2.722,0,0,0-41.653,16.629ZM-19.09,27h-2.8V19.459q0-1.222.105-2.7h-.07a13.277,13.277,0,0,1-.4,1.67L-25.207,27h-2.32l-3.006-8.481a16.5,16.5,0,0,1-.4-1.758h-.079q.114,1.863.114,3.27V27h-2.558V14.4h4.157l2.575,7.471a10.519,10.519,0,0,1,.448,1.8h.053a18.143,18.143,0,0,1,.5-1.819l2.575-7.453h4.052Zm5.706-4.342V27h-2.839V14.4h4.447q4.764,0,4.764,4.017a3.854,3.854,0,0,1-1.367,3.072,5.414,5.414,0,0,1-3.652,1.173Zm0-6.082V20.5h1.116Q-10,20.5-10,18.519q0-1.942-2.268-1.942ZM4.855,27H1.761l-.9-2.8H-3.618L-4.505,27H-7.581l4.588-12.6H.373ZM.214,22.017-1.139,17.78a5.521,5.521,0,0,1-.211-1.134h-.07a4.807,4.807,0,0,1-.22,1.1l-1.371,4.271ZM17,27H13.743l-1.96-3.243q-.22-.369-.422-.659a3.662,3.662,0,0,0-.409-.5,1.625,1.625,0,0,0-.431-.316,1.093,1.093,0,0,0-.488-.11H9.269V27H6.43V14.4h4.5q4.588,0,4.588,3.428a3.55,3.55,0,0,1-.2,1.217,3.382,3.382,0,0,1-.571,1.006,3.621,3.621,0,0,1-.892.773,4.6,4.6,0,0,1-1.165.51v.035a1.806,1.806,0,0,1,.545.286,3.9,3.9,0,0,1,.51.461,6.438,6.438,0,0,1,.47.567q.224.3.409.593ZM9.269,16.523V20.03H10.5a2.04,2.04,0,0,0,1.468-.527,1.76,1.76,0,0,0,.563-1.327q0-1.652-1.978-1.652Zm17.4.185H23.078V27H20.231V16.708H16.654V14.4h10.02ZM31.21,27H28.371V14.4H31.21Zm2.867,0V14.4h4.465q6.715,0,6.715,6.144a6.212,6.212,0,0,1-1.833,4.7A6.757,6.757,0,0,1,38.542,27Zm2.839-10.292V24.7h1.406a3.8,3.8,0,0,0,2.9-1.107,4.2,4.2,0,0,0,1.05-3.015,3.812,3.812,0,0,0-1.042-2.834A3.971,3.971,0,0,0,38.3,16.708ZM52.677,27.22a5.867,5.867,0,0,1-4.412-1.762,6.327,6.327,0,0,1-1.705-4.592,6.779,6.779,0,0,1,1.731-4.834,6,6,0,0,1,4.588-1.846,5.721,5.721,0,0,1,4.364,1.767,6.513,6.513,0,0,1,1.666,4.658,6.671,6.671,0,0,1-1.727,4.79A5.928,5.928,0,0,1,52.677,27.22ZM52.8,16.629a2.858,2.858,0,0,0-2.373,1.121,4.672,4.672,0,0,0-.879,2.966,4.586,4.586,0,0,0,.879,2.962,3.033,3.033,0,0,0,4.632.031,4.536,4.536,0,0,0,.861-2.94,4.915,4.915,0,0,0-.835-3.05A2.722,2.722,0,0,0,52.8,16.629Z" transform="translate(800 2657)" fill="#212429"/>
    <path id="Trazado_979005" data-name="Trazado 979005" d="M-8.747.366q-7.5,0-7.5-10.532,0-5.464,2.029-8.328a6.76,6.76,0,0,1,5.881-2.864q7.324,0,7.324,10.708,0,5.332-2,8.174A6.587,6.587,0,0,1-8.747.366Zm.205-18.193q-3,0-3,7.544,0,7.1,2.944,7.1,2.871,0,2.871-7.324T-8.542-17.827Zm20.731-3.647V0H7.575V-16.26a5.526,5.526,0,0,1-.9.637,9.3,9.3,0,0,1-1.106.542,9.875,9.875,0,0,1-1.216.41,8.88,8.88,0,0,1-1.245.242v-3.9a19.248,19.248,0,0,0,3.4-1.348,19.34,19.34,0,0,0,2.886-1.8Z" transform="translate(481 3057)" fill="#212429"/>
    <path id="Trazado_979006" data-name="Trazado 979006" d="M-8.747.366q-7.5,0-7.5-10.532,0-5.464,2.029-8.328a6.76,6.76,0,0,1,5.881-2.864q7.324,0,7.324,10.708,0,5.332-2,8.174A6.587,6.587,0,0,1-8.747.366Zm.205-18.193q-3,0-3,7.544,0,7.1,2.944,7.1,2.871,0,2.871-7.324T-8.542-17.827ZM6.286-3.838h8.906V0H1.217V-1.582a7.364,7.364,0,0,1,.542-2.893,9.6,9.6,0,0,1,1.362-2.3,11.817,11.817,0,0,1,1.794-1.8Q5.89-9.36,6.769-9.99q.923-.659,1.619-1.26A9.224,9.224,0,0,0,9.56-12.444a4.539,4.539,0,0,0,.71-1.2,3.572,3.572,0,0,0,.234-1.3,2.605,2.605,0,0,0-.762-2.036,3.386,3.386,0,0,0-2.329-.688,7.823,7.823,0,0,0-5.186,2.153v-4.072A11.131,11.131,0,0,1,8.41-21.357a9.129,9.129,0,0,1,2.864.417,6.059,6.059,0,0,1,2.146,1.194,5.092,5.092,0,0,1,1.34,1.882,6.352,6.352,0,0,1,.461,2.468,6.96,6.96,0,0,1-.447,2.578,7.922,7.922,0,0,1-1.187,2.051,10.763,10.763,0,0,1-1.707,1.692q-.967.769-2.007,1.487-.7.5-1.355.989a12.846,12.846,0,0,0-1.15.967,5.248,5.248,0,0,0-.791.93A1.606,1.606,0,0,0,6.286-3.838Z" transform="translate(481 2855)" fill="#212429"/>
    <path id="Trazado_979007" data-name="Trazado 979007" d="M-8.747.366q-7.5,0-7.5-10.532,0-5.464,2.029-8.328a6.76,6.76,0,0,1,5.881-2.864q7.324,0,7.324,10.708,0,5.332-2,8.174A6.587,6.587,0,0,1-8.747.366Zm.205-18.193q-3,0-3,7.544,0,7.1,2.944,7.1,2.871,0,2.871-7.324T-8.542-17.827ZM1.715-.688V-4.717A8.131,8.131,0,0,0,6.637-3.179,4.431,4.431,0,0,0,9.4-3.94a2.529,2.529,0,0,0,.989-2.124A2.414,2.414,0,0,0,9.164-8.232,6.337,6.337,0,0,0,5.8-8.994H3.854v-3.545h1.8q4.1,0,4.1-2.725,0-2.563-3.149-2.563a7.18,7.18,0,0,0-4.1,1.362v-3.779a11.328,11.328,0,0,1,5.156-1.113,7.781,7.781,0,0,1,5.017,1.45,4.615,4.615,0,0,1,1.794,3.765q0,4.116-4.175,5.156v.073a5.676,5.676,0,0,1,3.516,1.619A4.564,4.564,0,0,1,15.1-6.006a5.636,5.636,0,0,1-2.153,4.658A9.31,9.31,0,0,1,7,.366,11.494,11.494,0,0,1,1.715-.688Z" transform="translate(608 2689)" fill="#212429"/>
    <path id="Trazado_979008" data-name="Trazado 979008" d="M-8.747.366q-7.5,0-7.5-10.532,0-5.464,2.029-8.328a6.76,6.76,0,0,1,5.881-2.864q7.324,0,7.324,10.708,0,5.332-2,8.174A6.587,6.587,0,0,1-8.747.366Zm.205-18.193q-3,0-3,7.544,0,7.1,2.944,7.1,2.871,0,2.871-7.324T-8.542-17.827ZM2.082-.542V-4.5A8.635,8.635,0,0,0,6.667-3.179,4.307,4.307,0,0,0,9.53-4.05a2.934,2.934,0,0,0,1.033-2.366q0-3.12-4.409-3.12a32.649,32.649,0,0,0-3.75.249l.791-11.719H14.313v3.779H6.725l-.293,4.2Q7.56-13.11,8.38-13.11a7.164,7.164,0,0,1,5.068,1.7,5.934,5.934,0,0,1,1.831,4.57A6.746,6.746,0,0,1,13.1-1.648,8.386,8.386,0,0,1,7.179.366,12.663,12.663,0,0,1,2.082-.542Z" transform="translate(998 2689)" fill="#212429"/>
    <path id="Trazado_979009" data-name="Trazado 979009" d="M-8.747.366q-7.5,0-7.5-10.532,0-5.464,2.029-8.328a6.76,6.76,0,0,1,5.881-2.864q7.324,0,7.324,10.708,0,5.332-2,8.174A6.587,6.587,0,0,1-8.747.366Zm.205-18.193q-3,0-3,7.544,0,7.1,2.944,7.1,2.871,0,2.871-7.324T-8.542-17.827Zm22.488-3.179V-7.764h2.52v3.457h-2.52V0H9.728V-4.307H.573V-7.925q1.216-1.362,2.52-2.981t2.52-3.333q1.216-1.714,2.263-3.45a34.581,34.581,0,0,0,1.78-3.318ZM4.718-7.764h5.01V-15.1q-.513.952-1.113,1.926t-1.26,1.919q-.659.945-1.333,1.831T4.718-7.764Z" transform="translate(800 2619)" fill="#212429"/>
    <path id="Trazado_979010" data-name="Trazado 979010" d="M-8.747.366q-7.5,0-7.5-10.532,0-5.464,2.029-8.328a6.76,6.76,0,0,1,5.881-2.864q7.324,0,7.324,10.708,0,5.332-2,8.174A6.587,6.587,0,0,1-8.747.366Zm.205-18.193q-3,0-3,7.544,0,7.1,2.944,7.1,2.871,0,2.871-7.324T-8.542-17.827Zm24.8,10.84a7.7,7.7,0,0,1-.542,2.9A7.08,7.08,0,0,1,14.21-1.75,6.981,6.981,0,0,1,11.911-.2,7.405,7.405,0,0,1,9,.366,7.353,7.353,0,0,1,5.824-.293,6.4,6.4,0,0,1,3.459-2.2,8.938,8.938,0,0,1,1.979-5.273,15.166,15.166,0,0,1,1.466-9.39,16.947,16.947,0,0,1,2.133-14.3a11.283,11.283,0,0,1,1.9-3.772,8.554,8.554,0,0,1,3-2.424,8.908,8.908,0,0,1,3.955-.857,9.976,9.976,0,0,1,3.779.571v3.867a6.93,6.93,0,0,0-3.486-.908,4.872,4.872,0,0,0-2.124.454,4.7,4.7,0,0,0-1.633,1.289A6.233,6.233,0,0,0,6.454-14.07a8.964,8.964,0,0,0-.417,2.629h.088a5.1,5.1,0,0,1,4.409-2.065,5.745,5.745,0,0,1,2.358.469,5.116,5.116,0,0,1,1.8,1.326,6.081,6.081,0,0,1,1.157,2.058A8.211,8.211,0,0,1,16.261-6.987Zm-4.526.293q0-3.384-2.769-3.384a2.716,2.716,0,0,0-1.143.234,2.542,2.542,0,0,0-.879.659,3.007,3.007,0,0,0-.564,1,3.944,3.944,0,0,0-.2,1.282,4.957,4.957,0,0,0,.205,1.45A3.851,3.851,0,0,0,6.967-4.27a2.865,2.865,0,0,0,.886.8A2.262,2.262,0,0,0,9-3.179a2.474,2.474,0,0,0,1.135-.256A2.542,2.542,0,0,0,11-4.153a3.3,3.3,0,0,0,.549-1.113A5.078,5.078,0,0,0,11.735-6.694Z" transform="translate(1118 2855)" fill="#212429"/>
    <path id="Trazado_979011" data-name="Trazado 979011" d="M-8.747.366q-7.5,0-7.5-10.532,0-5.464,2.029-8.328a6.76,6.76,0,0,1,5.881-2.864q7.324,0,7.324,10.708,0,5.332-2,8.174A6.587,6.587,0,0,1-8.747.366Zm.205-18.193q-3,0-3,7.544,0,7.1,2.944,7.1,2.871,0,2.871-7.324T-8.542-17.827Zm24.568-.513q-1.406,2.534-2.52,4.753t-1.963,4.38a41.305,41.305,0,0,0-1.45,4.395A42.447,42.447,0,0,0,9.113,0H4.279A39.552,39.552,0,0,1,5.363-4.717a44.235,44.235,0,0,1,1.56-4.4q.886-2.131,1.963-4.153t2.278-3.955H1.408v-3.779H16.027Z" transform="translate(1118 3057)" fill="#212429"/>
    <g id="Trazado_979012" data-name="Trazado 979012" transform="translate(608 2798)" fill="#c9fff8">
      <path d="M 192 382.5 C 179.0738525390625 382.5 166.15625 381.1978454589844 153.6060028076172 378.6296997070312 C 141.3755493164062 376.126953125 129.3451995849609 372.3925476074219 117.849250793457 367.5302124023438 C 106.5616989135742 362.7559509277344 95.67469787597656 356.8466491699219 85.49069976806641 349.9664611816406 C 75.40305328369141 343.1513977050781 65.91705322265625 335.32470703125 57.29615020751953 326.703857421875 C 48.67530059814453 318.0829467773438 40.84859848022461 308.5969543457031 34.03355026245117 298.5093078613281 C 27.15335083007812 288.3252868652344 21.24404907226562 277.4382934570312 16.46980094909668 266.1507568359375 C 11.60744953155518 254.6548004150391 7.873050212860107 242.6244506835938 5.370299816131592 230.3939971923828 C 2.802150011062622 217.84375 1.5 204.9261474609375 1.5 192 C 1.5 179.0738525390625 2.802150011062622 166.15625 5.370299816131592 153.6060028076172 C 7.873050212860107 141.3755493164062 11.60744953155518 129.3451995849609 16.46980094909668 117.849250793457 C 21.24404907226562 106.5616989135742 27.15335083007812 95.67469787597656 34.03355026245117 85.49069976806641 C 40.84859848022461 75.40305328369141 48.67530059814453 65.91705322265625 57.29615020751953 57.29615020751953 C 65.91705322265625 48.67530059814453 75.40305328369141 40.84859848022461 85.49069976806641 34.03355026245117 C 95.67469787597656 27.15335083007812 106.5616989135742 21.24404907226562 117.849250793457 16.46980094909668 C 129.3451995849609 11.60744953155518 141.3755493164062 7.873050212860107 153.6060028076172 5.370299816131592 C 166.15625 2.802150011062622 179.0738525390625 1.5 192 1.5 C 204.9261474609375 1.5 217.84375 2.802150011062622 230.3939971923828 5.370299816131592 C 242.6244506835938 7.873050212860107 254.6548004150391 11.60744953155518 266.1507568359375 16.46980094909668 C 277.4382934570312 21.24404907226562 288.3252868652344 27.15335083007812 298.5093078613281 34.03355026245117 C 308.5969543457031 40.84859848022461 318.0829467773438 48.67530059814453 326.703857421875 57.29615020751953 C 335.32470703125 65.91705322265625 343.1513977050781 75.40305328369141 349.9664611816406 85.49069976806641 C 356.8466491699219 95.67469787597656 362.7559509277344 106.5616989135742 367.5302124023438 117.849250793457 C 372.3925476074219 129.3451995849609 376.126953125 141.3755493164062 378.6296997070312 153.6060028076172 C 381.1978454589844 166.15625 382.5 179.0738525390625 382.5 192 C 382.5 204.9261474609375 381.1978454589844 217.84375 378.6296997070312 230.3939971923828 C 376.126953125 242.6244506835938 372.3925476074219 254.6548004150391 367.5302124023438 266.1507568359375 C 362.7559509277344 277.4382934570312 356.8466491699219 288.3252868652344 349.9664611816406 298.5093078613281 C 343.1513977050781 308.5969543457031 335.32470703125 318.0829467773438 326.703857421875 326.703857421875 C 318.0829467773438 335.32470703125 308.5969543457031 343.1513977050781 298.5093078613281 349.9664611816406 C 288.3252868652344 356.8466491699219 277.4382934570312 362.7559509277344 266.1507568359375 367.5302124023438 C 254.6548004150391 372.3925476074219 242.6244506835938 376.126953125 230.3939971923828 378.6296997070312 C 217.84375 381.1978454589844 204.9261474609375 382.5 192 382.5 Z" stroke="none"/>
      <path d="M 192 3 C 179.1746520996094 3 166.3582000732422 4.291900634765625 153.9067535400391 6.83984375 C 141.7732543945312 9.32275390625 129.8383483886719 13.02749633789062 118.43359375 17.85134887695312 C 107.2351989746094 22.58786010742188 96.43414306640625 28.45050048828125 86.33041381835938 35.27645874023438 C 76.3218994140625 42.0380859375 66.91018676757812 49.80343627929688 58.35684204101562 58.35684204101562 C 49.80343627929688 66.91018676757812 42.0380859375 76.3218994140625 35.27645874023438 86.33041381835938 C 28.45050048828125 96.43414306640625 22.58786010742188 107.2351989746094 17.85134887695312 118.43359375 C 13.02749633789062 129.8383483886719 9.32275390625 141.7732543945312 6.83984375 153.9067535400391 C 4.291900634765625 166.3582000732422 3 179.1746520996094 3 192 C 3 204.8253479003906 4.291900634765625 217.6417999267578 6.83984375 230.0932464599609 C 9.32275390625 242.2267456054688 13.02749633789062 254.1616516113281 17.85134887695312 265.56640625 C 22.58786010742188 276.7648010253906 28.45050048828125 287.5658569335938 35.27645874023438 297.6696166992188 C 42.0380859375 307.6781005859375 49.80343627929688 317.0897827148438 58.35684204101562 325.6431579589844 C 66.91018676757812 334.196533203125 76.3218994140625 341.9619140625 86.33041381835938 348.7235412597656 C 96.43414306640625 355.5494995117188 107.2351989746094 361.4121398925781 118.43359375 366.1486511230469 C 129.8383483886719 370.9725036621094 141.7732543945312 374.67724609375 153.9067535400391 377.16015625 C 166.3582000732422 379.7080993652344 179.1746520996094 381 192 381 C 204.8253479003906 381 217.6417999267578 379.7080993652344 230.0932464599609 377.16015625 C 242.2267456054688 374.67724609375 254.1616516113281 370.9725036621094 265.56640625 366.1486511230469 C 276.7648010253906 361.4121398925781 287.5658569335938 355.5494995117188 297.6696166992188 348.7235412597656 C 307.6781005859375 341.9619140625 317.0897827148438 334.196533203125 325.6431579589844 325.6431579589844 C 334.196533203125 317.0897827148438 341.9619140625 307.6781005859375 348.7235412597656 297.6696166992188 C 355.5494995117188 287.5658569335938 361.4121398925781 276.7648010253906 366.1486511230469 265.56640625 C 370.9725036621094 254.1616516113281 374.67724609375 242.2267456054688 377.16015625 230.0932464599609 C 379.7080993652344 217.6417999267578 381 204.8253479003906 381 192 C 381 179.1746520996094 379.7080993652344 166.3582000732422 377.16015625 153.9067535400391 C 374.67724609375 141.7732543945312 370.9725036621094 129.8383483886719 366.1486511230469 118.43359375 C 361.4121398925781 107.2351989746094 355.5494995117188 96.43414306640625 348.7235412597656 86.33041381835938 C 341.9619140625 76.3218994140625 334.196533203125 66.91018676757812 325.6431579589844 58.35684204101562 C 317.0897827148438 49.80343627929688 307.6781005859375 42.0380859375 297.6696166992188 35.27645874023438 C 287.5658569335938 28.45050048828125 276.7648010253906 22.58786010742188 265.56640625 17.85134887695312 C 254.1616516113281 13.02749633789062 242.2267456054688 9.32275390625 230.0932464599609 6.83984375 C 217.6417999267578 4.291900634765625 204.8253479003906 3 192 3 M 192 0 C 298.0386352539062 0 384 85.96136474609375 384 192 C 384 298.0386352539062 298.0386352539062 384 192 384 C 85.96136474609375 384 0 298.0386352539062 0 192 C 0 85.96136474609375 85.96136474609375 0 192 0 Z" stroke="none" fill="#438b81"/>
    </g>
    <path id="Trazado_979013" data-name="Trazado 979013" d="M-90.075-7.41V0h-2.3V-19.605h5.387a7.11,7.11,0,0,1,4.874,1.531,5.467,5.467,0,0,1,1.729,4.32A5.942,5.942,0,0,1-82.3-9.187,7.339,7.339,0,0,1-87.491-7.41Zm0-10.117v8.039h2.406a5.38,5.38,0,0,0,3.63-1.087,3.848,3.848,0,0,0,1.251-3.069q0-3.883-4.594-3.883ZM-74.39,0h-2.3V-19.605h2.3Zm15.329,0H-69.233V-19.605h2.3V-2.078h7.875Zm19.007,0H-42.6l-2.078-5.5h-8.312L-54.943,0H-57.5l7.52-19.605H-47.6Zm-5.373-7.561L-48.5-15.914a8,8,0,0,1-.3-1.312h-.055a7.323,7.323,0,0,1-.314,1.313l-3.049,8.354ZM-23.112,0h-2.734l-3.281-5.5A11.97,11.97,0,0,0-30-6.8a4.988,4.988,0,0,0-.868-.882,3.007,3.007,0,0,0-.957-.5,3.935,3.935,0,0,0-1.155-.157H-34.87V0h-2.3V-19.605h5.852a8.339,8.339,0,0,1,2.372.321,5.307,5.307,0,0,1,1.887.978,4.543,4.543,0,0,1,1.251,1.634,5.418,5.418,0,0,1,.451,2.29,5.514,5.514,0,0,1-.308,1.88,4.91,4.91,0,0,1-.875,1.524A5.3,5.3,0,0,1-27.9-9.837a6.98,6.98,0,0,1-1.8.731v.055a4.135,4.135,0,0,1,.854.5,4.7,4.7,0,0,1,.69.663,8.783,8.783,0,0,1,.649.868q.321.485.718,1.128ZM-34.87-17.527v7.109h3.117a4.728,4.728,0,0,0,1.593-.26,3.687,3.687,0,0,0,1.265-.745,3.379,3.379,0,0,0,.834-1.189,3.982,3.982,0,0,0,.3-1.579,3.073,3.073,0,0,0-1.019-2.454,4.376,4.376,0,0,0-2.946-.882ZM-10.026,0H-20.416V-19.605h9.953v2.078h-7.656v6.521h7.082v2.064h-7.082v6.863h8.094Zm2.86-.793V-3.5a5.257,5.257,0,0,0,1.114.738,9.028,9.028,0,0,0,1.367.554,10.884,10.884,0,0,0,1.442.349,8.042,8.042,0,0,0,1.34.123,5.248,5.248,0,0,0,3.165-.786A2.659,2.659,0,0,0,2.309-4.785,2.657,2.657,0,0,0,1.96-6.166,3.927,3.927,0,0,0,1-7.239a9.564,9.564,0,0,0-1.456-.93q-.841-.444-1.812-.937-1.025-.52-1.914-1.053A8.294,8.294,0,0,1-5.73-11.334,4.9,4.9,0,0,1-6.762-12.79,4.507,4.507,0,0,1-7.138-14.7a4.485,4.485,0,0,1,.588-2.331,5.042,5.042,0,0,1,1.545-1.634,7,7,0,0,1,2.181-.957,9.985,9.985,0,0,1,2.5-.314,9.562,9.562,0,0,1,4.225.7v2.584a7.658,7.658,0,0,0-4.457-1.2,7.33,7.33,0,0,0-1.5.157,4.248,4.248,0,0,0-1.34.513,2.968,2.968,0,0,0-.957.916A2.431,2.431,0,0,0-4.732-14.9a2.815,2.815,0,0,0,.28,1.3,3.183,3.183,0,0,0,.827,1,8.238,8.238,0,0,0,1.333.875q.786.424,1.812.93,1.053.52,2,1.094A9.124,9.124,0,0,1,3.17-8.436,5.65,5.65,0,0,1,4.3-6.891a4.343,4.343,0,0,1,.417,1.941A4.923,4.923,0,0,1,4.148-2.5,4.657,4.657,0,0,1,2.617-.861,6.688,6.688,0,0,1,.4.048a12.167,12.167,0,0,1-2.652.28A10.808,10.808,0,0,1-3.406.253Q-4.089.178-4.8.034A11.379,11.379,0,0,1-6.147-.321,4.19,4.19,0,0,1-7.165-.793ZM16.3,0V-19.605h5.414q10.363,0,10.363,9.557A9.631,9.631,0,0,1,29.2-2.755,10.676,10.676,0,0,1,21.5,0Zm2.3-17.527V-2.078h2.926a8.3,8.3,0,0,0,6-2.064,7.739,7.739,0,0,0,2.146-5.852q0-7.533-8.012-7.533ZM46.327,0H35.937V-19.605H45.89v2.078H38.234v6.521h7.082v2.064H38.234v6.863h8.094ZM67.948,0H57.776V-19.605h2.3V-2.078h7.875ZM86.955,0H84.412L82.334-5.5H74.021L72.066,0H69.51l7.52-19.605h2.379ZM81.582-7.561l-3.076-8.354a8,8,0,0,1-.3-1.312H78.15a7.323,7.323,0,0,1-.314,1.313L74.787-7.561ZM-102.012,36h-2.734l-3.281-5.5A11.97,11.97,0,0,0-108.9,29.2a4.988,4.988,0,0,0-.868-.882,3.007,3.007,0,0,0-.957-.5,3.935,3.935,0,0,0-1.155-.157h-1.887V36h-2.3V16.395h5.852a8.339,8.339,0,0,1,2.372.321,5.307,5.307,0,0,1,1.887.978,4.543,4.543,0,0,1,1.251,1.634,5.418,5.418,0,0,1,.451,2.29,5.514,5.514,0,0,1-.308,1.88,4.91,4.91,0,0,1-.875,1.524,5.3,5.3,0,0,1-1.367,1.142,6.98,6.98,0,0,1-1.8.731v.055a4.135,4.135,0,0,1,.854.5,4.7,4.7,0,0,1,.69.663,8.783,8.783,0,0,1,.649.868q.321.485.718,1.128ZM-113.77,18.473v7.109h3.117a4.728,4.728,0,0,0,1.593-.26,3.687,3.687,0,0,0,1.265-.745,3.379,3.379,0,0,0,.834-1.189,3.982,3.982,0,0,0,.3-1.579,3.073,3.073,0,0,0-1.019-2.454,4.376,4.376,0,0,0-2.946-.882ZM-88.925,36H-99.316V16.395h9.953v2.078h-7.656v6.521h7.082v2.064h-7.082v6.863h8.094Zm2.86-.793V32.5a5.257,5.257,0,0,0,1.114.738,9.028,9.028,0,0,0,1.367.554,10.884,10.884,0,0,0,1.442.349,8.042,8.042,0,0,0,1.34.123,5.248,5.248,0,0,0,3.165-.786,2.659,2.659,0,0,0,1.046-2.263,2.657,2.657,0,0,0-.349-1.381,3.927,3.927,0,0,0-.964-1.073,9.564,9.564,0,0,0-1.456-.93q-.841-.444-1.812-.937-1.025-.52-1.914-1.053a8.294,8.294,0,0,1-1.545-1.176,4.9,4.9,0,0,1-1.032-1.456,4.507,4.507,0,0,1-.376-1.907,4.485,4.485,0,0,1,.588-2.331A5.042,5.042,0,0,1-83.9,17.338a7,7,0,0,1,2.181-.957,9.985,9.985,0,0,1,2.5-.314,9.562,9.562,0,0,1,4.225.7v2.584a7.658,7.658,0,0,0-4.457-1.2,7.33,7.33,0,0,0-1.5.157,4.248,4.248,0,0,0-1.34.513,2.968,2.968,0,0,0-.957.916,2.431,2.431,0,0,0-.369,1.367,2.815,2.815,0,0,0,.28,1.3,3.183,3.183,0,0,0,.827,1,8.239,8.239,0,0,0,1.333.875q.786.424,1.812.93,1.053.52,2,1.094a9.124,9.124,0,0,1,1.654,1.271A5.65,5.65,0,0,1-74.6,29.109a4.343,4.343,0,0,1,.417,1.941,4.923,4.923,0,0,1-.567,2.454,4.657,4.657,0,0,1-1.531,1.634,6.688,6.688,0,0,1-2.222.909,12.167,12.167,0,0,1-2.652.28,10.809,10.809,0,0,1-1.148-.075q-.684-.075-1.395-.219a11.379,11.379,0,0,1-1.347-.355A4.191,4.191,0,0,1-86.065,35.207Zm18.091-6.617V36h-2.3V16.395h5.387a7.11,7.11,0,0,1,4.874,1.531,5.467,5.467,0,0,1,1.729,4.32A5.942,5.942,0,0,1-60.2,26.813,7.339,7.339,0,0,1-65.39,28.59Zm0-10.117v8.039h2.406a5.38,5.38,0,0,0,3.63-1.087,3.848,3.848,0,0,0,1.251-3.069q0-3.883-4.594-3.883Zm21.29,17.855a8.606,8.606,0,0,1-6.679-2.748,10.193,10.193,0,0,1-2.509-7.15,10.8,10.8,0,0,1,2.557-7.547,8.929,8.929,0,0,1,6.959-2.816A8.412,8.412,0,0,1-39.814,18.8a10.23,10.23,0,0,1,2.481,7.15,10.835,10.835,0,0,1-2.543,7.588A8.764,8.764,0,0,1-46.684,36.328Zm.164-18.184a6.321,6.321,0,0,0-5.018,2.229,8.627,8.627,0,0,0-1.928,5.852,8.688,8.688,0,0,0,1.88,5.831,6.131,6.131,0,0,0,4.9,2.208A6.437,6.437,0,0,0-41.6,32.158a8.6,8.6,0,0,0,1.859-5.893,8.991,8.991,0,0,0-1.8-6A6.188,6.188,0,0,0-46.52,18.145ZM-17.67,36h-2.816l-10.09-15.627a6.53,6.53,0,0,1-.629-1.23h-.082a20.184,20.184,0,0,1,.109,2.693V36h-2.3V16.395h2.98l9.816,15.381q.615.957.793,1.313h.055a20.743,20.743,0,0,1-.137-2.885V16.395h2.3Zm4.227-.793V32.5a5.257,5.257,0,0,0,1.114.738,9.028,9.028,0,0,0,1.367.554,10.884,10.884,0,0,0,1.442.349,8.042,8.042,0,0,0,1.34.123,5.248,5.248,0,0,0,3.165-.786,2.659,2.659,0,0,0,1.046-2.263,2.657,2.657,0,0,0-.349-1.381,3.927,3.927,0,0,0-.964-1.073,9.564,9.564,0,0,0-1.456-.93q-.841-.444-1.812-.937-1.025-.52-1.914-1.053a8.294,8.294,0,0,1-1.545-1.176,4.9,4.9,0,0,1-1.032-1.456,4.507,4.507,0,0,1-.376-1.907,4.485,4.485,0,0,1,.588-2.331,5.042,5.042,0,0,1,1.545-1.634A7,7,0,0,1-9.1,16.381a9.985,9.985,0,0,1,2.5-.314,9.562,9.562,0,0,1,4.225.7v2.584a7.658,7.658,0,0,0-4.457-1.2,7.33,7.33,0,0,0-1.5.157,4.248,4.248,0,0,0-1.34.513,2.968,2.968,0,0,0-.957.916,2.431,2.431,0,0,0-.369,1.367,2.815,2.815,0,0,0,.28,1.3,3.183,3.183,0,0,0,.827,1,8.239,8.239,0,0,0,1.333.875q.786.424,1.812.93,1.053.52,2,1.094a9.124,9.124,0,0,1,1.654,1.271,5.65,5.65,0,0,1,1.128,1.545,4.343,4.343,0,0,1,.417,1.941A4.923,4.923,0,0,1-2.129,33.5,4.657,4.657,0,0,1-3.66,35.139a6.688,6.688,0,0,1-2.222.909,12.167,12.167,0,0,1-2.652.28,10.809,10.809,0,0,1-1.148-.075q-.684-.075-1.395-.219a11.379,11.379,0,0,1-1.347-.355A4.191,4.191,0,0,1-13.442,35.207ZM17.527,36H14.984l-2.078-5.5H4.594L2.639,36H.082L7.6,16.395H9.98Zm-5.373-7.561L9.078,20.086a8,8,0,0,1-.3-1.312H8.723a7.323,7.323,0,0,1-.314,1.313L5.359,28.439ZM20.415,36V16.395h5.578a6.1,6.1,0,0,1,4.033,1.244,4.021,4.021,0,0,1,1.49,3.24,4.768,4.768,0,0,1-.9,2.9,4.866,4.866,0,0,1-2.488,1.75v.055a4.988,4.988,0,0,1,3.172,1.5,4.6,4.6,0,0,1,1.189,3.288,5.126,5.126,0,0,1-1.8,4.074A6.717,6.717,0,0,1,26.13,36Zm2.3-17.527V24.8h2.352a4.465,4.465,0,0,0,2.967-.909,3.166,3.166,0,0,0,1.08-2.563q0-2.857-3.76-2.857Zm0,8.395v7.055h3.117a4.67,4.67,0,0,0,3.138-.957,3.278,3.278,0,0,0,1.114-2.625q0-3.473-4.73-3.473ZM38.765,36h-2.3V16.395h2.3Zm15.329,0H43.922V16.395h2.3V33.922h7.875ZM59.4,36H57.1V16.395h2.3Zm5.157,0V16.395h5.414q10.363,0,10.363,9.557a9.631,9.631,0,0,1-2.878,7.294A10.676,10.676,0,0,1,69.754,36Zm2.3-17.527V33.922h2.926a8.3,8.3,0,0,0,6-2.064,7.739,7.739,0,0,0,2.146-5.852q0-7.533-8.012-7.533ZM98.687,36H96.144l-2.078-5.5H85.753L83.8,36H81.241l7.52-19.605H91.14Zm-5.373-7.561-3.076-8.354a8,8,0,0,1-.3-1.312h-.055a7.323,7.323,0,0,1-.314,1.313l-3.049,8.354ZM101.574,36V16.395h5.414q10.363,0,10.363,9.557a9.631,9.631,0,0,1-2.878,7.294A10.676,10.676,0,0,1,106.77,36Zm2.3-17.527V33.922H106.8a8.3,8.3,0,0,0,6-2.064,7.739,7.739,0,0,0,2.146-5.852q0-7.533-8.012-7.533ZM-138.192,71.207V68.5a5.257,5.257,0,0,0,1.114.738,9.027,9.027,0,0,0,1.367.554,10.884,10.884,0,0,0,1.442.349,8.042,8.042,0,0,0,1.34.123,5.248,5.248,0,0,0,3.165-.786,2.659,2.659,0,0,0,1.046-2.263,2.657,2.657,0,0,0-.349-1.381,3.927,3.927,0,0,0-.964-1.073,9.564,9.564,0,0,0-1.456-.93q-.841-.444-1.812-.937-1.025-.52-1.914-1.053a8.294,8.294,0,0,1-1.545-1.176,4.9,4.9,0,0,1-1.032-1.456,4.507,4.507,0,0,1-.376-1.907,4.485,4.485,0,0,1,.588-2.331,5.042,5.042,0,0,1,1.545-1.634,7,7,0,0,1,2.181-.957,9.985,9.985,0,0,1,2.5-.314,9.562,9.562,0,0,1,4.225.7v2.584a7.658,7.658,0,0,0-4.457-1.2,7.33,7.33,0,0,0-1.5.157,4.248,4.248,0,0,0-1.34.513,2.968,2.968,0,0,0-.957.916,2.431,2.431,0,0,0-.369,1.367,2.815,2.815,0,0,0,.28,1.3,3.183,3.183,0,0,0,.827,1,8.238,8.238,0,0,0,1.333.875q.786.424,1.812.93,1.053.52,2,1.094a9.124,9.124,0,0,1,1.654,1.271,5.65,5.65,0,0,1,1.128,1.545,4.343,4.343,0,0,1,.417,1.941,4.923,4.923,0,0,1-.567,2.454,4.657,4.657,0,0,1-1.531,1.634,6.688,6.688,0,0,1-2.222.909,12.167,12.167,0,0,1-2.652.28,10.808,10.808,0,0,1-1.148-.075q-.684-.075-1.395-.219a11.38,11.38,0,0,1-1.347-.355A4.19,4.19,0,0,1-138.192,71.207Zm23.7,1.121a8.606,8.606,0,0,1-6.679-2.748,10.193,10.193,0,0,1-2.509-7.15,10.8,10.8,0,0,1,2.557-7.547,8.929,8.929,0,0,1,6.959-2.816,8.412,8.412,0,0,1,6.542,2.734,10.23,10.23,0,0,1,2.481,7.15,10.835,10.835,0,0,1-2.543,7.588A8.764,8.764,0,0,1-114.5,72.328Zm.164-18.184a6.321,6.321,0,0,0-5.018,2.229,8.627,8.627,0,0,0-1.928,5.852,8.688,8.688,0,0,0,1.88,5.831,6.131,6.131,0,0,0,4.9,2.208,6.437,6.437,0,0,0,5.086-2.105,8.6,8.6,0,0,0,1.859-5.893,8.991,8.991,0,0,0-1.8-6A6.188,6.188,0,0,0-114.332,54.145Zm26.39,17.035a11.5,11.5,0,0,1-5.414,1.148,8.731,8.731,0,0,1-6.7-2.693,9.938,9.938,0,0,1-2.516-7.068,10.416,10.416,0,0,1,2.83-7.6,9.605,9.605,0,0,1,7.178-2.9,11.508,11.508,0,0,1,4.621.807V55.32a9.371,9.371,0,0,0-4.648-1.176A7.133,7.133,0,0,0-98.066,56.4a8.5,8.5,0,0,0-2.1,6.029A8.086,8.086,0,0,0-98.2,68.138a6.676,6.676,0,0,0,5.147,2.126,9.657,9.657,0,0,0,5.113-1.312Zm6.292.82h-2.3V52.395h2.3Zm20.333,0H-63.86l-2.078-5.5h-8.312L-76.206,72h-2.557l7.52-19.605h2.379Zm-5.373-7.561-3.076-8.354a8,8,0,0,1-.3-1.312h-.055a7.323,7.323,0,0,1-.314,1.313l-3.049,8.354ZM-48.258,72H-58.43V52.395h2.3V69.922h7.875Zm24.027-.82a11.5,11.5,0,0,1-5.414,1.148,8.731,8.731,0,0,1-6.7-2.693,9.938,9.938,0,0,1-2.516-7.068,10.416,10.416,0,0,1,2.83-7.6,9.605,9.605,0,0,1,7.178-2.9,11.508,11.508,0,0,1,4.621.807V55.32a9.371,9.371,0,0,0-4.648-1.176A7.133,7.133,0,0,0-34.355,56.4a8.5,8.5,0,0,0-2.1,6.029,8.086,8.086,0,0,0,1.962,5.708,6.676,6.676,0,0,0,5.147,2.126,9.657,9.657,0,0,0,5.113-1.312Zm11.145,1.148a8.606,8.606,0,0,1-6.679-2.748,10.193,10.193,0,0,1-2.509-7.15,10.8,10.8,0,0,1,2.557-7.547,8.929,8.929,0,0,1,6.959-2.816A8.412,8.412,0,0,1-6.215,54.8a10.23,10.23,0,0,1,2.481,7.15,10.835,10.835,0,0,1-2.543,7.588A8.764,8.764,0,0,1-13.085,72.328Zm.164-18.184a6.321,6.321,0,0,0-5.018,2.229,8.627,8.627,0,0,0-1.928,5.852,8.688,8.688,0,0,0,1.88,5.831,6.131,6.131,0,0,0,4.9,2.208A6.437,6.437,0,0,0-8,68.158,8.6,8.6,0,0,0-6.14,62.266a8.991,8.991,0,0,0-1.8-6A6.188,6.188,0,0,0-12.921,54.145ZM14.179,72H11.445L8.163,66.5A11.97,11.97,0,0,0,7.288,65.2a4.988,4.988,0,0,0-.868-.882,3.007,3.007,0,0,0-.957-.5,3.935,3.935,0,0,0-1.155-.157H2.421V72H.124V52.395H5.976a8.339,8.339,0,0,1,2.372.321,5.307,5.307,0,0,1,1.887.978,4.543,4.543,0,0,1,1.251,1.634,5.418,5.418,0,0,1,.451,2.29,5.514,5.514,0,0,1-.308,1.88,4.91,4.91,0,0,1-.875,1.524,5.3,5.3,0,0,1-1.367,1.142,6.98,6.98,0,0,1-1.8.731v.055a4.135,4.135,0,0,1,.854.5,4.7,4.7,0,0,1,.69.663,8.783,8.783,0,0,1,.649.868q.321.485.718,1.128ZM2.421,54.473v7.109H5.538a4.728,4.728,0,0,0,1.593-.26A3.687,3.687,0,0,0,8.4,60.577a3.379,3.379,0,0,0,.834-1.189,3.982,3.982,0,0,0,.3-1.579,3.073,3.073,0,0,0-1.019-2.454,4.376,4.376,0,0,0-2.946-.882ZM19.172,64.59V72h-2.3V52.395h5.387a7.11,7.11,0,0,1,4.874,1.531,5.467,5.467,0,0,1,1.729,4.32,5.942,5.942,0,0,1-1.921,4.566,7.339,7.339,0,0,1-5.188,1.777Zm0-10.117v8.039h2.406a5.38,5.38,0,0,0,3.63-1.087,3.848,3.848,0,0,0,1.251-3.069q0-3.883-4.594-3.883Zm21.29,17.855a8.606,8.606,0,0,1-6.679-2.748,10.193,10.193,0,0,1-2.509-7.15,10.8,10.8,0,0,1,2.557-7.547,8.929,8.929,0,0,1,6.959-2.816A8.412,8.412,0,0,1,47.332,54.8a10.23,10.23,0,0,1,2.481,7.15,10.835,10.835,0,0,1-2.543,7.588A8.764,8.764,0,0,1,40.462,72.328Zm.164-18.184a6.321,6.321,0,0,0-5.018,2.229,8.627,8.627,0,0,0-1.928,5.852,8.688,8.688,0,0,0,1.88,5.831,6.131,6.131,0,0,0,4.9,2.208,6.437,6.437,0,0,0,5.086-2.105,8.6,8.6,0,0,0,1.859-5.893,8.991,8.991,0,0,0-1.8-6A6.188,6.188,0,0,0,40.626,54.145ZM67.727,72H64.992l-3.281-5.5a11.971,11.971,0,0,0-.875-1.306,4.988,4.988,0,0,0-.868-.882,3.007,3.007,0,0,0-.957-.5,3.935,3.935,0,0,0-1.155-.157H55.969V72h-2.3V52.395h5.852a8.339,8.339,0,0,1,2.372.321,5.307,5.307,0,0,1,1.887.978,4.543,4.543,0,0,1,1.251,1.634,5.418,5.418,0,0,1,.451,2.29,5.514,5.514,0,0,1-.308,1.88,4.91,4.91,0,0,1-.875,1.524,5.3,5.3,0,0,1-1.367,1.142,6.98,6.98,0,0,1-1.8.731v.055a4.135,4.135,0,0,1,.854.5,4.7,4.7,0,0,1,.69.663,8.783,8.783,0,0,1,.649.868q.321.485.718,1.128ZM55.969,54.473v7.109h3.117a4.728,4.728,0,0,0,1.593-.26,3.687,3.687,0,0,0,1.265-.745,3.379,3.379,0,0,0,.834-1.189,3.982,3.982,0,0,0,.3-1.579,3.073,3.073,0,0,0-1.019-2.454,4.376,4.376,0,0,0-2.946-.882ZM85.6,72H83.056l-2.078-5.5H72.665L70.71,72H68.153l7.52-19.605h2.379Zm-5.373-7.561-3.076-8.354a8,8,0,0,1-.3-1.312h-.055a7.323,7.323,0,0,1-.314,1.313l-3.049,8.354ZM98.07,54.473H92.41V72h-2.3V54.473H84.467V52.395h13.6ZM103.446,72h-2.3V52.395h2.3Zm19.731-19.605L115.918,72h-2.529l-7.109-19.605h2.557l5.428,15.545a9.23,9.23,0,0,1,.4,1.736h.055a8.516,8.516,0,0,1,.451-1.764L120.7,52.395ZM139.532,72h-2.543l-2.078-5.5H126.6L124.643,72h-2.557l7.52-19.605h2.379Zm-5.373-7.561-3.076-8.354a8,8,0,0,1-.3-1.312h-.055a7.323,7.323,0,0,1-.314,1.313l-3.049,8.354Z" transform="translate(800 2976)" fill="#212429"/>
    <path id="Trazado_979014" data-name="Trazado 979014" d="M0,0V37" transform="translate(800.5 2761.5)" fill="none" stroke="#707070" stroke-width="3"/>
    <path id="Trazado_979015" data-name="Trazado 979015" d="M0,0,22,30.5" transform="translate(666.5 2804.5)" fill="none" stroke="#707070" stroke-width="3"/>
    <path id="Trazado_979016" data-name="Trazado 979016" d="M0,0,42,14" transform="translate(574 2923)" fill="none" stroke="#707070" stroke-width="3"/>
    <path id="Trazado_979017" data-name="Trazado 979017" d="M0,17,44,0" transform="translate(574 3048)" fill="none" stroke="#707070" stroke-width="3"/>
    <path id="Trazado_979018" data-name="Trazado 979018" d="M44,17,0,0" transform="translate(982 3048)" fill="none" stroke="#707070" stroke-width="3"/>
    <path id="Trazado_979019" data-name="Trazado 979019" d="M42,0,0,14" transform="translate(984 2923)" fill="none" stroke="#707070" stroke-width="3"/>
    <path id="Trazado_979020" data-name="Trazado 979020" d="M22,0,0,30.5" transform="translate(913.5 2804.5)" fill="none" stroke="#707070" stroke-width="3"/>
    <path id="Trazado_979021" data-name="Trazado 979021" d="M19.727-48.906q-3.75,6.758-6.719,12.676T7.773-24.551A110.147,110.147,0,0,0,3.906-12.832,113.192,113.192,0,0,0,1.289,0H-11.6A105.472,105.472,0,0,1-8.711-12.578a117.96,117.96,0,0,1,4.16-11.738Q-2.187-30,.684-35.391T6.758-45.937H-19.258V-56.016H19.727Z" transform="translate(800 2928)" fill="#212429"/>
  </g>
</svg>
