<svg xmlns="http://www.w3.org/2000/svg" xmlns:xlink="http://www.w3.org/1999/xlink" width="108" height="108" viewBox="0 0 108 108">
  <defs>
    <filter id="Trazado_904820" x="0" y="0" width="108" height="108" filterUnits="userSpaceOnUse">
      <feOffset dy="3" input="SourceAlpha"/>
      <feGaussianBlur stdDeviation="3" result="blur"/>
      <feFlood flood-opacity="0.161"/>
      <feComposite operator="in" in2="blur"/>
      <feComposite in="SourceGraphic"/>
    </filter>
  </defs>
  <g id="_22" data-name="22" transform="translate(-201 -5421)">
    <g transform="matrix(1, 0, 0, 1, 201, 5421)" filter="url(#Trazado_904820)">
      <g id="Trazado_904820-2" data-name="Trazado 904820" transform="translate(9 6)" fill="#ecf4fa">
        <path d="M 45 88.5 C 39.12687683105469 88.5 33.43022537231445 87.35007476806641 28.06830024719238 85.08217620849609 C 22.88852500915527 82.89131164550781 18.23629951477051 79.75458526611328 14.2408504486084 75.75914764404297 C 10.24541282653809 71.76370239257812 7.108687400817871 67.11147308349609 4.917825222015381 61.93170166015625 C 2.649924993515015 56.56977462768555 1.5 50.87312316894531 1.5 45 C 1.5 39.12687683105469 2.649924993515015 33.43022537231445 4.917825222015381 28.06830024719238 C 7.108687400817871 22.88852500915527 10.24541282653809 18.23629951477051 14.2408504486084 14.2408504486084 C 18.23629951477051 10.24541282653809 22.88852500915527 7.108687400817871 28.06830024719238 4.917825222015381 C 33.43022537231445 2.649924993515015 39.12687683105469 1.5 45 1.5 C 50.87312316894531 1.5 56.56977462768555 2.649924993515015 61.93170166015625 4.917825222015381 C 67.11147308349609 7.108687400817871 71.76370239257812 10.24541282653809 75.75914764404297 14.2408504486084 C 79.75458526611328 18.23629951477051 82.89131164550781 22.88852500915527 85.08217620849609 28.06830024719238 C 87.35007476806641 33.43022537231445 88.5 39.12687683105469 88.5 45 C 88.5 50.87312316894531 87.35007476806641 56.56977462768555 85.08217620849609 61.93170166015625 C 82.89131164550781 67.11147308349609 79.75458526611328 71.76370239257812 75.75914764404297 75.75914764404297 C 71.76370239257812 79.75458526611328 67.11147308349609 82.89131164550781 61.93170166015625 85.08217620849609 C 56.56977462768555 87.35007476806641 50.87312316894531 88.5 45 88.5 Z" stroke="none"/>
        <path d="M 45 3 C 39.32871246337891 3 33.82865524291992 4.110054016113281 28.65262985229492 6.299339294433594 C 23.65165710449219 8.414573669433594 19.15968322753906 11.44334411621094 15.301513671875 15.301513671875 C 11.44334411621094 19.15968322753906 8.414573669433594 23.65165710449219 6.299339294433594 28.65262985229492 C 4.110054016113281 33.82865524291992 3 39.32871246337891 3 45 C 3 50.67128753662109 4.110054016113281 56.17134475708008 6.299339294433594 61.34737396240234 C 8.414573669433594 66.34834289550781 11.44334411621094 70.84031677246094 15.301513671875 74.698486328125 C 19.15968322753906 78.55665588378906 23.65165710449219 81.58542633056641 28.65262985229492 83.70066070556641 C 33.82865524291992 85.88994598388672 39.32871246337891 87 45 87 C 50.67128753662109 87 56.17134475708008 85.88994598388672 61.34737396240234 83.70066070556641 C 66.34834289550781 81.58542633056641 70.84031677246094 78.55665588378906 74.698486328125 74.698486328125 C 78.55665588378906 70.84031677246094 81.58542633056641 66.34834289550781 83.70066070556641 61.34737396240234 C 85.88994598388672 56.17134475708008 87 50.67128753662109 87 45 C 87 39.32871246337891 85.88994598388672 33.82865524291992 83.70066070556641 28.65262985229492 C 81.58542633056641 23.65165710449219 78.55665588378906 19.15968322753906 74.698486328125 15.301513671875 C 70.84031677246094 11.44334411621094 66.34834289550781 8.414573669433594 61.34737396240234 6.299339294433594 C 56.17134475708008 4.110054016113281 50.67128753662109 3 45 3 M 45 0 C 69.85281372070312 0 90 20.14718627929688 90 45 C 90 69.85281372070312 69.85281372070312 90 45 90 C 20.14718627929688 90 0 69.85281372070312 0 45 C 0 20.14718627929688 20.14718627929688 0 45 0 Z" stroke="none" fill="#2a5673"/>
      </g>
    </g>
    <g id="Grupo_1143735" data-name="Grupo 1143735" transform="translate(177.344 5441.464)">
      <g id="Grupo_1143733" data-name="Grupo 1143733" transform="translate(53.964 0.909)">
        <path id="Trazado_978669" data-name="Trazado 978669" d="M64.8,132.548l3.57-1.285a3.146,3.146,0,0,1,4.076,2.048l1.1,3.632a3.146,3.146,0,0,0,5.822.5l19.8-39.4L80.716,88.777l-19.8,39.4A3.146,3.146,0,0,0,64.8,132.548Z" transform="translate(-60.576 -78.923)" fill="#fd4755"/>
        <path id="Trazado_978670" data-name="Trazado 978670" d="M167.512,132.547l-3.57-1.286a3.146,3.146,0,0,0-4.076,2.048l-1.1,3.632a3.146,3.146,0,0,1-5.822.5l-5.428-10.8-14.369-28.6,18.445-9.268,15.051,29.958,4.744,9.442A3.146,3.146,0,0,1,167.512,132.547Z" transform="translate(-124.35 -78.922)" fill="#fe646f"/>
        <path id="Trazado_978671" data-name="Trazado 978671" d="M166.645,118.733a25.749,25.749,0,0,1-18.6,7.912c-.175,0-.35,0-.525-.006l-14.369-28.6,18.445-9.268Z" transform="translate(-124.35 -78.922)" fill="#fd4755"/>
        <circle id="Elipse_11557" data-name="Elipse 11557" cx="21.896" cy="21.896" r="21.896" transform="translate(1.796)" fill="#ffe177"/>
        <path id="Trazado_978672" data-name="Trazado 978672" d="M99.183,51.212q-.939.081-1.9.082a21.9,21.9,0,1,1,0-43.793q.961,0,1.9.082a21.9,21.9,0,0,0,0,43.629Z" transform="translate(-73.591 -7.501)" fill="#ffd15b"/>
        <circle id="Elipse_11558" data-name="Elipse 11558" cx="16.503" cy="16.503" r="16.503" transform="translate(7.19 5.394)" fill="#ffd15b"/>
        <path id="Trazado_978673" data-name="Trazado 978673" d="M259.034,68.494a16.511,16.511,0,0,1-18.36,16.4,16.5,16.5,0,0,0,0-32.8,16.671,16.671,0,0,1,1.858-.1A16.5,16.5,0,0,1,259.034,68.494Z" transform="translate(-218.84 -46.598)" fill="#fec165"/>
        <g id="Grupo_1143732" data-name="Grupo 1143732" transform="translate(13.005 11.645)">
          <path id="Trazado_978674" data-name="Trazado 978674" d="M180.127,104.546l1.927,3.9a1.775,1.775,0,0,0,1.337.971l4.308.626a1.776,1.776,0,0,1,.984,3.029l-3.118,3.039a1.776,1.776,0,0,0-.511,1.572l.736,4.291a1.776,1.776,0,0,1-2.577,1.872l-3.854-2.026a1.776,1.776,0,0,0-1.653,0l-3.854,2.026a1.776,1.776,0,0,1-2.577-1.872l.736-4.291a1.776,1.776,0,0,0-.511-1.572l-3.118-3.039a1.776,1.776,0,0,1,.984-3.029l4.308-.626a1.775,1.775,0,0,0,1.337-.971l1.927-3.9A1.776,1.776,0,0,1,180.127,104.546Z" transform="translate(-167.848 -103.556)" fill="#ffe177"/>
        </g>
      </g>
      <g id="Grupo_1143734" data-name="Grupo 1143734" transform="translate(53.052 0)">
        <path id="Trazado_978675" data-name="Trazado 978675" d="M101.816,49.754l-.919-1.829a.909.909,0,0,0-1.625.816l.919,1.829a2.237,2.237,0,0,1-2.757,3.108l-3.57-1.285a4.056,4.056,0,0,0-5.254,2.641l-1.1,3.631a2.237,2.237,0,0,1-4.14.356L76.62,45.587c.344.015.689.025,1.037.025a22.743,22.743,0,0,0,16.491-7.069l3.222,6.413a.909.909,0,1,0,1.625-.817L95.44,37.064a22.794,22.794,0,0,0,2.577-24.542,23.014,23.014,0,0,0-6.539-7.857.909.909,0,0,0-1.1,1.446A20.888,20.888,0,1,1,86.924,3.97a.909.909,0,1,0,.8-1.631A22.576,22.576,0,0,0,77.656,0,22.792,22.792,0,0,0,59.872,37.064L53.5,49.753a4.055,4.055,0,0,0,5,5.636l3.57-1.285a2.237,2.237,0,0,1,2.9,1.457l1.1,3.63A3.984,3.984,0,0,0,69.6,62.057q.187.016.371.016a3.975,3.975,0,0,0,3.6-2.236L77.655,51.7l4.09,8.14a3.977,3.977,0,0,0,3.6,2.235q.184,0,.371-.016a3.986,3.986,0,0,0,3.534-2.865l1.1-3.631a2.237,2.237,0,0,1,2.9-1.457l3.57,1.285a4.055,4.055,0,0,0,5-5.635ZM71.941,59.021a2.236,2.236,0,0,1-4.139-.357l-1.1-3.63a4.055,4.055,0,0,0-5.254-2.641l-3.57,1.285a2.236,2.236,0,0,1-2.756-3.108l6.043-12.028a22.77,22.77,0,0,0,13.321,6.848l2.152,4.284Z" transform="translate(-53.052 0)"/>
        <path id="Trazado_978676" data-name="Trazado 978676" d="M115.7,70.543a.909.909,0,0,0-.23,1.265,17.334,17.334,0,1,0-2.026-3.9.909.909,0,1,0,1.707-.627,15.611,15.611,0,1,1,1.814,3.49A.909.909,0,0,0,115.7,70.543Z" transform="translate(-105.188 -39.096)"/>
        <path id="Trazado_978677" data-name="Trazado 978677" d="M182.728,107.136a2.685,2.685,0,0,0-1.488-4.58l-4.308-.626a.866.866,0,0,1-.652-.474l-1.927-3.9a2.685,2.685,0,0,0-4.816,0l-1.927,3.9a.866.866,0,0,1-.652.474l-4.309.626a2.685,2.685,0,0,0-1.488,4.58l3.118,3.039a.866.866,0,0,1,.249.767l-.736,4.291a2.681,2.681,0,0,0,3.9,2.83l3.854-2.026a.866.866,0,0,1,.806,0l3.854,2.026a2.685,2.685,0,0,0,3.9-2.83l-.736-4.291a.866.866,0,0,1,.249-.767Zm-4.387,1.737a2.685,2.685,0,0,0-.772,2.377l.736,4.291a.866.866,0,0,1-1.257.913l-3.854-2.026a2.685,2.685,0,0,0-2.5,0l-3.854,2.026a.866.866,0,0,1-1.257-.913l.736-4.291a2.685,2.685,0,0,0-.772-2.377l-3.118-3.039a.866.866,0,0,1,.48-1.478l4.308-.626a2.684,2.684,0,0,0,2.022-1.469l1.927-3.9a.866.866,0,0,1,1.554,0l1.927,3.9a2.684,2.684,0,0,0,2.022,1.469l4.309.626a.866.866,0,0,1,.48,1.478Z" transform="translate(-147.34 -84.41)"/>
      </g>
    </g>
  </g>
</svg>
