<svg xmlns="http://www.w3.org/2000/svg" xmlns:xlink="http://www.w3.org/1999/xlink" width="108" height="108" viewBox="0 0 108 108">
  <defs>
    <filter id="Trazado_904820" x="0" y="0" width="108" height="108" filterUnits="userSpaceOnUse">
      <feOffset dy="3" input="SourceAlpha"/>
      <feGaussianBlur stdDeviation="3" result="blur"/>
      <feFlood flood-opacity="0.161"/>
      <feComposite operator="in" in2="blur"/>
      <feComposite in="SourceGraphic"/>
    </filter>
  </defs>
  <g id="Grupo_1143783" data-name="Grupo 1143783" transform="translate(-201 -3504)">
    <g transform="matrix(1, 0, 0, 1, 201, 3504)" filter="url(#Trazado_904820)">
      <g id="Trazado_904820-2" data-name="Trazado 904820" transform="translate(9 6)" fill="#ecf4fa">
        <path d="M 45 88.5 C 39.12687683105469 88.5 33.43022537231445 87.35007476806641 28.06830024719238 85.08217620849609 C 22.88852500915527 82.89131164550781 18.23629951477051 79.75458526611328 14.2408504486084 75.75914764404297 C 10.24541282653809 71.76370239257812 7.108687400817871 67.11147308349609 4.917825222015381 61.93170166015625 C 2.649924993515015 56.56977462768555 1.5 50.87312316894531 1.5 45 C 1.5 39.12687683105469 2.649924993515015 33.43022537231445 4.917825222015381 28.06830024719238 C 7.108687400817871 22.88852500915527 10.24541282653809 18.23629951477051 14.2408504486084 14.2408504486084 C 18.23629951477051 10.24541282653809 22.88852500915527 7.108687400817871 28.06830024719238 4.917825222015381 C 33.43022537231445 2.649924993515015 39.12687683105469 1.5 45 1.5 C 50.87312316894531 1.5 56.56977462768555 2.649924993515015 61.93170166015625 4.917825222015381 C 67.11147308349609 7.108687400817871 71.76370239257812 10.24541282653809 75.75914764404297 14.2408504486084 C 79.75458526611328 18.23629951477051 82.89131164550781 22.88852500915527 85.08217620849609 28.06830024719238 C 87.35007476806641 33.43022537231445 88.5 39.12687683105469 88.5 45 C 88.5 50.87312316894531 87.35007476806641 56.56977462768555 85.08217620849609 61.93170166015625 C 82.89131164550781 67.11147308349609 79.75458526611328 71.76370239257812 75.75914764404297 75.75914764404297 C 71.76370239257812 79.75458526611328 67.11147308349609 82.89131164550781 61.93170166015625 85.08217620849609 C 56.56977462768555 87.35007476806641 50.87312316894531 88.5 45 88.5 Z" stroke="none"/>
        <path d="M 45 3 C 39.32871246337891 3 33.82865524291992 4.110054016113281 28.65262985229492 6.299339294433594 C 23.65165710449219 8.414573669433594 19.15968322753906 11.44334411621094 15.301513671875 15.301513671875 C 11.44334411621094 19.15968322753906 8.414573669433594 23.65165710449219 6.299339294433594 28.65262985229492 C 4.110054016113281 33.82865524291992 3 39.32871246337891 3 45 C 3 50.67128753662109 4.110054016113281 56.17134475708008 6.299339294433594 61.34737396240234 C 8.414573669433594 66.34834289550781 11.44334411621094 70.84031677246094 15.301513671875 74.698486328125 C 19.15968322753906 78.55665588378906 23.65165710449219 81.58542633056641 28.65262985229492 83.70066070556641 C 33.82865524291992 85.88994598388672 39.32871246337891 87 45 87 C 50.67128753662109 87 56.17134475708008 85.88994598388672 61.34737396240234 83.70066070556641 C 66.34834289550781 81.58542633056641 70.84031677246094 78.55665588378906 74.698486328125 74.698486328125 C 78.55665588378906 70.84031677246094 81.58542633056641 66.34834289550781 83.70066070556641 61.34737396240234 C 85.88994598388672 56.17134475708008 87 50.67128753662109 87 45 C 87 39.32871246337891 85.88994598388672 33.82865524291992 83.70066070556641 28.65262985229492 C 81.58542633056641 23.65165710449219 78.55665588378906 19.15968322753906 74.698486328125 15.301513671875 C 70.84031677246094 11.44334411621094 66.34834289550781 8.414573669433594 61.34737396240234 6.299339294433594 C 56.17134475708008 4.110054016113281 50.67128753662109 3 45 3 M 45 0 C 69.85281372070312 0 90 20.14718627929688 90 45 C 90 69.85281372070312 69.85281372070312 90 45 90 C 20.14718627929688 90 0 69.85281372070312 0 45 C 0 20.14718627929688 20.14718627929688 0 45 0 Z" stroke="none" fill="#2a5673"/>
      </g>
    </g>
    <g id="Grupo_1143782" data-name="Grupo 1143782" transform="translate(204.879 3507.027)">
      <path id="Trazado_978712" data-name="Trazado 978712" d="M55.542,28.946l2.049,1.581V27.176a.048.048,0,0,0-.043-.043H55.584a.046.046,0,0,0-.043.043v1.77Zm4.067,5.512a1.15,1.15,0,1,1-1.407,1.82l-8.539-6.595a.938.938,0,0,0-1.147,0l-8.54,6.595a1.15,1.15,0,0,1-1.405-1.821L48.2,27.02a1.684,1.684,0,0,1,1.783,0l9.628,7.438ZM57.2,44.646V37.868c-.05-.034-.1-.067-.151-.1L49.089,31.61l-7.966,6.152c-.048.039-.1.073-.149.107v6.776h3.117V38.321a.938.938,0,0,1,.938-.938h8.118a.938.938,0,0,1,.938.938v6.325Zm2.474,4.7a6.157,6.157,0,1,0,6.158-6.158,6.157,6.157,0,0,0-6.158,6.158Zm-1.876,0a8.038,8.038,0,0,0,4.188,7.05V57a7.912,7.912,0,0,0-3.921,3.921H40.786A7.91,7.91,0,0,0,36.864,57V52.807a7.921,7.921,0,0,0,3.922-3.921h17.03c-.009.152-.014.3-.014.457Zm-5.593-4.7H45.967V39.259h6.241v5.387ZM64.355,63.287H34.5V46.522H58.315c-.06.16-.117.322-.166.488H40.155a.939.939,0,0,0-.883.621,6.039,6.039,0,0,1-3.663,3.663.94.94,0,0,0-.621.883v5.456a.939.939,0,0,0,.622.883,6.045,6.045,0,0,1,3.663,3.663.941.941,0,0,0,.884.622H58.7a.94.94,0,0,0,.883-.622,6.046,6.046,0,0,1,3.663-3.663.938.938,0,0,0,.621-.883v-.5c.161.041.325.075.488.106v6.051ZM53.666,27.5v-.32a1.922,1.922,0,0,1,1.919-1.919h1.963a1.922,1.922,0,0,1,1.919,1.919v4.8l1.289,1a3.024,3.024,0,0,1-1.465,5.394c-.071.009-.141.014-.21.017v6.262h.244a8.031,8.031,0,1,1,6.906,12.721v6.859a.938.938,0,0,1-.938.938H33.563a.938.938,0,0,1-.938-.938V45.584a.937.937,0,0,1,.938-.938H39.1V38.387c-.069,0-.141-.011-.21-.02a3.027,3.027,0,0,1-1.465-5.394l9.628-7.438h0a3.513,3.513,0,0,1,4.076,0L53.666,27.5Zm-3.9,26.48a4.33,4.33,0,0,1-.8-.172c-.218-.091-.567-.284-.563-.593a.779.779,0,0,1,.56-.641,1.37,1.37,0,0,1,1.85.894.938.938,0,0,0,1.754-.665,3.328,3.328,0,0,0-2.154-2.085v-.428a.938.938,0,1,0-1.876,0v.45c-.075.023-.152.047-.227.075a2.614,2.614,0,0,0-1.784,2.371,2.536,2.536,0,0,0,1.749,2.364l.03.012a5.74,5.74,0,0,0,1.183.271c.6.09.87.143,1.149.478a.494.494,0,0,1,.121.513.97.97,0,0,1-.828.507c-.6.078-1.67-.039-1.884-.972a.939.939,0,0,0-1.829.421,3.108,3.108,0,0,0,2.321,2.316v.426a.938.938,0,0,0,1.876,0v-.371A2.746,2.746,0,0,0,52.5,57.507a2.363,2.363,0,0,0-.425-2.4,3.29,3.29,0,0,0-2.312-1.132Zm7.576.5v.473a.938.938,0,0,0,1.876,0v-.473a.938.938,0,1,0-1.876,0ZM40,53.541a.938.938,0,0,0-.939.938v.473a.938.938,0,0,0,1.876,0v-.473A.938.938,0,0,0,40,53.541Zm24.945.118a3.188,3.188,0,0,1-2.406-2.382.938.938,0,1,1,1.828-.421c.228.99,1.359,1.115,1.991,1.033a1.039,1.039,0,0,0,.884-.545.542.542,0,0,0-.13-.567c-.3-.356-.585-.414-1.212-.507a5.94,5.94,0,0,1-1.22-.28l-.03-.011a2.6,2.6,0,0,1-1.79-2.419,2.676,2.676,0,0,1,1.827-2.426c.085-.032.17-.059.256-.084V44.56a.938.938,0,1,1,1.876,0v.469a3.413,3.413,0,0,1,2.234,2.147.938.938,0,1,1-1.754.665,1.449,1.449,0,0,0-1.961-.946.825.825,0,0,0-.6.694c-.005.339.371.548.6.646a4.41,4.41,0,0,0,.836.179,3.382,3.382,0,0,1,2.376,1.162,2.415,2.415,0,0,1,.434,2.453,2.816,2.816,0,0,1-2.168,1.684v.413a.938.938,0,1,1-1.876,0v-.468ZM81.94,49.249a.939.939,0,0,1-.008,1.327l-2.706,2.675a.943.943,0,0,1-.659.271h-.03a.935.935,0,0,1-.67-.312l-2.5-2.8a.938.938,0,0,1,1.4-1.251l1.076,1.2A28.514,28.514,0,0,0,61.358,22.8a.938.938,0,0,1,.781-1.706,29.86,29.86,0,0,1,13.7,12.6,30.6,30.6,0,0,1,3.891,16.419l.882-.871a.938.938,0,0,1,1.327.008ZM76.733,59.858a.938.938,0,0,0-1.233.489A28.694,28.694,0,0,1,48.358,77.722l1.159-1.107a.938.938,0,0,0-1.3-1.356l-2.712,2.593a.938.938,0,0,0,0,1.359l2.763,2.616a.938.938,0,1,0,1.29-1.362l-.908-.86c.156,0,.312.005.468.005a30.571,30.571,0,0,0,28.1-18.523.938.938,0,0,0-.49-1.229ZM37.747,75.395A28.756,28.756,0,0,1,20.372,48.268l1.11,1.155a.938.938,0,1,0,1.352-1.3l-2.6-2.706a.934.934,0,0,0-.677-.288h0a.936.936,0,0,0-.678.295l-2.61,2.767a.938.938,0,1,0,1.365,1.287l.858-.91A30.629,30.629,0,0,0,37,77.119a.939.939,0,0,0,.743-1.724ZM20.926,36.859a.938.938,0,0,0,1.727.733A28.776,28.776,0,0,1,50.438,20.231l-1.223,1.1a.938.938,0,1,0,1.255,1.4l2.79-2.509a.939.939,0,0,0,.038-1.358l-2.681-2.7a.938.938,0,1,0-1.33,1.321l.855.863a31.117,31.117,0,0,0-16.661,4.225A30,30,0,0,0,20.926,36.859Z" transform="translate(0 0)" fill="#242222" fill-rule="evenodd"/>
      <path id="Trazado_978713" data-name="Trazado 978713" d="M171.123,267.339h17.283a7.912,7.912,0,0,1,3.921-3.921v-.609a8.038,8.038,0,0,1-4.188-7.05c0-.154,0-.306.014-.457H171.123a7.921,7.921,0,0,1-3.923,3.921v4.195a7.91,7.91,0,0,1,3.922,3.921Zm7.489-5.375a2.536,2.536,0,0,1-1.749-2.364,2.614,2.614,0,0,1,1.784-2.371c.075-.028.152-.052.227-.075v-.45a.938.938,0,1,1,1.876,0v.428a3.328,3.328,0,0,1,2.154,2.085.938.938,0,1,1-1.754.665,1.37,1.37,0,0,0-1.85-.894.78.78,0,0,0-.56.641c0,.308.345.5.563.593a4.336,4.336,0,0,0,.8.172,3.29,3.29,0,0,1,2.312,1.132,2.363,2.363,0,0,1,.425,2.4,2.744,2.744,0,0,1-2.091,1.641v.37a.938.938,0,0,1-1.876,0v-.426a3.108,3.108,0,0,1-2.321-2.316.939.939,0,0,1,1.829-.421c.214.933,1.285,1.049,1.884.972a.969.969,0,0,0,.828-.507.494.494,0,0,0-.121-.513c-.279-.335-.553-.389-1.149-.478a5.738,5.738,0,0,1-1.183-.271l-.03-.012Zm9.068-.6v-.473a.938.938,0,0,1,1.876,0v.473a.938.938,0,1,1-1.876,0Zm-17.342-1.411a.938.938,0,0,1,.938.938v.473a.938.938,0,1,1-1.876,0v-.473A.938.938,0,0,1,170.338,259.956Z" transform="translate(-130.337 -206.416)" fill="#96ff96" fill-rule="evenodd"/>
      <path id="Trazado_978714" data-name="Trazado 978714" d="M151.184,242.934a6.039,6.039,0,0,0,3.663-3.662.939.939,0,0,1,.883-.621h17.994c.05-.166.106-.328.166-.488H150.076v16.765h29.853v-6.051c-.163-.031-.327-.064-.488-.106v.5a.938.938,0,0,1-.621.883,6.046,6.046,0,0,0-3.662,3.663.94.94,0,0,1-.883.622H155.73a.94.94,0,0,1-.884-.622,6.045,6.045,0,0,0-3.663-3.663.939.939,0,0,1-.622-.883v-5.456A.939.939,0,0,1,151.184,242.934Z" transform="translate(-115.575 -191.641)" fill="#2dd62d" fill-rule="evenodd"/>
      <path id="Trazado_978715" data-name="Trazado 978715" d="M338.772,213.967a6.157,6.157,0,1,0,6.156,6.157,6.158,6.158,0,0,0-6.156-6.157Zm-3.3,8.092a.938.938,0,1,1,1.828-.421c.228.99,1.359,1.115,1.991,1.033a1.039,1.039,0,0,0,.885-.545.542.542,0,0,0-.13-.567c-.3-.356-.585-.414-1.212-.507a5.939,5.939,0,0,1-1.22-.28l-.03-.011a2.6,2.6,0,0,1-1.79-2.419,2.676,2.676,0,0,1,1.827-2.426c.085-.032.17-.059.256-.084v-.491a.938.938,0,0,1,1.876,0v.469a3.413,3.413,0,0,1,2.234,2.147.938.938,0,1,1-1.754.665,1.449,1.449,0,0,0-1.961-.946.825.825,0,0,0-.6.694c-.005.339.371.548.6.646a4.412,4.412,0,0,0,.836.179,3.382,3.382,0,0,1,2.376,1.162,2.415,2.415,0,0,1,.434,2.453,2.816,2.816,0,0,1-2.168,1.684v.413a.938.938,0,0,1-1.876,0v-.468A3.187,3.187,0,0,1,335.477,222.059Z" transform="translate(-272.936 -170.782)" fill="#f9ac00" fill-rule="evenodd"/>
      <path id="Trazado_978716" data-name="Trazado 978716" d="M239.451,190.884V185.5h-6.241v5.387Z" transform="translate(-187.242 -146.239)" fill="#f3f3ff" fill-rule="evenodd"/>
      <path id="Trazado_978717" data-name="Trazado 978717" d="M210.116,136.756v6.325h3.119V136.3c-.05-.034-.1-.067-.151-.1l-7.965-6.153-7.966,6.152c-.048.039-.1.073-.149.107v6.776h3.117v-6.325a.938.938,0,0,1,.938-.938h8.118A.938.938,0,0,1,210.116,136.756Z" transform="translate(-156.031 -98.435)" fill="#e6b17c" fill-rule="evenodd"/>
      <path id="Trazado_978718" data-name="Trazado 978718" d="M187.87,97.833l8.54,6.595a1.15,1.15,0,0,0,1.407-1.82l-9.629-7.438a1.685,1.685,0,0,0-1.783,0l-9.627,7.438a1.15,1.15,0,1,0,1.405,1.821l8.54-6.595a.938.938,0,0,1,1.147,0Z" transform="translate(-138.207 -68.15)" fill="#d19458" fill-rule="evenodd"/>
      <path id="Trazado_978719" data-name="Trazado 978719" d="M302.623,99.4l2.049,1.581V97.626a.048.048,0,0,0-.043-.043h-1.963a.046.046,0,0,0-.043.043Z" transform="translate(-247.082 -70.45)" fill="#e6b17c" fill-rule="evenodd"/>
    </g>
  </g>
</svg>
