<svg xmlns="http://www.w3.org/2000/svg" xmlns:xlink="http://www.w3.org/1999/xlink" width="108" height="108" viewBox="0 0 108 108">
  <defs>
    <filter id="Trazado_904820" x="0" y="0" width="108" height="108" filterUnits="userSpaceOnUse">
      <feOffset dy="3" input="SourceAlpha"/>
      <feGaussianBlur stdDeviation="3" result="blur"/>
      <feFlood flood-opacity="0.161"/>
      <feComposite operator="in" in2="blur"/>
      <feComposite in="SourceGraphic"/>
    </filter>
  </defs>
  <g id="Grupo_1143706" data-name="Grupo 1143706" transform="translate(-726 -1350)">
    <g id="Grupo_1143705" data-name="Grupo 1143705">
      <g transform="matrix(1, 0, 0, 1, 726, 1350)" filter="url(#Trazado_904820)">
        <g id="Trazado_904820-2" data-name="Trazado 904820" transform="translate(9 6)" fill="#ecf4fa">
          <path d="M 45 88.5 C 39.12687683105469 88.5 33.43022537231445 87.35007476806641 28.06830024719238 85.08217620849609 C 22.88852500915527 82.89131164550781 18.23629951477051 79.75458526611328 14.2408504486084 75.75914764404297 C 10.24541282653809 71.76370239257812 7.108687400817871 67.11147308349609 4.917825222015381 61.93170166015625 C 2.649924993515015 56.56977462768555 1.5 50.87312316894531 1.5 45 C 1.5 39.12687683105469 2.649924993515015 33.43022537231445 4.917825222015381 28.06830024719238 C 7.108687400817871 22.88852500915527 10.24541282653809 18.23629951477051 14.2408504486084 14.2408504486084 C 18.23629951477051 10.24541282653809 22.88852500915527 7.108687400817871 28.06830024719238 4.917825222015381 C 33.43022537231445 2.649924993515015 39.12687683105469 1.5 45 1.5 C 50.87312316894531 1.5 56.56977462768555 2.649924993515015 61.93170166015625 4.917825222015381 C 67.11147308349609 7.108687400817871 71.76370239257812 10.24541282653809 75.75914764404297 14.2408504486084 C 79.75458526611328 18.23629951477051 82.89131164550781 22.88852500915527 85.08217620849609 28.06830024719238 C 87.35007476806641 33.43022537231445 88.5 39.12687683105469 88.5 45 C 88.5 50.87312316894531 87.35007476806641 56.56977462768555 85.08217620849609 61.93170166015625 C 82.89131164550781 67.11147308349609 79.75458526611328 71.76370239257812 75.75914764404297 75.75914764404297 C 71.76370239257812 79.75458526611328 67.11147308349609 82.89131164550781 61.93170166015625 85.08217620849609 C 56.56977462768555 87.35007476806641 50.87312316894531 88.5 45 88.5 Z" stroke="none"/>
          <path d="M 45 3 C 39.32871246337891 3 33.82865524291992 4.110054016113281 28.65262985229492 6.299339294433594 C 23.65165710449219 8.414573669433594 19.15968322753906 11.44334411621094 15.301513671875 15.301513671875 C 11.44334411621094 19.15968322753906 8.414573669433594 23.65165710449219 6.299339294433594 28.65262985229492 C 4.110054016113281 33.82865524291992 3 39.32871246337891 3 45 C 3 50.67128753662109 4.110054016113281 56.17134475708008 6.299339294433594 61.34737396240234 C 8.414573669433594 66.34834289550781 11.44334411621094 70.84031677246094 15.301513671875 74.698486328125 C 19.15968322753906 78.55665588378906 23.65165710449219 81.58542633056641 28.65262985229492 83.70066070556641 C 33.82865524291992 85.88994598388672 39.32871246337891 87 45 87 C 50.67128753662109 87 56.17134475708008 85.88994598388672 61.34737396240234 83.70066070556641 C 66.34834289550781 81.58542633056641 70.84031677246094 78.55665588378906 74.698486328125 74.698486328125 C 78.55665588378906 70.84031677246094 81.58542633056641 66.34834289550781 83.70066070556641 61.34737396240234 C 85.88994598388672 56.17134475708008 87 50.67128753662109 87 45 C 87 39.32871246337891 85.88994598388672 33.82865524291992 83.70066070556641 28.65262985229492 C 81.58542633056641 23.65165710449219 78.55665588378906 19.15968322753906 74.698486328125 15.301513671875 C 70.84031677246094 11.44334411621094 66.34834289550781 8.414573669433594 61.34737396240234 6.299339294433594 C 56.17134475708008 4.110054016113281 50.67128753662109 3 45 3 M 45 0 C 69.85281372070312 0 90 20.14718627929688 90 45 C 90 69.85281372070312 69.85281372070312 90 45 90 C 20.14718627929688 90 0 69.85281372070312 0 45 C 0 20.14718627929688 20.14718627929688 0 45 0 Z" stroke="none" fill="#2a5673"/>
        </g>
      </g>
    </g>
    <g id="Grupo_1143704" data-name="Grupo 1143704" transform="translate(748.999 1376)">
      <g id="Grupo_1143703" data-name="Grupo 1143703" transform="translate(0.908 0.908)">
        <path id="Trazado_978651" data-name="Trazado 978651" d="M293.672,13.259l-.121,1.457a6.955,6.955,0,0,1-1.82,4.691,6.175,6.175,0,0,1-3.179,1.776v1.1a5.76,5.76,0,0,1-2.373,4.661,5.413,5.413,0,0,1-2.72.821v.648a5.781,5.781,0,0,1-.12,1.17,7.636,7.636,0,0,1-.507,1.688,5.053,5.053,0,0,1-1.746,1.8,5.758,5.758,0,0,1-3.389,1.1l-5.128.242h-7.188A.481.481,0,0,1,264.9,34a.393.393,0,0,1,0-.065V31.491a.351.351,0,0,1,0-.062c.014-.122.857-.026,1.385-.314a6.791,6.791,0,0,0,.728-.585,6.187,6.187,0,0,0,2.309-4.821V23.651a8.525,8.525,0,0,1,5.417-7.937,24.089,24.089,0,0,1,8.778-1.657H287c.184,0,.367,0,.55-.012a10.543,10.543,0,0,0,2.406-.026,12.946,12.946,0,0,0,3-1.183.482.482,0,0,1,.713.423Z" transform="translate(-233.73 -12.138)" fill="#f5f8f9"/>
        <path id="Trazado_978652" data-name="Trazado 978652" d="M352.079,9.836a12.945,12.945,0,0,1-3,1.183,12.876,12.876,0,0,1-2.648.39c-.9.038-.5,3.206-2.725,7.38-.176.33-.12.665-.318,1.006-.155.267-.56.538-.729.811a32.012,32.012,0,0,1-3.619,4.764c-.279.3-.325.606-.624.908s-.857.608-1.181.909a33.408,33.408,0,0,1-3.067,2.527,11.909,11.909,0,0,0-2.279,2.066h4.926a5.763,5.763,0,0,0,5.643-4.594,6.03,6.03,0,0,0-.122-1.17l.242-.648a5.759,5.759,0,0,0,5.012-4.763c.053-.315-.161-.637-.161-.962l.242-.855a6.957,6.957,0,0,0,5.12-6.71v-1.82a.482.482,0,0,0-.713-.423Z" transform="translate(-292.608 -9.501)" fill="#e8edf2"/>
        <path id="Trazado_978653" data-name="Trazado 978653" d="M35.061,29.1v1.959a.4.4,0,0,1,0,.065c-.031.235.01.417-.234.417l-5.99.242H23.476a5.763,5.763,0,0,1-5.643-4.594c-.079-.381.122-.651.122-1.049l-.242-.768a5.827,5.827,0,0,1-2.72-1.064,5.755,5.755,0,0,1-2.292-3.7c-.053-.315.161-.637.161-.962l-.242-.855a6.957,6.957,0,0,1-5.12-6.71v-1.82a.482.482,0,0,1,.713-.423,12.945,12.945,0,0,0,3,1.183,12.888,12.888,0,0,0,3.2.4h3.482a24.084,24.084,0,0,1,4.186.367,22.606,22.606,0,0,1,4.35,1.531,8.509,8.509,0,0,1,3.933,3.133,7.759,7.759,0,0,1,1.483,4.562v2.059a6.8,6.8,0,0,0,2.43,5.063l.607.585a.473.473,0,0,1,.174.314.354.354,0,0,1,0,.062Z" transform="translate(-7.5 -9.501)" fill="#f5f8f9"/>
        <path id="Trazado_978654" data-name="Trazado 978654" d="M140.932,43.084a4.688,4.688,0,0,1-.728-.585,6.187,6.187,0,0,1-2.309-4.821V35.62a8.525,8.525,0,0,0-5.417-7.937,24.086,24.086,0,0,0-4.592-1.289c2.526,2.48,6.619,7.866,6.619,17.294a24.428,24.428,0,0,0,.136,2.7h7.2a.481.481,0,0,0,.476-.417.4.4,0,0,0,0-.065V43.46a.355.355,0,0,0,0-.062c-.015-.122-.828-.067-1.385-.314Z" transform="translate(-113.308 -24.106)" fill="#e8edf2"/>
        <path id="Trazado_978655" data-name="Trazado 978655" d="M241.163,72.512v27a7.906,7.906,0,0,1-.078,1.094c-.008.031-.017.064-.027.1-.291.966-.676,1.425-1.705,1.425a1.842,1.842,0,0,1-1.974-1.522,7.906,7.906,0,0,1-.078-1.094l.242-27.09-.484-.665V52.217l.363-5.257H241.4l.242,5.257V71.753Z" transform="translate(-209.261 -42.182)" fill="#ffd15b"/>
        <path id="Trazado_978656" data-name="Trazado 978656" d="M241.647,44.96V98.235a2.454,2.454,0,0,1-.077.609c-.008.031-.017.064-.027.1a2.272,2.272,0,0,1-4.405-.1,7.906,7.906,0,0,1-.077-1.093V70l1.669.507a.484.484,0,0,0,.625-.464V51.35a.486.486,0,0,0-.458-.483,6.436,6.436,0,0,1-1.836-.408v-5.5Z" transform="translate(-209.261 -40.424)" fill="#ffc344"/>
        <path id="Trazado_978657" data-name="Trazado 978657" d="M230.369,11.519a3.242,3.242,0,0,1-3.534,3.534c-1.742,0-3.225-.624-3.782-2.174a4.021,4.021,0,0,1,5.142-5.142C229.745,8.294,230.369,9.777,230.369,11.519Z" transform="translate(-196.742 -7.5)" fill="#ffe177"/>
        <path id="Trazado_978658" data-name="Trazado 978658" d="M229.908,9.451a4.02,4.02,0,0,1-5.142,5.142,4.019,4.019,0,1,0,5.142-5.142Z" transform="translate(-198.456 -9.215)" fill="#ffd15b"/>
        <path id="Trazado_978659" data-name="Trazado 978659" d="M161.532,184.36l-11.461-3.6-.872-.592-4.12-1.294a2.841,2.841,0,0,1-2-2.721v-.008a1.238,1.238,0,0,1,.631-1.057l3.034-1.752a2.284,2.284,0,0,0,.836-3.12l-.134-.232a3.869,3.869,0,0,0-5.286-1.416,4.908,4.908,0,0,0-2.445,3.911,5.917,5.917,0,0,1-.274,1.491,6.832,6.832,0,0,0,3.391,8.3c.332.167.923.067,1.287.182l12.254,3.85.9.6,3.257,1.023a1.523,1.523,0,0,1,1.049,1.126,1.489,1.489,0,0,1-.96,1.707l-4.418,1.563-2.353,1.231a9.156,9.156,0,0,0-4.523,3.249,5.433,5.433,0,0,0-.7,1.142c-.011.021-.505.406-.516.428a10.607,10.607,0,0,0-1.111,4.659,2.037,2.037,0,0,0,1.936,2.065,2,2,0,0,0,2.065-2,7.463,7.463,0,0,1,4.182-6.5l4.213-1.162,2.558-.9a5.491,5.491,0,0,0,1.47-9.562A6.545,6.545,0,0,0,161.532,184.36Z" transform="translate(-123.147 -148.606)" fill="#5de1c4"/>
        <g id="Grupo_1143702" data-name="Grupo 1143702" transform="translate(19.688 31.562)">
          <path id="Trazado_978660" data-name="Trazado 978660" d="M215.821,375.275a4.191,4.191,0,0,1,1.505.931,6.642,6.642,0,0,1,3.683-3.214l3.971-1.4a13.109,13.109,0,0,0-3.194-3.114l-2.111.747a10.646,10.646,0,0,0-5.979,5.3Z" transform="translate(-208.415 -356.323)" fill="#0ed2b3"/>
          <path id="Trazado_978661" data-name="Trazado 978661" d="M176.449,268.133l-5.22,1.64a8.034,8.034,0,0,0-1.144.459,6.961,6.961,0,0,0,1.044.424l13.4,4.21,6.045-1.9.1-.035a5.515,5.515,0,0,0-1.656-.847Z" transform="translate(-170.086 -268.133)" fill="#0ed2b3"/>
        </g>
        <path id="Trazado_978662" data-name="Trazado 978662" d="M157.631,184.117l16.695-5.245a2.841,2.841,0,0,0,2-2.721v-.008a1.238,1.238,0,0,0-.631-1.057l-3.034-1.752a2.284,2.284,0,0,1-.836-3.12l.134-.232a3.869,3.869,0,0,1,5.286-1.416,4.908,4.908,0,0,1,2.445,3.911,5.917,5.917,0,0,0,.274,1.491,6.833,6.833,0,0,1-4.436,8.722l-16.656,5.233a1.523,1.523,0,0,0-1.049,1.126,1.489,1.489,0,0,0,.96,1.707l6.529,2.309a10.655,10.655,0,0,1,7.09,9.963,2.037,2.037,0,0,1-1.936,2.065,2,2,0,0,1-2.065-2,6.648,6.648,0,0,0-4.424-6.257l-6.529-2.309a5.488,5.488,0,0,1,.185-10.41Z" transform="translate(-136.073 -148.606)" fill="#86e8d0"/>
      </g>
      <path id="Trazado_978663" data-name="Trazado 978663" d="M60.61.276a1.39,1.39,0,0,0-.666.171,12.032,12.032,0,0,1-5.761,1.473H50.7A25,25,0,0,0,41.591,3.64,9.376,9.376,0,0,0,35.6,12.422v2.059a5.249,5.249,0,0,1-1.4,3.573V16.335a.908.908,0,0,0-1.816,0V32.352L31,32.787l-1.385-.435V9.654a4.905,4.905,0,0,0,2.771,0V12.1a.908.908,0,0,0,1.816,0V8.667a4.927,4.927,0,1,0-6.4,0v9.387a5.249,5.249,0,0,1-1.4-3.573V12.422A9.376,9.376,0,0,0,20.41,3.64a24.977,24.977,0,0,0-8.064-1.7.908.908,0,1,0-.076,1.815,23.155,23.155,0,0,1,7.478,1.573,7.57,7.57,0,0,1,4.839,7.091v2.059a7.063,7.063,0,0,0,2.649,5.529l.563.452v1.817H26.243c-.06-.131-.174-.321-.247-.448a4.783,4.783,0,0,0-6.526-1.749,5.813,5.813,0,0,0-2.166,2.2h-.419a4.854,4.854,0,0,1-4.845-4.556h6.549a.908.908,0,0,0,0-1.816h-6.8A4.853,4.853,0,0,1,6.944,11.3a7.948,7.948,0,0,0,.92.055h5.6a.908.908,0,1,0,0-1.816h-5.6A6.047,6.047,0,0,1,1.816,3.486V2.365A13.914,13.914,0,0,0,8.07,3.737a.908.908,0,0,0,0-1.816A12.085,12.085,0,0,1,2.058.447,1.39,1.39,0,0,0,0,1.666v1.82a7.866,7.866,0,0,0,4.69,7.2c.142.063.286.12.43.174a6.709,6.709,0,0,0,2.747,5.591,6.64,6.64,0,0,0,2.35,1.09,6.667,6.667,0,0,0,6.438,6.555,5.861,5.861,0,0,0-.08.625,4.975,4.975,0,0,1-.228,1.263,7.741,7.741,0,0,0,5.046,9.888A6.395,6.395,0,0,0,20.04,46.587a.908.908,0,1,0,1.158-1.4,4.579,4.579,0,0,1,1.54-7.9l16.7-5.243a3.749,3.749,0,0,0,2.633-3.6,2.115,2.115,0,0,0-1.056-1.827L37.948,24.85a1.377,1.377,0,0,1-.505-1.878l.136-.234a2.961,2.961,0,0,1,4.044-1.084,3.995,3.995,0,0,1,1.993,3.19,6.727,6.727,0,0,0,.321,1.718,5.924,5.924,0,0,1-3.848,7.563L23.431,39.358a2.4,2.4,0,0,0-.119,4.556l6.529,2.309a9.756,9.756,0,0,1,6.485,9.112,1.126,1.126,0,0,1-1.057,1.151A1.1,1.1,0,0,1,34.142,55.4a7.562,7.562,0,0,0-5.029-7.113l-4.3-1.519a.908.908,0,1,0-.605,1.713l1.567.554a11.6,11.6,0,0,0-1.919,6.294A2.954,2.954,0,0,0,26.674,58.3a2.9,2.9,0,0,0,1.125-.188v.605a3.2,3.2,0,1,0,6.4,0v-.61a2.873,2.873,0,0,0,1.125.193,2.952,2.952,0,0,0,2.815-2.978,11.527,11.527,0,0,0-1.922-6.294l3.8-1.345a6.4,6.4,0,0,0,.585-11.82l.024-.008a7.741,7.741,0,0,0,5.024-9.88,4.984,4.984,0,0,1-.229-1.262,5.818,5.818,0,0,0-.08-.625,6.666,6.666,0,0,0,6.438-6.555,6.639,6.639,0,0,0,2.35-1.09,6.709,6.709,0,0,0,2.747-5.591c.145-.054.289-.111.431-.174a7.859,7.859,0,0,0,1.932-1.216.908.908,0,0,0-1.182-1.379,6.03,6.03,0,0,1-3.925,1.448h-5.6a.908.908,0,0,0,0,1.816h5.6a7.921,7.921,0,0,0,.92-.055,4.853,4.853,0,0,1-4.848,4.611h-6.8a.908.908,0,1,0,0,1.816h6.549a4.854,4.854,0,0,1-4.845,4.556H44.7a5.789,5.789,0,0,0-2.167-2.2,4.782,4.782,0,0,0-6.524,1.747c-.074.128-.188.318-.249.45H34.2V20.462l.563-.454a7.062,7.062,0,0,0,2.648-5.529V12.422a7.57,7.57,0,0,1,4.839-7.091A23.183,23.183,0,0,1,50.7,3.737h3.482a13.858,13.858,0,0,0,6-1.372V3.486A5.99,5.99,0,0,1,60,4.951a.908.908,0,1,0,1.761.444A7.8,7.8,0,0,0,62,3.486V1.666A1.392,1.392,0,0,0,60.61.276ZM31,1.816a3.11,3.11,0,1,1-3.11,3.11A3.114,3.114,0,0,1,31,1.816Zm-4.27,54.671a1.127,1.127,0,0,1-1.056-1.152,9.778,9.778,0,0,1,1.878-5.678l.954.337a5.7,5.7,0,0,1,1.127.545A7.592,7.592,0,0,0,27.859,55.4a1.092,1.092,0,0,1-1.128,1.092Zm4.27,3.7a1.428,1.428,0,0,1-1.385-1.465V55.988a2.947,2.947,0,0,0,.06-.592A5.763,5.763,0,0,1,31,51.736,5.729,5.729,0,0,1,32.325,55.4a2.9,2.9,0,0,0,.061.585v2.74A1.428,1.428,0,0,1,31,60.185Zm7.025-19.093a.62.62,0,0,1,.431.443.584.584,0,0,1-.373.667L34.2,43.574V39.89Zm-14.482.444a.623.623,0,0,1,.432-.444l3.823-1.2v3.685L23.918,42.2a.578.578,0,0,1-.374-.667Zm6.071,2.682v-4.9L31,38.884l1.386.435v4.9l-.832.294c-.186.066-.371.138-.554.214-.182-.075-.365-.147-.552-.214Zm8.064-7.428,1.584.5a4.58,4.58,0,0,1,.155,8.687l-4.385,1.551a11.562,11.562,0,0,0-1.9-1.644l5.56-1.966a2.4,2.4,0,0,0-.119-4.556l-4.54-1.426,3.644-1.145,0,0ZM27.8,31.781l-4.686-1.472a1.936,1.936,0,0,1-1.361-1.853.31.31,0,0,1,.154-.267l3.057-1.765A3.188,3.188,0,0,0,26.526,24.1H27.8v7.686ZM17.75,28.454a5.863,5.863,0,0,1,.315-1.891,6.715,6.715,0,0,0,.32-1.719,4,4,0,0,1,1.993-3.189,2.961,2.961,0,0,1,4.045,1.084,1.576,1.576,0,0,1-.37,2.112L21,26.616a2.132,2.132,0,0,0-1.062,1.839,3.745,3.745,0,0,0,2.633,3.588l5.4,1.7-3.644,1.145-2.412-.758A5.921,5.921,0,0,1,17.75,28.454ZM35.475,24.1a3.187,3.187,0,0,0,1.564,2.329l3.063,1.77a.3.3,0,0,1,.147.261,1.937,1.937,0,0,1-1.361,1.856L34.2,31.782V24.1Z"/>
    </g>
  </g>
</svg>
