<svg xmlns="http://www.w3.org/2000/svg" xmlns:xlink="http://www.w3.org/1999/xlink" width="108" height="108" viewBox="0 0 108 108">
  <defs>
    <filter id="Fondo" x="0" y="0" width="108" height="108" filterUnits="userSpaceOnUse">
      <feOffset dy="3" input="SourceAlpha"/>
      <feGaussianBlur stdDeviation="3" result="blur"/>
      <feFlood flood-opacity="0.161"/>
      <feComposite operator="in" in2="blur"/>
      <feComposite in="SourceGraphic"/>
    </filter>
  </defs>
  <g id="Grupo_1143764" data-name="Grupo 1143764" transform="translate(-745.999 -1794)">
    <g transform="matrix(1, 0, 0, 1, 746, 1794)" filter="url(#Fondo)">
      <g id="Fondo-2" data-name="Fondo" transform="translate(9 6)" fill="#fff2ee" stroke="#ff8a60" stroke-width="3">
        <circle cx="45" cy="45" r="45" stroke="none"/>
        <circle cx="45" cy="45" r="43.5" fill="none"/>
      </g>
    </g>
    <g id="Grupo_1143763" data-name="Grupo 1143763" transform="translate(744.508 1810.468)">
      <g id="Grupo_1143737" data-name="Grupo 1143737" transform="translate(24.416 4.237)">
        <g id="Grupo_1143736" data-name="Grupo 1143736" transform="translate(0)">
          <path id="Trazado_978679" data-name="Trazado 978679" d="M61.5,30.7A31.038,31.038,0,0,0,39.628,83.769a4.144,4.144,0,1,0,5.814-5.906A22.751,22.751,0,0,1,61.5,38.981Z" transform="translate(-30.457 -30.704)" fill="#92dd7a"/>
        </g>
      </g>
      <g id="Grupo_1143739" data-name="Grupo 1143739" transform="translate(34.096 4.237)">
        <g id="Grupo_1143738" data-name="Grupo 1143738">
          <path id="Trazado_978680" data-name="Trazado 978680" d="M100.623,39.223a4.208,4.208,0,0,1,5.732,5.986,22.68,22.68,0,0,1,15.628-6.229V30.7A30.933,30.933,0,0,0,100.623,39.223Z" transform="translate(-100.623 -30.704)" fill="#7ec66a"/>
        </g>
      </g>
      <g id="Grupo_1143741" data-name="Grupo 1143741" transform="translate(55.456 12.05)">
        <g id="Grupo_1143740" data-name="Grupo 1143740" transform="translate(0)">
          <path id="Trazado_978681" data-name="Trazado 978681" d="M255.457,141.606a31.038,31.038,0,0,0,21.869-53.065,4.144,4.144,0,1,0-5.814,5.906,22.751,22.751,0,0,1-16.055,38.882Z" transform="translate(-255.457 -87.339)" fill="#92dd7a"/>
        </g>
      </g>
      <g id="Grupo_1143744" data-name="Grupo 1143744" transform="translate(55.457 51.811)">
        <g id="Grupo_1143743" data-name="Grupo 1143743" transform="translate(0)">
          <g id="Grupo_1143742" data-name="Grupo 1143742">
            <path id="Trazado_978682" data-name="Trazado 978682" d="M271.5,381.017a4.209,4.209,0,0,1-.419-5.463,22.68,22.68,0,0,1-15.628,6.229v8.277a30.933,30.933,0,0,0,21.36-8.519A4.208,4.208,0,0,1,271.5,381.017Z" transform="translate(-255.458 -375.554)" fill="#7ec66a"/>
          </g>
        </g>
      </g>
      <g id="Grupo_1143749" data-name="Grupo 1143749" transform="translate(51.161 1.017)">
        <g id="Grupo_1143746" data-name="Grupo 1143746" transform="translate(0 0.017)">
          <g id="Grupo_1143745" data-name="Grupo 1143745">
            <path id="Trazado_978683" data-name="Trazado 978683" d="M227.765,7.918l8.262,6.1a2.161,2.161,0,0,1,0,3.476l-8.262,6.1a2.161,2.161,0,0,1-3.445-1.738V9.656A2.161,2.161,0,0,1,227.765,7.918Z" transform="translate(-224.32 -7.491)" fill="#b1ef97"/>
          </g>
        </g>
        <g id="Grupo_1143748" data-name="Grupo 1143748">
          <g id="Grupo_1143747" data-name="Grupo 1143747">
            <path id="Trazado_978684" data-name="Trazado 978684" d="M236.026,13.9l-8.262-6.1a2.161,2.161,0,0,0-3.445,1.738V20.3C224.319,14.012,231.928,10.868,236.026,13.9Z" transform="translate(-224.319 -7.365)" fill="#92dd7a"/>
          </g>
        </g>
      </g>
      <g id="Grupo_1143754" data-name="Grupo 1143754" transform="translate(47.168 52.982)">
        <g id="Grupo_1143751" data-name="Grupo 1143751" transform="translate(0)">
          <g id="Grupo_1143750" data-name="Grupo 1143750">
            <path id="Trazado_978685" data-name="Trazado 978685" d="M204.519,400.153l-8.262-6.1a2.161,2.161,0,0,1,0-3.476l8.262-6.1a2.161,2.161,0,0,1,3.445,1.738v12.208A2.161,2.161,0,0,1,204.519,400.153Z" transform="translate(-195.381 -384.043)" fill="#b1ef97"/>
          </g>
        </g>
        <g id="Grupo_1143753" data-name="Grupo 1143753" transform="translate(0.877 3.623)">
          <g id="Grupo_1143752" data-name="Grupo 1143752">
            <path id="Trazado_978686" data-name="Trazado 978686" d="M201.736,416.705l8.262,6.1a2.161,2.161,0,0,0,3.445-1.738V410.3c0,6.285-7.609,9.428-11.707,6.4Z" transform="translate(-201.736 -410.304)" fill="#92dd7a"/>
          </g>
        </g>
      </g>
      <g id="Grupo_1143756" data-name="Grupo 1143756" transform="translate(44.981 24.37)">
        <g id="Grupo_1143755" data-name="Grupo 1143755">
          <path id="Trazado_978687" data-name="Trazado 978687" d="M198.946,178.7l-2.823,5.945a.721.721,0,0,0,.651,1.03h2.254a1.442,1.442,0,0,1,.954,2.524l-13.925,12.28a2.931,2.931,0,0,1-4.581-3.468l3.389-7.052a.721.721,0,0,0-.65-1.033h-3.25a1.442,1.442,0,0,1-1.3-2.067l4.125-8.585a2.884,2.884,0,0,1,2.6-1.635h11.253A1.442,1.442,0,0,1,198.946,178.7Z" transform="translate(-179.522 -176.643)" fill="#ffeb99"/>
        </g>
      </g>
      <g id="Grupo_1143758" data-name="Grupo 1143758" transform="translate(44.98 24.37)">
        <g id="Grupo_1143757" data-name="Grupo 1143757">
          <path id="Trazado_978688" data-name="Trazado 978688" d="M192.351,189.965a.721.721,0,0,0-.65-1.033h-3.25a1.442,1.442,0,0,1-1.3-2.067l4.125-8.585a2.884,2.884,0,0,1,2.6-1.635h-7.487a2.884,2.884,0,0,0-2.6,1.635l-4.125,8.585a1.442,1.442,0,0,0,1.3,2.067h3.25a.721.721,0,0,1,.65,1.033l-3.389,7.052a2.931,2.931,0,0,0,4.581,3.468l2.152-1.9Z" transform="translate(-179.52 -176.645)" fill="#ffde55"/>
        </g>
      </g>
      <g id="Grupo_1143762" data-name="Grupo 1143762" transform="translate(23.45 0.001)">
        <g id="Grupo_1143759" data-name="Grupo 1143759" transform="translate(0 0)">
          <path id="Trazado_978689" data-name="Trazado 978689" d="M33.728,35.277a21.779,21.779,0,0,1,16.4-21.066v1.2a3.193,3.193,0,0,0,5.094,2.57l8.262-6.1a3.2,3.2,0,0,0,0-5.14L55.22.629A3.2,3.2,0,0,0,50.126,3.2v.445a32.086,32.086,0,0,0-26.674,29.5,1.035,1.035,0,0,0,.964,1.1l.069,0a1.035,1.035,0,0,0,1.031-.967A30.1,30.1,0,0,1,50.126,5.745v6.338A23.784,23.784,0,0,0,38.671,52.129a3.128,3.128,0,0,1,.607,3.634,3.109,3.109,0,0,1-4.962.8,29.944,29.944,0,0,1-8.8-19.271,1.035,1.035,0,1,0-2.065.137,32.011,32.011,0,0,0,9.405,20.6,5.112,5.112,0,0,0,3.624,1.5,5.314,5.314,0,0,0,.846-.068,5.129,5.129,0,0,0,3.8-2.773,5.192,5.192,0,0,0-.992-6.036,21.574,21.574,0,0,1-6.4-15.386ZM52.2,3.2a1.107,1.107,0,0,1,.619-1.005,1.131,1.131,0,0,1,.511-.124,1.114,1.114,0,0,1,.665.224l8.262,6.1a1.126,1.126,0,0,1,0,1.811l-8.262,6.1a1.126,1.126,0,0,1-1.8-.906Z" transform="translate(-23.45 -0.001)"/>
        </g>
        <g id="Grupo_1143760" data-name="Grupo 1143760" transform="translate(22.684 11.013)">
          <path id="Trazado_978690" data-name="Trazado 978690" d="M219.8,81.333a5.178,5.178,0,0,0-8.266,1.338,5.192,5.192,0,0,0,.992,6.036,21.574,21.574,0,0,1,6.4,15.386,21.794,21.794,0,0,1-16.4,21.066v-1.2a3.2,3.2,0,0,0-5.094-2.57l-8.262,6.1a3.2,3.2,0,0,0,0,5.14l8.262,6.1a3.2,3.2,0,0,0,5.094-2.57v-.445A32.076,32.076,0,0,0,219.8,81.333ZM200.465,136.17a1.126,1.126,0,0,1-1.8.906l-8.262-6.1a1.126,1.126,0,0,1,0-1.811l8.262-6.1a1.126,1.126,0,0,1,1.8.906Zm2.069-2.546v-6.337A23.785,23.785,0,0,0,213.989,87.24a3.128,3.128,0,0,1-.607-3.634,3.109,3.109,0,0,1,4.962-.8,29.8,29.8,0,0,1,8.865,21.291A30.16,30.16,0,0,1,202.534,133.624Z" transform="translate(-187.881 -79.829)"/>
        </g>
        <g id="Grupo_1143761" data-name="Grupo 1143761" transform="translate(20.496 23.334)">
          <path id="Trazado_978691" data-name="Trazado 978691" d="M174.293,193.931a3.966,3.966,0,0,0,5.98.863l7.82-6.9a1.035,1.035,0,0,0-1.369-1.552l-7.82,6.9a1.9,1.9,0,0,1-1.254.474,1.9,1.9,0,0,1-1.71-2.718l3.389-7.052a1.756,1.756,0,0,0-1.583-2.516H174.5a.408.408,0,0,1-.367-.584l4.125-8.585a1.859,1.859,0,0,1,1.667-1.048h11.253a.407.407,0,0,1,.368.582l-2.823,5.945a1.756,1.756,0,0,0,1.586,2.509h2.254a.407.407,0,0,1,.269.713l-3.1,2.738a1.035,1.035,0,0,0,1.369,1.552l3.1-2.738a2.477,2.477,0,0,0-1.638-4.334H190.8l2.61-5.5a2.477,2.477,0,0,0-2.238-3.539H179.922a3.939,3.939,0,0,0-3.532,2.222l-4.125,8.585A2.477,2.477,0,0,0,174.5,183.5h2.751l-3.173,6.6A3.945,3.945,0,0,0,174.293,193.931Z" transform="translate(-172.019 -169.143)"/>
        </g>
      </g>
    </g>
  </g>
</svg>
