<svg xmlns="http://www.w3.org/2000/svg" xmlns:xlink="http://www.w3.org/1999/xlink" width="108" height="108" viewBox="0 0 108 108">
  <defs>
    <filter id="Fondo" x="0" y="0" width="108" height="108" filterUnits="userSpaceOnUse">
      <feOffset dy="3" input="SourceAlpha"/>
      <feGaussianBlur stdDeviation="3" result="blur"/>
      <feFlood flood-opacity="0.161"/>
      <feComposite operator="in" in2="blur"/>
      <feComposite in="SourceGraphic"/>
    </filter>
  </defs>
  <g id="Grupo_1143781" data-name="Grupo 1143781" transform="translate(-1165.999 -1794)">
    <g transform="matrix(1, 0, 0, 1, 1166, 1794)" filter="url(#Fondo)">
      <g id="Fondo-2" data-name="Fondo" transform="translate(9 6)" fill="#fff2ee" stroke="#ff8a60" stroke-width="3">
        <circle cx="45" cy="45" r="45" stroke="none"/>
        <circle cx="45" cy="45" r="43.5" fill="none"/>
      </g>
    </g>
    <g id="Grupo_1143780" data-name="Grupo 1143780" transform="translate(1178.239 1816.648)">
      <path id="Trazado_978692" data-name="Trazado 978692" d="M140.536,137.793a17.818,17.818,0,0,0-5.163.761v13.613a.554.554,0,0,1-.554.554H122.95a17.832,17.832,0,0,0,22.563,20.011V161.145a.554.554,0,0,1,.554-.554h11.585a17.833,17.833,0,0,0-17.116-22.8Z" transform="translate(-95.717 -122.533)" fill="#fd4755"/>
      <g id="Grupo_1143766" data-name="Grupo 1143766" transform="translate(44.82 33.082)">
        <g id="Grupo_1143765" data-name="Grupo 1143765" transform="translate(0)">
          <path id="Trazado_978693" data-name="Trazado 978693" d="M283.636,298.715v17.822a17.891,17.891,0,0,0,3.708-.387V298.715Z" transform="translate(-283.636 -298.715)" fill="#fb2b3a"/>
        </g>
      </g>
      <g id="Grupo_1143767" data-name="Grupo 1143767" transform="translate(44.82 15.26)">
        <path id="Trazado_978694" data-name="Trazado 978694" d="M283.636,155.615h17.822a17.821,17.821,0,0,0-17.822-17.822Z" transform="translate(-283.636 -137.793)" fill="#8bc727"/>
      </g>
      <g id="Grupo_1143768" data-name="Grupo 1143768" transform="translate(44.82 15.26)">
        <path id="Trazado_978695" data-name="Trazado 978695" d="M283.636,137.793v17.822h3.708V138.18A17.891,17.891,0,0,0,283.636,137.793Z" transform="translate(-283.636 -137.793)" fill="#81b823"/>
      </g>
      <path id="Trazado_978696" data-name="Trazado 978696" d="M135.373,138.554v13.612a.554.554,0,0,1-.554.554H122.95a17.83,17.83,0,0,0,17.586,20.716V137.793A17.821,17.821,0,0,0,135.373,138.554Z" transform="translate(-95.717 -122.533)" fill="#fac600"/>
      <g id="Grupo_1143769" data-name="Grupo 1143769" transform="translate(26.998 30.187)">
        <path id="Trazado_978697" data-name="Trazado 978697" d="M126.414,275.472a17.94,17.94,0,0,1,.235-2.895h-3.7a17.83,17.83,0,0,0,17.586,20.716v-.385A17.827,17.827,0,0,1,126.414,275.472Z" transform="translate(-122.715 -272.577)" fill="#e8b800"/>
      </g>
      <g id="Grupo_1143770" data-name="Grupo 1143770" transform="translate(49.797 38.059)">
        <path id="Trazado_978698" data-name="Trazado 978698" d="M329.149,361.47a17.822,17.822,0,0,0,17.242-17.242.554.554,0,0,0-.554-.571h-16.7a.554.554,0,0,0-.554.554v16.7A.555.555,0,0,0,329.149,361.47Z" transform="translate(-328.578 -343.657)" fill="#01d0fb"/>
      </g>
      <g id="Grupo_1143771" data-name="Grupo 1143771" transform="translate(49.797 38.059)">
        <path id="Trazado_978699" data-name="Trazado 978699" d="M332.063,360.915v-16.7a.554.554,0,0,1,.554-.554h-3.484a.554.554,0,0,0-.554.554v16.7a.554.554,0,0,0,.571.554,17.864,17.864,0,0,0,2.957-.341A.552.552,0,0,1,332.063,360.915Z" transform="translate(-328.579 -343.657)" fill="#01c0fa"/>
      </g>
      <g id="Grupo_1143778" data-name="Grupo 1143778" transform="translate(15.909 0.831)">
        <g id="Grupo_1143772" data-name="Grupo 1143772" transform="translate(0)">
          <path id="Trazado_978700" data-name="Trazado 978700" d="M45.772,36.856H23.132a.554.554,0,0,1-.554-.554V8.054a.554.554,0,0,1,.554-.554H45.772a.554.554,0,0,1,.554.554V36.3A.554.554,0,0,1,45.772,36.856Z" transform="translate(-22.578 -7.5)" fill="#dff6fd"/>
        </g>
        <g id="Grupo_1143773" data-name="Grupo 1143773" transform="translate(0)">
          <path id="Trazado_978701" data-name="Trazado 978701" d="M26.284,36.3V8.054a.554.554,0,0,1,.554-.554H23.132a.554.554,0,0,0-.554.554V36.3a.554.554,0,0,0,.554.554h3.706A.554.554,0,0,1,26.284,36.3Z" transform="translate(-22.578 -7.5)" fill="#c8effe"/>
        </g>
        <g id="Grupo_1143777" data-name="Grupo 1143777" transform="translate(4.182 6.242)">
          <g id="Grupo_1143774" data-name="Grupo 1143774" transform="translate(0)">
            <path id="Trazado_978702" data-name="Trazado 978702" d="M72.837,63.935A5.258,5.258,0,0,0,68.03,66a5.258,5.258,0,0,0-4.808-2.067c-2.463.52-3.561,3.582-2.453,6.84s4,5.477,6.466,4.957a3.265,3.265,0,0,0,.794-.278,3.264,3.264,0,0,0,.794.278c2.463.52,5.358-1.7,6.466-4.957S75.3,64.455,72.837,63.935Z" transform="translate(-60.338 -63.86)" fill="#fd4755"/>
          </g>
          <g id="Grupo_1143776" data-name="Grupo 1143776" transform="translate(0 0)">
            <g id="Grupo_1143775" data-name="Grupo 1143775">
              <path id="Trazado_978703" data-name="Trazado 978703" d="M64.511,70.776c-.937-2.755-.3-5.369,1.413-6.425a4.178,4.178,0,0,0-2.7-.414c-2.463.52-3.561,3.582-2.453,6.839s4,5.477,6.466,4.957a3.265,3.265,0,0,0,.794-.278,3.265,3.265,0,0,0,.794.278,3.628,3.628,0,0,0,1.077.058c-2.178-.2-4.44-2.224-5.39-5.016Z" transform="translate(-60.337 -63.861)" fill="#fb2b3a"/>
            </g>
          </g>
        </g>
      </g>
      <g id="Grupo_1143779" data-name="Grupo 1143779" transform="translate(15.078 0)">
        <path id="Trazado_978704" data-name="Trazado 978704" d="M68.05,37.65a1.393,1.393,0,0,0-.995-.421H63a18.638,18.638,0,0,0-3.847-16.077.831.831,0,0,0-1.276,1.063A17.01,17.01,0,0,1,61.79,32.251H45.65V16.111a16.8,16.8,0,0,1,9.57,3.535.831.831,0,0,0,1.018-1.313,18.642,18.642,0,0,0-15.751-3.393V11.874a21.641,21.641,0,0,1,25.98,21.208.831.831,0,1,0,1.661,0,23.306,23.306,0,0,0-27.641-22.9V7.2a.831.831,0,1,0-1.661,0V29.356H16.739V1.661H38.826V3.322a.831.831,0,1,0,1.661,0V1.384A1.386,1.386,0,0,0,39.1,0H16.462a1.386,1.386,0,0,0-1.384,1.384V29.633a1.386,1.386,0,0,0,1.384,1.384H21.6c-.06.68-.093,1.368-.093,2.064A23.335,23.335,0,0,0,44.82,56.39a.831.831,0,1,0,0-1.661A21.672,21.672,0,0,1,23.173,33.082c0-.7.035-1.384.1-2.064h3.009A18.647,18.647,0,0,0,48.966,51.265v4.051A1.385,1.385,0,0,0,50.351,56.7h.043a18.689,18.689,0,0,0,11.525-4.468.831.831,0,0,0-1.08-1.262A17.025,17.025,0,0,1,50.627,55.03V38.889H66.768a16.862,16.862,0,0,1-3.4,9.388.831.831,0,1,0,1.326,1A18.519,18.519,0,0,0,68.44,38.655a1.39,1.39,0,0,0-.39-1.006ZM43.989,33.082v16.97A16.992,16.992,0,0,1,27.955,31.017H39.1a1.386,1.386,0,0,0,1.384-1.384V16.654a16.888,16.888,0,0,1,3.5-.543v16.97Zm6.361,4.147a1.386,1.386,0,0,0-1.384,1.384V49.557a16.9,16.9,0,0,1-3.316.495V33.912H61.79a16.891,16.891,0,0,1-.495,3.316Z" transform="translate(-15.078 0)"/>
        <path id="Trazado_978705" data-name="Trazado 978705" d="M69.11,40.366a4.2,4.2,0,0,0-2.794-2.091,5.422,5.422,0,0,0-4.359,1.169,2.5,2.5,0,0,1,.929-2.031.831.831,0,1,0-1-1.329,4.073,4.073,0,0,0-1.579,3.076,5.257,5.257,0,0,0-3.952-.885,4.2,4.2,0,0,0-2.794,2.091,7.183,7.183,0,0,0-.273,5.828A9.127,9.127,0,0,0,56.3,50.482a5.824,5.824,0,0,0,3.508,1.31,4.4,4.4,0,0,0,.91-.094,4.092,4.092,0,0,0,.623-.184,4.082,4.082,0,0,0,.623.184,5.447,5.447,0,0,0,4.418-1.216,9.128,9.128,0,0,0,3.006-4.287,7.185,7.185,0,0,0-.273-5.828Zm-1.3,5.293c-.959,2.819-3.482,4.84-5.508,4.412a2.447,2.447,0,0,1-.593-.208.831.831,0,0,0-.746,0,2.448,2.448,0,0,1-.593.208c-2.026.428-4.549-1.593-5.508-4.412a5.62,5.62,0,0,1,.144-4.471A2.531,2.531,0,0,1,56.7,39.9a2.685,2.685,0,0,1,.556-.057A4.872,4.872,0,0,1,60.711,41.7a.831.831,0,0,0,1.25,0,4.47,4.47,0,0,1,4.011-1.8,2.531,2.531,0,0,1,1.694,1.288,5.621,5.621,0,0,1,.144,4.471Z" transform="translate(-48.632 -31.94)"/>
        <path id="Trazado_978706" data-name="Trazado 978706" d="M126.343,199.174H118.37a.831.831,0,1,0,0,1.661h7.973a.831.831,0,1,0,0-1.661Z" transform="translate(-106.192 -177.116)"/>
        <path id="Trazado_978707" data-name="Trazado 978707" d="M55.983,200.835h4.251a.831.831,0,1,0,0-1.661H55.983a.831.831,0,1,0,0,1.661Z" transform="translate(-50.714 -177.116)"/>
        <path id="Trazado_978708" data-name="Trazado 978708" d="M55.983,230.821H70.865a.831.831,0,0,0,0-1.661H55.983a.831.831,0,1,0,0,1.661Z" transform="translate(-50.714 -203.781)"/>
        <path id="Trazado_978709" data-name="Trazado 978709" d="M174.9,306.579H167.37a.831.831,0,1,0,0,1.661H174.9a.831.831,0,1,0,0-1.661Z" transform="translate(-149.765 -272.627)"/>
        <path id="Trazado_978710" data-name="Trazado 978710" d="M174.9,333.579H167.37a.831.831,0,1,0,0,1.661H174.9a.831.831,0,1,0,0-1.661Z" transform="translate(-149.765 -296.636)"/>
        <path id="Trazado_978711" data-name="Trazado 978711" d="M203.356,360.579H199.37a.831.831,0,1,0,0,1.661h3.987a.831.831,0,1,0,0-1.661Z" transform="translate(-178.221 -320.646)"/>
      </g>
    </g>
  </g>
</svg>
